<svg width="25" height="26" viewBox="0 0 25 26" fill="none" xmlns="http://www.w3.org/2000/svg">
<path fill-rule="evenodd" clip-rule="evenodd" d="M2.70003 1.7277C4.33961 2.44738 7.03058 2.36217 8.83549 1C11.3593 2.84917 13.7882 2.65934 16.1042 1C17.6483 2.1161 20.0255 2.59264 22.2562 1.75113L23.2562 3.14051C20.6486 6.62528 21.6138 9.95626 24.3034 12.8877L23.174 14.0328C23.4298 21.5488 17.6086 23.3433 14.2659 23.5296L12.4687 25L10.6849 23.5515C4.71721 23.0361 1.56638 19.8878 1.7613 14.0521L0.600098 12.8789C2.86899 10.4248 4.57392 7.07129 1.65934 3.13975L2.70003 1.7277Z" fill="black" stroke="black" stroke-width="0.0389009"/>
<path fill-rule="evenodd" clip-rule="evenodd" d="M2.8359 13.9009H22.0384C22.543 19.2146 19.1671 22.0847 14.0335 22.3669L10.7714 22.3751C5.85992 22.022 2.20073 19.4289 2.8359 13.9009Z" fill="#004D98"/>
<path d="M13.8338 13.9648H11.1138V22.4559H13.8338V13.9648Z" fill="#A50044"/>
<path d="M8.42026 13.9648H5.7002V21.5534H8.42026V13.9648Z" fill="#A50044"/>
<path d="M8.42013 21.1646H6.64844V21.9462H8.42013V21.1646Z" fill="#A50044"/>
<path d="M19.2166 13.9648H16.4966V21.5534H19.2166V13.9648Z" fill="#A50044"/>
<path d="M18.2683 21.1646H16.4966V21.9462H18.2683V21.1646Z" fill="#A50044"/>
<path fill-rule="evenodd" clip-rule="evenodd" d="M12.3858 3.48362V11.0256L3.21937 11.0919L4.16419 7.46181L2.9873 3.11896L8.78883 2.37305L12.3858 3.48362Z" fill="white"/>
<path fill-rule="evenodd" clip-rule="evenodd" d="M12.5181 3.48362V11.0256L21.6845 11.0919L20.7397 7.46181L21.9165 3.11896L16.115 2.37305L12.5181 3.48362Z" fill="#FFED02"/>
<path d="M9.71702 2.58789H7.08887V10.9789H9.71702V2.58789Z" fill="#DB0030"/>
<path d="M12.3857 8.34593V5.71777H4.20775V8.34593H12.3857Z" fill="#DB0030"/>
<path d="M14.3129 3.18262H13.3408V10.9241H14.3129V3.18262Z" fill="#DB0030"/>
<path d="M16.1581 2.62793H15.186V10.9423H16.1581V2.62793Z" fill="#DB0030"/>
<path d="M18.0155 3.09668H17.0435V10.9597H18.0155V3.09668Z" fill="#DB0030"/>
<path d="M19.8553 3.38477H18.8833V10.9527H19.8553V3.38477Z" fill="#DB0030"/>
<path fill-rule="evenodd" clip-rule="evenodd" d="M8.8202 1.59717C7.12741 2.83792 4.44872 2.96846 2.91099 2.3481L2.29511 3.14097C4.9373 6.85873 3.41924 10.599 1.32422 12.8897L2.28897 13.9107C1.89749 19.5144 5.16762 22.7552 10.9165 23.0886L12.4746 24.39L14.0296 23.0682C17.3774 23.0104 23.2477 21.1329 22.6152 13.9026L23.585 12.8979C21.1247 10.1693 20.2767 6.432 22.654 3.14097L22.076 2.35321C19.9724 3.04452 17.5659 2.66133 16.1177 1.61456C13.9456 3.17083 11.1872 3.33147 8.8202 1.59717ZM16.1371 2.66218C17.4431 3.47308 18.8863 3.70382 21.3742 3.48574C20.1284 5.64122 19.9938 8.20897 21.0969 10.6881L3.83174 10.6779C4.76033 8.46262 4.97339 5.9135 3.51766 3.43663C5.31213 3.69716 7.06503 3.63474 8.81304 2.68366C11.184 4.07552 13.6232 4.10098 16.1371 2.66218ZM3.21893 13.9844H21.7333C22.2199 19.1076 18.9649 21.8743 14.0153 22.1464L10.8694 22.1546C6.134 21.8142 2.60653 19.3143 3.21893 13.9844Z" fill="#EDBB00" stroke="#DEB405" stroke-width="0.0364844"/>
<path fill-rule="evenodd" clip-rule="evenodd" d="M3.49756 3.4638C4.95329 5.94067 4.74007 8.48974 3.81148 10.705L21.0763 10.7152C19.9732 8.23606 20.1082 5.66828 21.354 3.5128C18.8661 3.73087 17.4233 3.50036 16.1173 2.68945C13.6034 4.12826 11.1634 4.10224 8.79242 2.71038C7.04441 3.66146 5.29202 3.72433 3.49756 3.4638Z" stroke="black" stroke-width="0.155603"/>
<path fill-rule="evenodd" clip-rule="evenodd" d="M3.21858 13.9849H21.7326C22.2192 19.1081 18.9643 21.8753 14.0147 22.1473L10.8696 22.1553C6.13419 21.8149 2.60618 19.3147 3.21858 13.9849Z" stroke="black" stroke-width="0.155603"/>
<path d="M12.4575 3.72266V10.7183" stroke="black" stroke-width="0.155603"/>
<path d="M15.0113 17.9771C15.0113 18.3076 14.9463 18.635 14.8198 18.9405C14.6933 19.2459 14.5079 19.5234 14.2742 19.7572C14.0405 19.991 13.7629 20.1765 13.4575 20.303C13.1521 20.4295 12.8248 20.4946 12.4942 20.4946C12.1636 20.4946 11.8362 20.4295 11.5308 20.303C11.2254 20.1765 10.9479 19.991 10.7141 19.7572C10.4804 19.5234 10.295 19.2459 10.1685 18.9405C10.0421 18.635 9.97699 18.3076 9.97705 17.9771C9.97699 17.6465 10.0421 17.3191 10.1685 17.0137C10.295 16.7082 10.4804 16.4307 10.7141 16.1969C10.9479 15.9631 11.2254 15.7776 11.5308 15.6511C11.8362 15.5246 12.1636 15.4595 12.4942 15.4595C12.8248 15.4595 13.1521 15.5246 13.4575 15.6511C13.7629 15.7776 14.0405 15.9631 14.2742 16.1969C14.5079 16.4307 14.6933 16.7082 14.8198 17.0137C14.9463 17.3191 15.0113 17.6465 15.0113 17.9771Z" fill="#EDBB00" stroke="black" stroke-width="0.156383"/>
<path d="M11.0421 15.9268C10.7483 16.9976 10.5661 18.052 11.4137 18.5586C12.0059 18.9126 12.4064 18.1906 12.5173 17.9109" stroke="black" stroke-width="0.136153"/>
<path d="M10.165 18.9923C10.6612 18.9697 10.9202 18.9289 11.2384 18.4453" stroke="black" stroke-width="0.136153"/>
<path d="M12.4966 17.9297C12.9945 17.6236 13.4374 17.7717 13.6431 18.5379C14.1278 18.3432 14.5948 18.7172 14.7165 19.0953" stroke="black" stroke-width="0.136153"/>
<path d="M13.6533 18.5381C13.2854 19.4262 12.3178 19.8373 10.9595 19.9727" stroke="black" stroke-width="0.136153"/>
<path d="M12.4974 17.9661C12.1918 17.6863 11.7216 17.366 12.4066 16.5433C12.1159 16.175 12.0368 15.8151 12.4167 15.4736" stroke="black" stroke-width="0.136153"/>
<path d="M14.9997 18.1277C14.5527 17.3375 13.5122 16.2425 12.4062 16.5333" stroke="black" stroke-width="0.136153"/>
</svg>
