<svg width="25" height="24" viewBox="0 0 25 24" fill="none" xmlns="http://www.w3.org/2000/svg">
<path d="M12.5999 0C5.97261 0 0.600098 5.37251 0.600098 11.9998C0.600098 18.6271 5.97261 24 12.5999 24C19.2272 24 24.6001 18.6266 24.6001 11.9998C24.6001 5.37294 19.2267 0 12.5999 0Z" fill="#0066B2"/>
<path d="M12.5996 0.599609C6.30383 0.599609 1.19971 5.70373 1.19971 11.9995C1.19971 18.2953 6.30383 23.3999 12.5996 23.3999C18.8954 23.3999 24 18.2958 24 11.9995C24 5.70331 18.8959 0.599609 12.5996 0.599609Z" fill="white"/>
<path d="M12.5995 1.14014C6.60172 1.14014 1.73975 6.00254 1.73975 11.9999C1.73975 17.9972 6.60215 22.8601 12.5995 22.8601C18.5969 22.8601 23.4597 17.9981 23.4597 11.9999C23.4597 6.00169 18.5977 1.14014 12.5995 1.14014ZM12.5995 18.78C11.2585 18.78 9.94766 18.3823 8.83268 17.6373C7.7177 16.8923 6.84868 15.8334 6.33551 14.5945C5.82234 13.3556 5.68807 11.9924 5.94968 10.6772C6.21129 9.36195 6.85703 8.15385 7.80525 7.20564C8.75346 6.25742 9.96156 5.61168 11.2768 5.35007C12.592 5.08846 13.9552 5.22273 15.1941 5.7359C16.433 6.24907 17.4919 7.11809 18.2369 8.23307C18.982 9.34805 19.3796 10.6589 19.3796 11.9999C19.3797 12.8903 19.2043 13.772 18.8636 14.5946C18.5229 15.4172 18.0235 16.1647 17.3939 16.7943C16.7643 17.4239 16.0168 17.9233 15.1942 18.264C14.3716 18.6047 13.4899 18.78 12.5995 18.78Z" fill="#DC052D"/>
<path d="M6.63884 13.8429C6.91278 14.7322 7.38297 15.5486 8.01467 16.2318V13.4196L6.42463 11.0968C6.28977 12.0167 6.36297 12.9551 6.63884 13.8429ZM9.84855 16.0718V12.8515L8.02822 10.1925V7.75373C7.69224 8.11607 7.40037 8.51694 7.15869 8.94795L8.01382 10.1972V13.4196L9.83416 16.0781V17.592C10.2769 17.8109 10.744 17.9768 11.2257 18.086L9.84855 16.0718ZM11.6829 12.2821L13.5032 14.9406V18.1626L11.6829 15.5037V12.2838L9.86252 9.62486V6.40287L11.6829 9.0614V12.2821ZM13.5172 11.7144L11.6968 9.05547V5.83518L13.5172 8.49413V11.7161L15.3375 14.3751V17.5971L13.5172 14.9381V11.7144ZM10.7553 6.03881C9.85746 6.31561 9.03404 6.79238 8.34699 7.43326L9.85024 9.62909V12.8511L11.6706 15.5096V18.1707C12.5999 18.3102 13.5487 18.2384 14.4464 17.9607C15.3441 17.683 16.1677 17.2065 16.856 16.5667L15.3527 14.3708V11.1484L13.5324 8.48948V5.82841C12.6029 5.6881 11.6537 5.76047 10.7562 6.04008L10.7553 6.03881ZM17.1866 13.804V10.5807L15.3663 7.92179V6.40838C14.9234 6.1892 14.4562 6.02322 13.9744 5.91392L15.3519 7.92645V11.1484L17.1722 13.8074V16.2462C17.508 15.884 17.7997 15.4832 18.0413 15.0524L17.1866 13.804ZM18.562 10.1561C18.2881 9.26695 17.8181 8.45059 17.1866 7.76727V10.582L18.7762 12.9044C18.9115 11.9838 18.8383 11.0446 18.562 10.1561Z" fill="#0066B2"/>
<path d="M5.34131 14.2432L5.64949 14.8993L5.14827 15.8468C5.07292 15.9877 5.00772 16.1029 5.00772 16.1029L5.0145 16.1151C5.0145 16.1151 5.147 16.1232 5.30617 16.1367L6.37382 16.2328L6.75482 16.8488L4.44765 18.1967L4.07893 17.604L5.04498 17.0418C5.27019 16.9114 5.43994 16.8196 5.43994 16.8196L5.43317 16.8073C5.43317 16.8073 5.31676 16.7988 5.07334 16.7628L4.09078 16.6168L4.08401 16.6045L4.49464 15.7007C4.59709 15.4772 4.65339 15.3747 4.65339 15.3747L4.64662 15.3625C4.64662 15.3625 4.47729 15.4547 4.24488 15.5741L3.24751 16.0741L2.95117 15.4425L5.34131 14.2432ZM7.10745 17.1553L7.63916 17.6277L6.57151 18.8977C6.39625 19.1094 6.40514 19.3304 6.67015 19.5391C6.93516 19.7478 7.15275 19.7046 7.317 19.4849L8.30167 18.1493L8.88545 18.5552L7.87453 19.9243C7.41098 20.5525 6.8107 20.4285 6.29169 20.02C5.77268 19.6114 5.51064 19.0569 6.01356 18.4574L7.10745 17.1553ZM8.17129 18.0197L7.51512 18.4782L7.50412 18.4693L7.79664 17.7242L8.17129 18.0197ZM9.29651 18.7868L9.99077 19.0408L10.3832 20.3811C10.4679 20.6711 10.5026 20.8243 10.5026 20.8243L10.5229 20.8302C10.5229 20.8302 10.5682 20.6308 10.6347 20.387L10.9196 19.3206L11.5969 19.4811L10.9069 22.0634L10.1872 21.8907L9.74143 20.4894C9.65676 20.2172 9.61866 20.0449 9.61866 20.0449L9.59834 20.039C9.59834 20.039 9.53865 20.2507 9.4633 20.4755L9.09923 21.5622L8.44518 21.3209L9.29651 18.7868ZM14.4946 21.0986C14.5094 21.7336 14.1136 22.1671 13.3554 22.2183C12.6472 22.2674 11.9842 21.9449 11.9453 20.9128C11.9059 19.8659 12.4855 19.4734 13.1653 19.4281C13.9015 19.3782 14.3274 19.7897 14.4006 20.3485L13.6852 20.3967C13.6196 20.1546 13.49 20.0119 13.1747 20.0335C12.8783 20.0534 12.673 20.3248 12.6954 20.862C12.7196 21.4237 12.9524 21.6405 13.2822 21.6185C13.612 21.5965 13.7559 21.4386 13.7716 21.1486L14.4946 21.0986ZM14.6546 19.2525L15.318 18.9985L15.6931 19.8968L16.5211 19.5192L16.0872 18.6433L16.7158 18.3105L17.9012 20.7058L17.2717 21.0398L16.8026 20.0873L15.9361 20.4822L16.348 21.4631L15.6846 21.7171L14.6546 19.2554V19.2525ZM17.1358 17.9986L18.4147 16.773L18.8261 17.1769L18.0244 17.9452L18.3304 18.2839L19.1068 17.5401L19.5086 17.9338L18.7063 18.703L19.0391 19.0755L19.9425 18.2098L20.354 18.6137L18.9231 19.9848L17.1358 17.9986ZM18.7339 16.3941L19.0996 15.7528L20.4873 15.5928C20.7874 15.558 20.9445 15.5504 20.9445 15.5504L20.9538 15.5314C20.9538 15.5314 20.7663 15.4518 20.539 15.3459L19.5361 14.8849L19.8087 14.2436L22.2323 15.3599L21.9406 16.0372L20.4839 16.2413C20.2011 16.2811 20.025 16.2874 20.025 16.2874L20.0157 16.3065C20.0157 16.3065 20.2121 16.4005 20.423 16.5135L21.4322 17.0562L21.0838 17.6599L18.7339 16.3941ZM3.45494 7.55028L3.99088 7.76194L3.56331 8.94854L4.06369 9.11407L4.46416 8.00367L4.98698 8.2111L4.59836 9.28848L5.53435 9.59243L5.33327 10.2744L2.77295 9.44046L3.45494 7.55028ZM6.72815 5.78667C7.19 6.20535 7.26959 6.77896 6.80816 7.36316C6.38482 7.89783 5.73543 8.15437 4.89427 7.52996C4.06411 6.91443 4.1746 6.1863 4.61402 5.62919C5.07969 5.03907 5.67447 4.98954 6.13802 5.31804L5.69352 5.88065C5.47677 5.75873 5.27315 5.77228 5.07038 6.02882C4.8676 6.28536 4.91247 6.60286 5.36248 6.94025C5.793 7.26241 6.12913 7.25056 6.31667 7.01349C6.5169 6.75949 6.47796 6.55417 6.28195 6.35479L6.72815 5.78667ZM8.48413 2.76238C8.95615 2.54437 9.41843 2.49695 9.62205 2.97955C9.78926 3.37452 9.68301 3.54724 9.47685 3.72039L9.48404 3.73647C9.70417 3.68525 9.99924 3.69414 10.1872 4.13525C10.4128 4.66569 10.067 4.9726 9.59453 5.19104L8.59631 5.65248L7.39955 3.26361L8.48413 2.76238ZM8.88503 3.73055C9.07002 3.64588 9.12294 3.55867 9.04843 3.38045C8.97647 3.20858 8.85455 3.19545 8.6759 3.278L8.27712 3.46215L8.50233 3.90792L8.88503 3.73055ZM9.3363 4.70675C9.54035 4.61235 9.59623 4.53234 9.50987 4.32829C9.42943 4.13737 9.28804 4.13271 9.08357 4.22712L8.73898 4.38629L8.98197 4.86846L9.3363 4.70675ZM13.3444 4.51794H12.5862L12.3686 4.03746L11.4513 4.1162L11.3188 4.6242L10.5716 4.75543L11.312 1.96144L12.1383 1.89032L13.3444 4.51794ZM12.162 3.52269L11.9339 3.00284C11.8551 2.82631 11.7959 2.66925 11.7959 2.66925H11.7819C11.7819 2.66925 11.7501 2.83435 11.7027 3.02189L11.5668 3.57222L12.162 3.52269ZM14.0196 3.73393L13.399 1.8374L14.2 1.9898L14.443 2.79413C14.4887 2.9478 14.5276 3.11121 14.5276 3.11121L14.5412 3.11417C14.5412 3.11417 14.6453 2.98209 14.7507 2.86017L15.3049 2.22899L16.0969 2.42245L14.7473 3.89184L14.5408 4.77829L13.8401 4.62632L14.0196 3.73393ZM16.6303 2.65359L18.3118 3.57688L18.0189 4.07345L16.983 3.50364L16.7755 3.91089L17.7335 4.43667L17.4474 4.92096L16.5203 4.41296L16.2925 4.85703L17.3026 5.4116L17.0096 5.90817L15.4204 5.03568L16.6303 2.65359ZM19.2419 4.29993L20.0576 5.17284C20.475 5.61946 20.5749 6.05041 20.0779 6.48517C19.7604 6.76288 19.5276 6.8395 19.2495 6.7307L18.8228 7.80766L18.319 7.19171L18.7093 6.31245L18.4765 6.06353L17.8487 6.68879L17.3331 6.199L19.2419 4.29993ZM18.8748 5.66729L19.1508 5.96363C19.3045 6.12788 19.4336 6.13296 19.6051 5.98141C19.7765 5.82985 19.7714 5.69142 19.6178 5.52675L19.3274 5.21602L18.8748 5.66729ZM19.9154 10.2693L19.6715 9.57169L20.4602 8.41938C20.6295 8.17469 20.7278 8.046 20.7278 8.046L20.7197 8.02653C20.7197 8.02653 20.5368 8.11754 20.3057 8.22084L19.3003 8.67592L18.9946 8.04939L21.4288 6.94872L21.7505 7.6142L20.9496 8.84779C20.7959 9.08274 20.6837 9.22456 20.6837 9.22456L20.6918 9.24403C20.6918 9.24403 20.8916 9.15936 21.1151 9.07216L22.1866 8.66576L22.4143 9.32446L19.9154 10.2693Z" fill="white"/>
</svg>
