<svg width="24" height="24" viewBox="0 0 24 24" fill="none" xmlns="http://www.w3.org/2000/svg">
<g clip-path="url(#clip0_231_4981)">
<path d="M24 12C24 18.6279 18.6272 24 12 24C5.37243 24 0 18.6279 0 12C0 5.37274 5.37243 0 12 0C18.6272 0 24 5.37274 24 12Z" fill="#DBA111"/>
<path d="M23.5999 11.9998C23.5999 18.4062 18.4068 23.5994 12.0002 23.5994C5.59364 23.5994 0.400391 18.4063 0.400391 11.9998C0.400391 5.59315 5.59364 0.399902 12.0002 0.399902C18.4067 0.399902 23.5999 5.59315 23.5999 11.9998Z" fill="#034694"/>
<path d="M20.2665 12.0001C20.2665 16.5655 16.5655 20.2659 12.0001 20.2659C7.4345 20.2659 3.7334 16.5655 3.7334 12.0001C3.7334 7.43429 7.4345 3.7334 12.0001 3.7334C16.5656 3.73335 20.2665 7.43429 20.2665 12.0001Z" fill="#DBA111"/>
<path d="M20.0159 12.0002C20.0159 16.4275 16.4263 20.0164 11.9996 20.0164C7.57236 20.0164 3.9834 16.4274 3.9834 12.0002C3.9834 7.57295 7.57236 3.98389 11.9996 3.98389C16.4264 3.98389 20.0159 7.5729 20.0159 12.0002Z" fill="white"/>
<path d="M5.13136 18.9162C5.22006 19.0008 5.43828 19.2086 5.43828 19.2086L5.64745 18.9884L5.02351 18.3936L4.94323 18.4778L4.10547 19.356L4.42355 19.6588C4.42355 19.6588 4.6922 19.377 4.7905 19.2744C4.87265 19.3524 5.06976 19.5403 5.06976 19.5403L5.27909 19.3205C5.27909 19.3205 5.08228 19.1328 5.00024 19.0542C5.05229 18.9993 5.07875 18.9716 5.13136 18.9162Z" fill="#DBA111"/>
<path d="M6.63605 19.9189C6.60782 19.7504 6.51326 19.6016 6.37017 19.5C6.22774 19.3988 6.05679 19.3588 5.88835 19.3865C5.70695 19.4173 5.54397 19.523 5.42916 19.6837C5.31475 19.8454 5.26855 20.0339 5.29935 20.216C5.32767 20.3839 5.42158 20.5317 5.56422 20.6334C5.70695 20.7349 5.87917 20.7755 6.04734 20.7472C6.22865 20.7167 6.39173 20.6108 6.50614 20.4496C6.59773 20.3218 6.64549 20.1754 6.64549 20.0291C6.64554 19.9927 6.64246 19.9552 6.63605 19.9189H6.63605ZM5.74007 20.3854C5.59426 20.2822 5.71462 20.0666 5.79955 19.948C5.88427 19.8285 6.04851 19.6437 6.19432 19.7468C6.34649 19.8556 6.20431 20.0908 6.13606 20.1863C6.06759 20.2828 5.89255 20.4942 5.74007 20.3854Z" fill="#DBA111"/>
<path d="M7.6169 20.2518C7.28115 20.0819 6.89279 20.2212 6.71441 20.5747C6.62504 20.7514 6.60757 20.9454 6.66513 21.1199C6.7183 21.2821 6.83356 21.4145 6.98983 21.4931C7.14609 21.5727 7.32194 21.5865 7.48447 21.5331C7.65891 21.4762 7.80442 21.3473 7.89323 21.1707C8.07236 20.8165 7.95331 20.4217 7.6169 20.2518ZM7.24555 21.2343C7.20617 21.2472 7.16881 21.2432 7.1264 21.2221C7.0598 21.1881 7.03638 21.1275 7.03638 21.0597C7.03638 20.966 7.08146 20.8555 7.11968 20.7802C7.18593 20.6492 7.32043 20.4424 7.48002 20.5229C7.52213 20.5444 7.54733 20.5723 7.5601 20.6112C7.58681 20.6918 7.55999 20.8242 7.488 20.9658C7.41641 21.1076 7.32583 21.2077 7.24555 21.2343Z" fill="#DBA111"/>
<path d="M8.31032 20.7377L8.24853 20.9149C8.24853 20.9149 8.40656 20.9703 8.45452 20.9862C8.39403 21.1591 8.11523 21.9549 8.11523 21.9549L8.52919 22.1001C8.52919 22.1001 8.80845 21.305 8.86878 21.132C8.91705 21.1489 9.07513 21.2038 9.07513 21.2038L9.17545 20.9179L8.3488 20.6279L8.31032 20.7377Z" fill="#DBA111"/>
<path d="M10.0287 21.1221L9.46927 21.0039L9.44533 21.1177L9.19531 22.305L9.76463 22.4257C9.94659 22.4633 10.0664 22.4186 10.1347 22.3744C10.2215 22.3178 10.2822 22.225 10.3056 22.1141C10.312 22.0839 10.3151 22.0546 10.3151 22.026C10.3151 21.9458 10.2897 21.8735 10.2438 21.8114C10.3079 21.7605 10.3536 21.6886 10.3727 21.5989C10.3775 21.5757 10.3804 21.5495 10.3804 21.5222C10.3804 21.3703 10.2936 21.1773 10.0287 21.1221H10.0287ZM9.8747 22.0285C9.86874 22.0556 9.85783 22.0915 9.83728 22.1049C9.8183 22.1172 9.7818 22.1188 9.73454 22.1086C9.73454 22.1086 9.71303 22.1038 9.68758 22.0988C9.70576 22.0131 9.71793 21.9561 9.73565 21.8703C9.75998 21.876 9.79109 21.8822 9.79109 21.8822C9.8645 21.8977 9.87858 21.952 9.87858 21.9914C9.87863 22.0073 9.87661 22.0207 9.8747 22.0285L9.8747 22.0285ZM9.83648 21.393C9.8856 21.4042 9.9217 21.4222 9.93558 21.4432C9.94194 21.4529 9.94507 21.4664 9.94507 21.4823C9.94507 21.492 9.94375 21.5031 9.94123 21.5166C9.93371 21.5514 9.92351 21.5996 9.82672 21.5798C9.82672 21.5798 9.81466 21.5766 9.79805 21.5731C9.8135 21.5012 9.82082 21.4653 9.83647 21.393L9.83648 21.393Z" fill="#DBA111"/>
<path d="M11.0617 21.3154L10.4541 22.5597L10.8011 22.5863C10.8011 22.5863 10.895 22.3881 10.9325 22.3091C11.0059 22.3152 11.0795 22.3204 11.1515 22.3262C11.1784 22.4093 11.2462 22.6202 11.2462 22.6202L11.7078 22.6561L11.192 21.0571L11.0617 21.3154Z" fill="#DBA111"/>
<path d="M12.4322 22.3085C12.4246 22.1266 12.3896 21.2988 12.3896 21.2988L11.9512 21.3173L12.0066 22.6458L12.8853 22.6093L12.8721 22.2905C12.8721 22.2906 12.5583 22.304 12.4322 22.3085Z" fill="#DBA111"/>
<path d="M13.6344 22.1813C13.6061 22.0015 13.4778 21.1831 13.4778 21.1831L13.3629 21.2015L13.0439 21.2512L13.2498 22.5653L14.119 22.4288L14.0692 22.1136C14.0692 22.1136 13.7592 22.1625 13.6344 22.1813Z" fill="#DBA111"/>
<path d="M16.1504 21.298C16.1468 21.4119 16.0797 21.51 15.9749 21.5514C15.9168 21.5745 15.8614 21.5745 15.8059 21.551C15.7206 21.5145 15.6417 21.4222 15.5943 21.3036C15.5385 21.1637 15.5271 21.0448 15.5637 20.9613C15.5889 20.9029 15.6382 20.8592 15.7135 20.829C15.7952 20.7965 15.8727 20.8264 15.9789 20.889L16.0763 20.9465L16.2382 20.6913L16.1421 20.6281C15.9656 20.5122 15.7471 20.4885 15.5581 20.564C15.3826 20.634 15.2466 20.7648 15.1747 20.9321C15.1018 21.1018 15.1017 21.296 15.1757 21.4802C15.3154 21.8293 15.71 22.0012 16.0551 21.8631C16.3044 21.7635 16.4455 21.5741 16.4635 21.3153L16.4717 21.1998L16.1541 21.1763L16.1503 21.298" fill="#DBA111"/>
<path d="M17.1736 20.9342C17.0838 20.7746 16.6803 20.0508 16.6803 20.0508L16.5792 20.1078L16.2969 20.2655L16.9458 21.4264L17.7129 20.9979L17.5576 20.7192C17.5577 20.7192 17.2831 20.8722 17.1736 20.9342Z" fill="#DBA111"/>
<path d="M18.0273 19.144L17.9332 19.2129L17.7684 19.334L18.3069 20.068C18.3316 20.1012 18.3316 20.1234 18.3294 20.1364C18.3242 20.1742 18.2848 20.2153 18.2499 20.2404C18.2335 20.2521 18.1954 20.2681 18.1564 20.262C18.1286 20.258 18.1066 20.2429 18.0871 20.2165L17.5549 19.4907L17.2002 19.7504L17.7298 20.4725C17.8084 20.5794 17.906 20.6426 18.0199 20.66C18.1477 20.6799 18.293 20.6364 18.428 20.5366C18.7057 20.3336 18.7011 20.064 18.58 19.8988L18.0273 19.144Z" fill="#DBA111"/>
<path d="M19.6434 18.8773C19.5618 18.7926 19.4611 18.7545 19.3554 18.7603C19.3492 18.6781 19.3173 18.5996 19.2538 18.5339C19.1429 18.4194 18.8949 18.3302 18.6666 18.5524L18.2559 18.9496L19.1813 19.9051L19.5991 19.5001C19.7327 19.3707 19.762 19.2454 19.7633 19.1645C19.7655 19.0606 19.7228 18.9589 19.6434 18.8773ZM18.9443 18.8451C18.9581 18.8598 18.9749 18.877 18.9749 18.9009C18.9749 18.9204 18.9643 18.9446 18.9322 18.9753C18.9322 18.9753 18.9235 18.9841 18.9118 18.9958C18.86 18.9421 18.8354 18.9168 18.7828 18.8628C18.8755 18.7778 18.9139 18.8141 18.9443 18.8451ZM19.1634 19.1741C19.2384 19.1016 19.3106 19.1653 19.3312 19.1869C19.3512 19.2069 19.3738 19.2351 19.3738 19.2595C19.3738 19.2595 19.3738 19.2595 19.3738 19.2603C19.3734 19.2829 19.3543 19.3142 19.3199 19.3475C19.3199 19.3475 19.304 19.363 19.285 19.3808C19.2245 19.3182 19.1835 19.2762 19.1229 19.214C19.1408 19.1962 19.1634 19.174 19.1634 19.174V19.1741Z" fill="#DBA111"/>
<path d="M5.12803 18.7928C5.16423 18.8276 5.43445 19.0854 5.43445 19.0854L5.52356 18.9914L5.02569 18.5166L5.00564 18.5376L4.22852 19.3528L4.41997 19.5355C4.41997 19.5355 4.75108 19.1885 4.78672 19.1505C4.82292 19.185 5.06653 19.417 5.06653 19.417L5.1558 19.3233C5.1558 19.3233 4.91219 19.0915 4.87599 19.057C4.9083 19.0232 5.09602 18.8263 5.12803 18.7928Z" fill="white"/>
<path d="M6.31899 19.571C6.1956 19.4832 6.04792 19.4481 5.90296 19.4723C5.74382 19.4996 5.60109 19.5925 5.50006 19.7347C5.39873 19.8773 5.35809 20.0427 5.3851 20.2012C5.40938 20.3466 5.49107 20.4749 5.61457 20.5624C5.73872 20.6508 5.88701 20.6853 6.03262 20.6609C6.1909 20.6343 6.33384 20.541 6.43471 20.3998C6.51535 20.2859 6.55796 20.1569 6.55796 20.0291C6.55796 19.9973 6.55518 19.965 6.54998 19.9332C6.52529 19.788 6.44345 19.6594 6.319 19.571H6.31899ZM6.20666 20.2373C6.12315 20.3541 5.90579 20.6108 5.68945 20.4569C5.47386 20.3038 5.64502 20.0145 5.72817 19.8969C5.81158 19.7794 6.02904 19.5232 6.24432 19.6763C6.46072 19.8306 6.29007 20.1201 6.20666 20.2373Z" fill="white"/>
<path d="M7.57719 20.3297C7.28587 20.1824 6.94835 20.305 6.79184 20.6145C6.71302 20.7701 6.69747 20.9394 6.74751 21.093C6.79345 21.2324 6.89332 21.3465 7.02878 21.4147C7.16455 21.4841 7.31677 21.4964 7.45698 21.4502C7.60951 21.3999 7.73684 21.2869 7.81565 21.1314C7.97172 20.8219 7.86932 20.4769 7.57719 20.3297ZM7.08674 21.2991C6.85086 21.1805 6.97637 20.8684 7.04156 20.7402C7.10654 20.6114 7.2831 20.3253 7.51863 20.4451C7.58133 20.4764 7.62319 20.5231 7.64313 20.5841C7.68938 20.7254 7.61435 20.908 7.56538 21.0051C7.51666 21.1014 7.41376 21.2704 7.27229 21.3167C7.21176 21.3372 7.14915 21.331 7.08674 21.2991Z" fill="white"/>
<path d="M8.39245 20.7667L8.35903 20.8613C8.35903 20.8613 8.52388 20.9193 8.56517 20.9338C8.5469 20.9855 8.22559 21.9018 8.22559 21.9018L8.4753 21.9895C8.4753 21.9895 8.79687 21.0733 8.81484 21.0214C8.85614 21.0358 9.02099 21.0934 9.02099 21.0934L9.06406 20.9718L8.40164 20.7393L8.39245 20.7667" fill="white"/>
<path d="M10.0111 21.207L9.53693 21.1069L9.53057 21.1357L9.29883 22.2383L9.78261 22.3399C9.90561 22.3656 10.0079 22.3528 10.0871 22.3009C10.1556 22.2563 10.2015 22.185 10.2203 22.0962C10.2251 22.072 10.228 22.0489 10.228 22.0263C10.228 21.9299 10.1802 21.8482 10.0948 21.7897C10.1936 21.7613 10.2644 21.6885 10.2872 21.5805C10.2911 21.5637 10.2934 21.5437 10.2934 21.5211C10.2934 21.4108 10.2353 21.2543 10.0111 21.207H10.0111ZM9.84532 21.3046C9.92504 21.3215 9.98023 21.352 10.0083 21.3953C10.0245 21.42 10.0324 21.4488 10.0324 21.4823C10.0324 21.4987 10.0303 21.5156 10.0265 21.5341C9.99568 21.6809 9.87708 21.6793 9.80887 21.6644C9.80887 21.6644 9.73667 21.6495 9.69481 21.6408C9.70455 21.5955 9.75959 21.3338 9.76908 21.2887C9.79938 21.2949 9.84532 21.3046 9.84532 21.3046ZM9.80887 21.7968C9.94357 21.8251 9.96483 21.9314 9.96483 21.9959C9.96483 22.0237 9.96049 22.0435 9.95994 22.0467C9.94635 22.1105 9.92207 22.1535 9.88476 22.1776C9.84533 22.2039 9.78853 22.209 9.71668 22.1941C9.71668 22.1941 9.63044 22.1756 9.58425 22.1664C9.59419 22.119 9.65867 21.8136 9.66841 21.7671C9.70789 21.7753 9.80887 21.7968 9.80887 21.7968H9.80887Z" fill="white"/>
<path d="M11.1404 21.354L10.5889 22.4829L10.7477 22.4947C10.7477 22.4947 10.8644 22.2494 10.8799 22.218C10.9135 22.2206 11.1834 22.2416 11.2165 22.2443C11.2271 22.2767 11.3113 22.5383 11.3113 22.5383L11.5849 22.5595L11.1752 21.2896L11.1404 21.354ZM11.0798 21.8079C11.1065 21.8932 11.1578 22.0576 11.1747 22.1113C11.1203 22.1072 10.9948 22.0975 10.9409 22.0934C10.9656 22.0426 11.0408 21.8881 11.0798 21.8079Z" fill="white"/>
<path d="M12.348 22.3993C12.3458 22.3443 12.3053 21.3896 12.3053 21.3896L12.2771 21.3907L12.041 21.4003L12.0895 22.5553L12.7941 22.5254L12.7879 22.3812C12.788 22.3813 12.3989 22.3977 12.348 22.3994" fill="white"/>
<path d="M13.5618 22.2821C13.553 22.2277 13.4048 21.2827 13.4048 21.2827L13.3765 21.2873L13.1436 21.3241L13.3226 22.4658L14.0192 22.3559L13.9968 22.2132C13.9967 22.2133 13.6116 22.2738 13.5618 22.2821" fill="white"/>
<path d="M16.2377 21.2997C16.2336 21.4501 16.1453 21.5775 16.0078 21.6329C15.9277 21.6648 15.8486 21.6637 15.7722 21.6308C15.6645 21.5853 15.5704 21.4774 15.5134 21.3358C15.4492 21.1741 15.4389 21.0324 15.4837 20.9266C15.5186 20.8465 15.5849 20.7866 15.6818 20.7481C15.8087 20.6973 15.9251 20.7552 16.0237 20.8137L16.0483 20.8281L16.1192 20.7167L16.0955 20.7007C15.9425 20.6006 15.7536 20.5797 15.5911 20.6447C15.437 20.7065 15.3174 20.8204 15.2553 20.9662C15.1916 21.1139 15.1922 21.2854 15.2574 21.447C15.379 21.752 15.7222 21.9018 16.0237 21.7817C16.2423 21.694 16.361 21.5354 16.3768 21.309L16.3789 21.2798L16.2394 21.2701L16.2377 21.2997" fill="white"/>
<path d="M17.1403 21.0533C17.1131 21.0055 16.647 20.1704 16.647 20.1704L16.6213 20.1847L16.416 20.2997L16.9791 21.308L17.5946 20.9643L17.5246 20.8381C17.5247 20.8382 17.1839 21.028 17.1403 21.0533Z" fill="white"/>
<path d="M18.0081 19.2656L17.9843 19.2831L17.89 19.3524L18.3771 20.0161C18.4097 20.0608 18.4225 20.1054 18.4156 20.149C18.4039 20.2281 18.3319 20.2888 18.3018 20.3103C18.2672 20.3364 18.204 20.358 18.1435 20.3481C18.0921 20.3405 18.05 20.3134 18.0162 20.2681L17.5353 19.6122L17.3223 19.7693L17.8 20.4206C17.8643 20.5084 17.9428 20.5602 18.033 20.5736C18.1753 20.5951 18.3089 20.5159 18.376 20.4669C18.6066 20.2974 18.6096 20.0854 18.51 19.9505L18.0081 19.2656Z" fill="white"/>
<path d="M19.5806 18.9382C19.4912 18.8457 19.3768 18.8246 19.2582 18.8702C19.2676 18.8425 19.2732 18.8143 19.2732 18.7861C19.2732 18.7175 19.2459 18.6505 19.1909 18.594C19.1166 18.5175 18.924 18.423 18.727 18.6145L18.3789 18.9518L19.1826 19.7815L19.5385 19.4364C19.6282 19.3503 19.6751 19.2574 19.6762 19.1634C19.6776 19.0813 19.6443 19.0037 19.5806 18.9382ZM19.0617 18.9021C19.0617 18.9602 19.0238 19.0079 18.9933 19.0377C18.9933 19.0377 18.9399 19.0896 18.9098 19.1193C18.8773 19.0859 18.6911 18.894 18.6592 18.86C18.6808 18.8391 18.7149 18.8067 18.7149 18.8067C18.8236 18.7008 18.9191 18.6937 19.0067 18.7846C19.0469 18.8263 19.0617 18.8657 19.0617 18.9021ZM19.283 19.5042C19.2501 19.4703 19.0329 19.2455 18.9996 19.2116C19.0283 19.184 19.1027 19.1116 19.1027 19.1116C19.2445 18.975 19.3882 19.1198 19.3943 19.1265C19.439 19.1727 19.461 19.2164 19.461 19.2598C19.461 19.2606 19.461 19.261 19.461 19.2614C19.4604 19.3092 19.4328 19.3591 19.3803 19.4109C19.3804 19.4109 19.3111 19.4775 19.283 19.5042V19.5042Z" fill="white"/>
<path d="M6.66913 4.09493L6.18409 4.22574L6.23977 4.39948C6.30677 4.61012 6.24613 4.83065 6.08195 4.97465C5.99061 5.05472 5.88514 5.09148 5.76881 5.0835C5.59205 5.07164 5.39252 4.95723 5.2353 4.77729C5.05 4.56503 4.95756 4.3607 4.96932 4.18752C4.9775 4.06125 5.03889 3.95033 5.15668 3.84713C5.28679 3.73317 5.45179 3.73762 5.67561 3.782L5.84162 3.81481L5.94896 3.35026L5.78184 3.30952C5.42251 3.22061 5.04778 3.30795 4.78044 3.54197C4.25687 4.00011 4.21415 4.7483 4.68113 5.28233C5.11508 5.77843 5.86802 5.83251 6.35878 5.40325C6.71225 5.09451 6.83539 4.69948 6.71533 4.2621L6.66913 4.09493Z" fill="#DBA111"/>
<path d="M7.98596 1.66221L7.49051 1.89552C7.49051 1.89552 7.76709 2.48165 7.86216 2.68365C7.72084 2.7501 7.58396 2.81477 7.44249 2.88157C7.34707 2.67972 7.07034 2.09334 7.07034 2.09334L6.41797 2.40132L7.41149 4.50873L8.06442 4.2009C8.06442 4.2009 7.75658 3.54909 7.65758 3.33774C7.799 3.27155 7.93577 3.20692 8.07749 3.14018C8.1768 3.35092 8.48423 4.00283 8.48423 4.00283L9.137 3.6948L8.14378 1.58789L7.98596 1.66221Z" fill="#DBA111"/>
<path d="M10.1944 2.96739C10.1626 2.81046 10.1303 2.65082 10.0989 2.4941C10.3004 2.45356 10.836 2.34541 10.836 2.34541L10.7418 1.87733C10.7418 1.87733 10.206 1.98563 10.0043 2.02637C9.97525 1.88288 9.95122 1.76236 9.92198 1.61908C10.1313 1.57687 10.7045 1.46105 10.7045 1.46105L10.61 0.993164L10.4385 1.0276L9.12012 1.29423L9.58103 3.5782L11.083 3.27456L10.9886 2.80693C10.9886 2.80693 10.4052 2.92452 10.1944 2.96739Z" fill="#DBA111"/>
<path d="M12.3247 0.939311L11.6024 0.924316L11.5988 1.0985L11.5537 3.25368L13.0699 3.28549L13.0807 2.78085C13.0807 2.78085 12.4987 2.76833 12.2859 2.76399C12.292 2.47872 12.3247 0.939311 12.3247 0.939311" fill="#DBA111"/>
<path d="M14.6653 2.11428C14.4779 1.97664 14.4231 1.92146 14.4421 1.84628C14.4513 1.8073 14.4938 1.68285 14.6284 1.71617C14.7094 1.73697 14.79 1.77964 14.8259 1.95392L14.8653 2.1474L15.3422 1.98624L15.3125 1.83608C15.2539 1.54118 15.0044 1.29014 14.6914 1.21194C14.4671 1.15625 14.2424 1.18604 14.0579 1.29686C13.8885 1.39829 13.7694 1.55839 13.7223 1.74788C13.6026 2.2255 13.9246 2.45548 14.1375 2.60786C14.3557 2.76392 14.4112 2.82501 14.3779 2.95537C14.3674 2.99612 14.3434 3.02828 14.3059 3.05105C14.2622 3.07675 14.2074 3.08604 14.1628 3.07443C14.0481 3.0462 13.9985 2.99203 13.9502 2.84374L13.8916 2.66597L13.4131 2.86167L13.4594 3.01359C13.5492 3.3088 13.7633 3.49485 14.1138 3.58265C14.5077 3.6812 14.9856 3.50005 15.1047 3.02707C15.2289 2.52869 14.8897 2.27897 14.6653 2.11428Z" fill="#DBA111"/>
<path d="M16.389 3.35697C16.5728 3.44987 17.06 3.69626 17.06 3.69626L17.2755 3.27023C17.2755 3.27023 16.7879 3.02385 16.6046 2.93125C16.6702 2.80059 16.7258 2.69072 16.7913 2.56031C16.9814 2.65634 17.5041 2.92045 17.5041 2.92045L17.7189 2.49442L16.3628 1.80908L16.2843 1.96434L15.3115 3.88842L16.6791 4.57911L16.8947 4.15334C16.8947 4.15334 16.3633 3.88489 16.1713 3.7882C16.2432 3.64522 16.3171 3.50001 16.389 3.35697Z" fill="#DBA111"/>
<path d="M19.0891 3.57485L16.916 4.6993L17.3317 5.06085C17.3317 5.06085 17.6904 4.87015 17.8208 4.80169C17.9177 4.8861 18.0606 5.01041 18.156 5.09326C18.1092 5.2319 17.9764 5.62173 17.9764 5.62173L18.5491 6.12006L19.4782 3.38037L19.0891 3.57485Z" fill="#DBA111"/>
<path d="M6.58727 4.23617L6.33114 4.3058L6.34992 4.36376C6.43131 4.61943 6.35789 4.88688 6.15771 5.06192C6.04274 5.1628 5.90869 5.20899 5.76061 5.19945C5.55068 5.18537 5.32742 5.05935 5.14722 4.85325C4.94117 4.61736 4.83903 4.38416 4.85257 4.17877C4.86317 4.02281 4.93961 3.88154 5.07977 3.75895C5.2638 3.59804 5.49549 3.62748 5.6978 3.66752L5.75339 3.67827L5.80943 3.43547L5.75374 3.42159C5.43082 3.34232 5.09572 3.41982 4.8565 3.62925C4.38322 4.04376 4.3452 4.72077 4.7684 5.20506C5.16009 5.6529 5.83897 5.70197 6.28216 5.31493C6.60352 5.0331 6.71152 4.68947 6.60267 4.29247L6.58727 4.23618" fill="white"/>
<path d="M8.03518 1.76711L7.64541 1.9514C7.64541 1.9514 7.97354 2.64769 8.01671 2.73923C7.9333 2.77876 7.47031 2.99723 7.3863 3.03646C7.34323 2.94477 7.01531 2.24852 7.01531 2.24852L6.57227 2.45725L7.46668 4.35387L7.90942 4.14545C7.90942 4.14545 7.5463 3.37574 7.50258 3.28259C7.58654 3.24306 8.04897 3.02515 8.13293 2.98546C8.17655 3.07836 8.53977 3.84852 8.53977 3.84852L8.98195 3.6396L8.08759 1.74268L8.03518 1.76711Z" fill="white"/>
<path d="M10.1038 3.10473C10.0856 3.01359 9.98077 2.49467 9.96259 2.40353C10.0596 2.38405 10.6996 2.25469 10.6996 2.25469L10.6512 2.01507C10.6512 2.01507 10.0114 2.14387 9.91382 2.16361C9.89609 2.07425 9.80375 1.61767 9.78603 1.52841C9.88378 1.50836 10.5681 1.37058 10.5681 1.37058L10.5195 1.13086L9.25781 1.38547L9.67283 3.44119L10.9466 3.18405L10.8982 2.94432C10.8981 2.94437 10.2023 3.08478 10.1038 3.10473Z" fill="white"/>
<path d="M12.2063 1.05357L11.7172 1.04297L11.7162 1.10073L11.6729 3.13983L12.9569 3.16704L12.9626 2.89486C12.9626 2.89486 12.2675 2.88016 12.1679 2.87804C12.1705 2.76924 12.2064 1.05357 12.2064 1.05357" fill="white"/>
<path d="M14.6567 1.60353C14.8122 1.64246 14.9021 1.74636 14.9401 1.9304L14.9534 1.99472L15.2085 1.90848L15.1988 1.85815C15.1484 1.60686 14.9335 1.39218 14.6634 1.32428C14.4693 1.27586 14.2759 1.30125 14.1183 1.39592C13.9756 1.48165 13.8751 1.61671 13.8354 1.776C13.735 2.17663 13.9961 2.36324 14.2055 2.51294C14.4175 2.66456 14.5453 2.76806 14.4909 2.98309C14.4693 3.07261 14.4108 3.12375 14.3657 3.15067C14.2958 3.19252 14.2101 3.2056 14.1348 3.18712C13.9801 3.14834 13.9005 3.06519 13.8401 2.87969L13.8204 2.82042L13.5557 2.92841L13.5711 2.97926C13.648 3.23226 13.8351 3.39266 14.1429 3.4697C14.4811 3.55417 14.8909 3.40114 14.9919 2.99829C15.0971 2.57605 14.8199 2.37172 14.5956 2.20773C14.4052 2.06717 14.2902 1.97321 14.3293 1.81791C14.3636 1.67906 14.4786 1.5589 14.6567 1.60353" fill="white"/>
<path d="M16.7396 2.40449C16.8289 2.44937 17.4516 2.76407 17.4516 2.76407L17.5625 2.5456L16.4138 1.96533L16.3875 2.01713L15.4678 3.83731L16.6272 4.42324L16.7376 4.20487C16.7376 4.20487 16.1046 3.88482 16.015 3.83933C16.0568 3.75623 16.2956 3.28431 16.3371 3.20115C16.4255 3.24578 17.008 3.54013 17.008 3.54013L17.119 3.32167C17.119 3.32167 16.5359 3.02757 16.4476 2.98269C16.4887 2.9016 16.6986 2.48557 16.7396 2.40449Z" fill="white"/>
<path d="M19.1429 3.67764L17.1221 4.72347L17.3479 4.91982C17.3479 4.91982 17.7765 4.69262 17.8371 4.66051C17.8874 4.70443 18.2426 5.01343 18.2918 5.05629C18.2704 5.12016 18.1117 5.58426 18.1117 5.58426L18.4952 5.91769L19.276 3.61523L19.1429 3.67764ZM18.0711 4.54019C18.1666 4.49076 18.4109 4.36389 18.5598 4.28638C18.5044 4.44472 18.413 4.70544 18.3779 4.80693C18.3004 4.73907 18.1487 4.60719 18.0711 4.54019Z" fill="white"/>
<path d="M17.7329 11.6853C17.5672 11.2463 16.9965 11.0556 16.457 11.2593C16.2321 11.3439 16.0479 11.4854 15.9223 11.6524C16.2785 10.6357 17.7294 10.42 17.7294 9.47418C17.7294 7.88888 15.4781 8.33293 15.8057 9.47441C15.8057 8.95649 16.63 8.86158 16.63 9.47441C16.63 10.0873 15.1927 10.4893 15.1927 11.5248C15.1927 12.6663 16.3344 12.7719 16.2188 13.8159C16.1992 13.9959 16.0056 14.2324 15.7254 14.2324C13.9767 14.2324 14.601 12.0798 13.9899 11.4248L14.0219 10.9825C14.3751 11.1991 15.3122 10.6916 14.6953 9.91816C14.6953 10.2985 13.9032 10.2775 13.9032 9.55883C13.9032 8.58641 14.8124 9.09382 14.8565 9.30855C14.813 8.95442 14.7965 8.7297 14.855 8.52562C14.3649 8.68365 14.319 8.40036 14.381 8.29075C14.452 8.16397 14.547 8.01588 14.7379 8.01588C14.8411 8.01588 14.9031 8.03027 14.9396 8.05542C15.0006 8.09717 15.0453 8.0018 15.0365 8.09051C15.089 8.01068 15.068 8.11035 15.1186 8.03027C15.1701 7.95075 15.2395 7.86083 15.3615 7.74102L15.3563 7.56163L15.4991 7.61399L15.6361 7.3923C15.4882 7.08557 15.2875 7.2333 15.1396 6.85302C15.016 6.82091 13.0903 7.03034 13.1461 6.26215C12.9891 6.26215 12.6171 6.34818 12.8473 6.66096C12.6683 6.68252 12.5393 6.47925 12.2695 7.02903C12.6075 6.96566 12.4326 7.34347 12.4326 7.45096C12.4326 8.14751 11.5053 8.13575 11.5053 7.80949C11.2818 8.02664 11.4086 8.50149 11.7466 8.61847C11.7466 8.61847 11.618 9.12639 11.3007 9.44841C10.8298 9.42963 10.0742 9.34778 9.63955 8.93691C9.45208 8.75984 9.30324 8.66335 9.17647 8.61378V8.38355C9.36206 8.29272 9.56558 8.13196 9.77708 7.86331C9.94208 7.6618 10.0314 7.4034 10.0074 7.12899C10.0042 7.09623 9.99939 7.06386 9.99363 7.03231C9.99187 7.02226 9.98939 7.01252 9.98706 7.00252C9.98242 6.9804 9.97706 6.9592 9.97066 6.93734C9.96757 6.92679 9.9647 6.91598 9.96136 6.90553C9.95419 6.88362 9.94632 6.86266 9.93779 6.84186C9.9342 6.83313 9.93168 6.82384 9.92749 6.81566C9.91572 6.78764 9.90259 6.76128 9.88841 6.73473C9.88235 6.72397 9.87594 6.71392 9.87003 6.70403C9.86028 6.68807 9.85104 6.67192 9.8408 6.65652C9.83251 6.6443 9.82383 6.63193 9.8151 6.61961C9.80611 6.60785 9.79662 6.59578 9.78738 6.58397C9.77712 6.57134 9.76703 6.55796 9.75608 6.54544C9.7488 6.53716 9.74093 6.52919 9.73325 6.52156C9.70579 6.49122 9.676 6.46299 9.6449 6.43603C9.64232 6.43381 9.63924 6.43093 9.63621 6.42861C9.61885 6.41377 9.60032 6.39958 9.58209 6.38605C9.57745 6.38252 9.5726 6.37908 9.5674 6.37545C9.54791 6.36172 9.52797 6.34829 9.50716 6.33546C9.5059 6.33466 9.50474 6.33415 9.50383 6.33324C9.30591 6.21206 9.06675 6.14865 8.81415 6.1687C8.20596 6.21711 7.75388 6.72529 7.80467 7.30379C7.84421 7.7545 8.17663 8.11449 8.60881 8.2293C8.45719 8.31392 8.3291 8.36275 8.30017 8.36275C8.30497 8.36583 8.31123 8.36941 8.31805 8.3738C8.31981 8.3746 8.32188 8.37588 8.324 8.37693C8.32986 8.38071 8.33683 8.38461 8.34395 8.38844C8.34571 8.38947 8.34789 8.39046 8.34961 8.39152C8.35936 8.39643 8.3694 8.40152 8.38071 8.40692C8.38247 8.40772 8.38459 8.40839 8.38637 8.40925C8.39637 8.41389 8.40656 8.41875 8.41737 8.42288C8.42045 8.42429 8.42378 8.42556 8.42711 8.42667C8.45356 8.43773 8.48335 8.44767 8.51592 8.45696C8.52056 8.45822 8.52546 8.45929 8.52945 8.46055C8.54263 8.46388 8.556 8.46697 8.56984 8.47029C8.57439 8.47109 8.57903 8.47205 8.58393 8.47306C8.6014 8.47619 8.61967 8.47927 8.638 8.48149C8.63957 8.48149 8.64113 8.4823 8.64264 8.4823V8.61321C8.63578 8.61473 8.62956 8.61544 8.62315 8.61644C8.42534 8.64901 8.29679 8.7099 8.23868 8.88601C8.18092 9.06277 8.24025 9.12664 8.33289 9.25064C8.25463 9.39054 8.04955 9.44285 8.31719 9.75194C8.2977 9.86867 8.32239 10.0546 8.49228 10.111C8.54772 10.1298 8.59392 10.1397 8.64264 10.1482L8.64241 12.4654C8.47297 12.5552 8.38936 12.6672 8.34311 12.7715C8.34311 12.7715 8.2071 12.4696 8.21608 13.0678C8.37063 12.9478 8.30979 13.2066 8.30979 13.2066C8.09935 13.4792 8.36664 13.4644 8.36664 13.4644C8.5479 13.2834 8.51094 13.5465 8.51094 13.5465C8.51094 13.8674 8.64125 13.9929 8.64236 13.9934V15.7588L8.48842 15.7592L8.48989 16.2463L8.75909 16.2459C8.60803 16.3086 8.50837 16.4578 8.52291 16.6227C8.54118 16.8306 8.73319 16.985 8.95186 16.9681C9.17033 16.9506 9.3327 16.7683 9.31407 16.56C9.3017 16.4162 9.20643 16.2989 9.07687 16.2449L9.32528 16.2442L9.32425 15.7571L9.17611 15.7578L9.17634 14.1915C9.20689 14.2083 9.23991 14.2199 9.27575 14.2277C9.29004 14.2304 9.30423 14.2324 9.31882 14.2333C9.32524 14.2344 9.3319 14.2344 9.33831 14.2346C9.29847 14.0287 9.42146 13.8922 9.42146 13.8922C9.48463 13.7971 9.57596 13.723 9.67992 13.6707C9.99078 13.5147 10.415 13.5542 10.5418 13.8081C11.3451 13.5963 12.0354 12.7889 12.0354 12.7889L12.4309 13.4619C11.5925 13.7422 9.76641 15.3297 11.034 15.8795C11.0335 16.0395 11.0121 17.2273 10.2504 17.133C9.15347 16.9979 8.87992 17.4517 9.09056 17.9619C8.99155 18.3921 9.32286 18.5415 9.32286 18.5415C9.27313 18.293 9.39264 18.0871 9.84598 18.0897C9.84365 18.543 10.1364 18.6248 10.1364 18.6248C10.1385 18.2366 10.4083 18.0928 10.6479 18.0938C10.6462 18.4137 11.0178 18.5353 11.0178 18.5353C11.0178 18.5353 10.9236 18.1666 11.3437 18.0938C12.4072 17.9085 11.4084 16.8147 13.0257 16.5133C13.0257 16.5133 12.2204 16.3919 12.2204 15.9516C12.2204 15.5509 12.9494 15.2769 13.2004 15.2769C13.7151 16.2604 14.2743 16.2682 14.4209 16.2752C14.6488 16.5298 14.5725 17.388 14.2434 17.3711C13.0386 17.3065 13.0827 18.0393 13.2177 18.1892C13.2023 18.4736 13.4236 18.6379 13.4236 18.6379C13.4236 18.333 13.7137 18.2473 14.0858 18.2674C14.0663 18.6399 14.3035 18.6955 14.3035 18.6955C14.3101 18.3207 14.5873 18.2571 14.7844 18.2674C14.77 18.5301 15.0307 18.6075 15.0307 18.6075C15.0307 18.6075 15.005 18.274 15.356 18.274C16.0219 18.2736 15.0549 16.8466 16.3544 15.4353C15.2129 15.9638 14.6055 14.6429 14.6055 14.3894C15.1923 15.076 17.0946 15.213 17.0946 14.0402C17.0946 12.9197 15.8631 12.5022 16.4393 12.0737C16.7744 11.8245 17.4334 12.3279 17.0563 12.8479C17.597 12.6475 17.8983 12.124 17.7329 11.6853L17.7329 11.6853ZM10.4361 11.7206C10.0058 11.9737 9.71723 12.2938 9.32488 12.4339C9.2653 12.4548 9.21779 12.4607 9.17649 12.4581V10.2711C9.28045 10.2808 9.55021 10.3177 9.86562 10.4481C10.178 10.6186 10.178 10.9709 9.78377 11.0544C10.0329 11.5315 10.896 11.2979 11.0842 10.9094C11.1763 10.9012 11.2577 11.0657 11.3343 11.2212C11.2132 11.2841 10.9654 11.4091 10.4361 11.7206ZM15.2532 8.09515C15.2059 8.15937 15.1592 8.22324 15.1183 8.27797C15.2275 8.45937 15.4328 8.57277 15.6578 8.55197C15.9687 8.52254 16.1976 8.24656 16.169 7.93535C16.1674 7.92404 16.1658 7.91384 16.1643 7.90278C16.1309 8.06394 15.941 8.20042 15.6994 8.22273C15.5165 8.2399 15.3509 8.18739 15.2533 8.09515H15.2532Z" fill="#D1D3D4"/>
<path d="M8.29954 6.77918C8.29954 6.77953 8.29874 6.78033 8.29874 6.78105H8.29851C8.30336 6.76949 8.30846 6.75793 8.31437 6.74662C8.30876 6.75738 8.30367 6.76792 8.29947 6.77918L8.29954 6.77918ZM8.31931 15.952C8.31977 15.9516 8.32063 15.9516 8.32078 15.9511H8.32067C8.32032 15.9517 8.31986 15.9517 8.31935 15.952H8.31931ZM8.30568 5.84549H8.30626H8.30568ZM8.14114 15.8982L8.41035 15.8978C8.37748 15.9115 8.34779 15.9296 8.32078 15.9511C8.34754 15.9408 8.37591 15.9346 8.406 15.9346C8.54101 15.9346 8.65032 16.044 8.65032 16.1791C8.65032 16.314 8.54101 16.4234 8.406 16.4234C8.2967 16.4234 8.20526 16.3517 8.17431 16.2524V16.2746C8.19279 16.4829 8.38429 16.6375 8.60321 16.6195C8.82148 16.6024 8.9838 16.4197 8.96578 16.2119C8.953 16.0687 8.85793 15.9512 8.72838 15.8973L8.97663 15.8962L8.97549 15.4091L8.82735 15.4099V13.8435C8.6826 13.7684 8.59899 13.6047 8.6313 13.4366C8.724 13.4366 8.8069 13.4607 8.86239 13.4987C8.77681 13.687 8.98967 13.8864 8.98967 13.8864C8.94984 13.6806 9.07258 13.5444 9.07258 13.5444C9.13624 13.4492 9.22753 13.375 9.33103 13.3225C9.64229 13.1665 10.0663 13.2059 10.193 13.4597C10.9964 13.2483 11.6868 12.4404 11.6868 12.4404L12.0824 13.113C13.0098 13.113 12.687 12.4186 12.6264 12.3581C12.8399 12.3581 13.1401 12.5151 13.1401 12.8629C13.1401 13.717 10.6573 13.8387 10.6573 14.8754C10.6573 15.3106 11.0887 15.4762 11.0887 15.4762C11.0887 16.4214 10.4397 16.9829 9.99572 16.9829C9.28579 16.9829 8.74218 16.8391 8.74218 17.6132H8.98967C8.75455 17.8483 8.97397 18.1931 8.97397 18.1931C8.92444 17.9449 9.0443 17.7394 9.49754 17.7416H9.78033C9.60064 17.9212 9.70561 18.1938 9.78831 18.277C9.78987 17.8883 10.0594 17.7446 10.2994 17.746C10.3864 17.746 10.5046 17.746 10.5046 17.746C10.4488 17.8011 10.5385 18.0566 10.6694 18.1871C10.6694 18.1871 10.5748 17.8188 10.9953 17.746C12.0585 17.5607 11.0595 16.4669 12.6769 16.1651C12.6769 16.1651 11.872 16.044 11.872 15.6033C11.872 15.2032 12.6007 14.9286 12.8513 14.9286C13.0488 14.9004 13.2369 14.9075 13.398 14.942C13.4634 15.577 14.1924 15.5461 14.3512 15.5461C14.9696 16.1646 14.194 17.1574 14.194 17.1574C13.2449 17.1574 12.8693 17.2884 12.8693 17.8411H13.0489C12.9483 17.9423 13.0054 18.2205 13.0747 18.2899C13.0747 17.9848 13.3653 17.8996 13.7374 17.9192H13.933C13.8375 18.0146 13.8544 18.2466 13.9555 18.3473C13.961 17.9724 14.2387 17.9088 14.436 17.9192H14.5991C14.5381 17.9809 14.5991 18.1763 14.6828 18.26C14.6828 18.26 14.657 17.9263 15.0078 17.9259C15.6739 17.9259 14.7063 16.4985 16.0066 15.0873C14.8651 15.616 14.2573 14.2947 14.2573 14.0411C14.8441 14.728 16.7469 14.865 16.7469 13.6924C16.7469 12.7464 15.8692 12.3017 15.9419 11.9282C15.9671 11.6423 16.207 11.4181 16.4999 11.4181C16.809 11.4181 17.0596 11.6693 17.0596 11.9785C17.0596 12.2142 16.9148 12.4155 16.7086 12.4982C16.7091 12.4982 16.7091 12.4976 16.7091 12.4976C16.7086 12.4982 16.7079 12.4988 16.7079 12.4998C17.2481 12.2994 17.5498 11.7757 17.385 11.3371C17.2187 10.8981 16.6481 10.707 16.109 10.9105C15.8831 10.9957 15.6996 11.1366 15.5741 11.304C15.9297 10.2874 17.3809 10.072 17.3809 9.12577C17.3809 7.54047 15.1295 7.98472 15.4571 9.12623C15.4571 9.10906 15.4581 9.09215 15.4602 9.07564C15.5177 8.43039 16.6711 8.29851 16.6711 9.13961C16.6711 9.85822 15.1938 10.2565 15.1938 11.2233C15.1938 12.2163 16.2851 12.4647 16.2851 13.5096C16.2851 13.634 16.2193 14.1699 15.4944 14.1699C14.795 14.1699 14.4587 13.7789 14.2677 13.2687C13.9114 12.5803 14.0423 11.5058 13.6411 11.0762L13.6729 10.6343C14.0264 10.8512 14.9638 10.3433 14.348 9.56983C14.348 9.95061 13.5553 9.92906 13.5553 9.2107C13.5553 8.23828 14.4639 8.74569 14.5081 8.96022C14.4645 8.60629 14.4473 8.38096 14.507 8.17764C14.0164 8.33522 13.9713 8.05218 14.0323 7.94226C14.1041 7.81523 14.199 7.6674 14.3896 7.6674C14.6651 7.6674 14.6477 7.76853 14.6332 7.91101C14.7384 7.75187 14.7683 7.63226 15.0131 7.39279L15.0079 7.21295L15.15 7.26576L15.2882 7.04381C15.1404 6.73709 14.9396 6.88543 14.7911 6.50484C14.668 6.47253 13.049 6.32313 13.105 5.55469C12.9617 5.55469 12.5717 6.04877 12.8356 6.31313C12.8356 6.31313 12.6267 6.31313 12.4994 6.31313C12.3197 6.33439 11.9001 6.20892 11.6308 6.7584C12.2938 6.09553 12.7242 7.67694 11.503 7.67694V7.67671C11.3228 7.67717 11.1683 7.60204 11.1579 7.47496C11.0362 8.00873 11.8054 8.17484 11.8054 8.17484C11.8054 8.33342 11.4201 9.19194 11.2328 9.379C11.3591 9.50527 11.3983 10.2676 10.8147 10.2676C11.0251 9.6985 10.4062 9.21633 9.805 8.89739C9.80557 8.89739 9.80557 8.89739 9.8058 8.89739C9.69695 8.85599 9.59329 8.8057 9.49726 8.74511C9.12819 8.57648 8.82818 8.48156 8.82818 8.48156V8.03549C9.01378 7.94446 9.2173 7.7837 9.4288 7.51505C9.59405 7.31375 9.68291 7.05535 9.65878 6.78074C9.6562 6.74792 9.65135 6.71606 9.64484 6.68395C9.64338 6.67395 9.64105 6.66446 9.63893 6.65446C9.63408 6.63235 9.62868 6.61059 9.62232 6.58933C9.61944 6.57848 9.61636 6.56828 9.61258 6.55752C9.60562 6.53561 9.59764 6.5142 9.58946 6.4934C9.58582 6.48457 9.58279 6.47614 9.57916 6.4674C9.56709 6.43994 9.55386 6.41292 9.53993 6.38702C9.53437 6.37597 9.52756 6.36602 9.52175 6.35547C9.512 6.33961 9.50256 6.32391 9.49242 6.30851C9.48398 6.29619 9.47555 6.28357 9.46651 6.2713C9.45758 6.25954 9.44859 6.24742 9.43905 6.23611C9.42885 6.22273 9.41855 6.20965 9.40749 6.19713C9.40032 6.18885 9.39265 6.18088 9.38492 6.173C9.35716 6.14296 9.32767 6.11474 9.29667 6.08828C9.29354 6.08576 9.29092 6.08232 9.28784 6.0801C9.27042 6.06546 9.25219 6.05132 9.23346 6.03799C9.22851 6.03476 9.22392 6.03057 9.21907 6.02723C9.19928 6.01315 9.17964 6.00022 9.15874 5.98725C9.15752 5.98667 9.15626 5.98568 9.1551 5.98523C8.95729 5.86345 8.71802 5.80064 8.46553 5.82038C8.41115 5.82473 8.35824 5.83447 8.30649 5.84553C7.95634 5.97973 7.70153 6.3896 7.70153 6.87469C7.70153 7.33182 7.92817 7.72165 8.24691 7.87721C8.25125 7.87842 8.25589 7.88018 8.26044 7.8813C8.10852 7.96592 7.98048 8.01479 7.9514 8.01479C7.95635 8.01792 7.96276 8.02146 7.96967 8.0261C7.97144 8.0269 7.9733 8.02786 7.97533 8.02897C7.98144 8.03251 7.98785 8.03609 7.99553 8.04018C7.9974 8.04121 7.99916 8.04225 8.00128 8.04295C8.01036 8.0478 8.02097 8.0535 8.03198 8.05891C8.03399 8.05948 8.03607 8.06042 8.03764 8.06153C8.04728 8.06608 8.05768 8.07017 8.06894 8.07481C8.07202 8.07613 8.0749 8.07743 8.07823 8.07869C8.10524 8.08935 8.13468 8.09974 8.1676 8.10893C8.17215 8.10997 8.17653 8.11126 8.18118 8.11257C8.19395 8.1159 8.20733 8.11898 8.22117 8.12186C8.22581 8.12312 8.23066 8.12387 8.23555 8.12494C8.25297 8.12827 8.2709 8.1313 8.28973 8.13358C8.29105 8.13358 8.2925 8.13381 8.29382 8.13472C8.40979 8.14422 8.54687 8.11544 8.54687 8.11544V8.37419C8.52607 8.37419 8.3438 8.31543 8.29382 8.26544C8.28766 8.26636 8.28099 8.26751 8.27433 8.26878C8.07697 8.30109 7.94832 8.36183 7.89036 8.53824C7.8326 8.715 7.89193 8.77887 7.98452 8.90287C7.90571 9.04227 7.70123 9.09488 7.96837 9.40417C7.94938 9.52065 7.97376 9.70701 8.14346 9.7635C8.19905 9.78229 8.2453 9.79173 8.29382 9.80041C8.39439 9.80041 8.54687 9.88442 8.54687 10.0932V12.0846C8.63846 12.0899 8.73782 12.1023 8.82814 12.11V9.9228C8.9321 9.9328 9.20212 9.96975 9.51702 10.0997C9.52065 10.1014 9.52343 10.1035 9.52656 10.1055C9.52633 10.1053 9.52599 10.1053 9.52599 10.1051C9.55477 10.1086 9.584 10.1148 9.61293 10.1234C9.82266 10.1879 9.95323 10.3699 9.90425 10.5311C9.85528 10.6919 9.64479 10.7703 9.43541 10.706C9.68412 11.1835 10.5477 10.9499 10.7358 10.5613C10.8275 10.5531 10.9091 10.7177 10.9858 10.8729C10.9858 10.8729 11.2021 10.9558 11.7378 10.9558C11.7378 10.9558 9.56916 12.3404 8.94193 12.3404C8.67393 12.3404 8.07953 12.3404 8.07953 12.543C7.9162 12.543 7.68066 12.8206 7.68066 12.9793C7.83511 12.8588 7.96093 12.8588 7.96093 12.8588C8.09261 12.8588 8.16677 12.8981 8.16677 12.8981C8.1185 12.9458 7.90211 13.19 7.90211 13.3796C8.08331 13.1981 8.16238 13.1989 8.16238 13.1989C8.16238 13.1989 8.35177 13.1744 8.41927 13.2423C8.37363 13.2876 8.2938 13.4518 8.2938 13.646C8.2938 13.646 8.40619 13.4291 8.54685 13.4291V15.5107C8.54685 15.5743 8.25962 15.6353 8.14133 15.6353L8.14114 15.8982ZM8.22953 9.60027C8.17606 9.60228 8.15067 9.53281 8.15021 9.50767C8.1489 9.48222 8.16894 9.41144 8.22231 9.40932C8.34934 9.40497 8.60345 9.46591 8.60446 9.49096C8.60549 9.5158 8.35651 9.59567 8.22953 9.60027ZM8.14759 9.25669C8.07392 9.25149 8.04959 9.15192 8.05206 9.11693C8.05439 9.0826 8.09316 8.98738 8.16677 8.99278C8.34263 9.00596 8.68348 9.12855 8.6806 9.16318C8.67843 9.19832 8.32319 9.26966 8.14759 9.25669ZM8.11734 8.81648C8.03934 8.79598 8.03293 8.68429 8.04237 8.64739C8.05211 8.61063 8.11245 8.51647 8.19075 8.53677C8.37666 8.58549 8.71842 8.78537 8.70867 8.82203C8.69917 8.85879 8.3034 8.8652 8.11734 8.81647V8.81648ZM8.69327 7.57611C8.72558 7.49907 8.71872 7.39385 8.69868 7.29484C8.69535 7.29484 8.69201 7.29507 8.68863 7.29507C8.46491 7.29507 8.28366 7.11366 8.28366 6.89035C8.28033 6.85213 8.28573 6.81507 8.2986 6.78104H8.29883C8.29883 6.78024 8.29929 6.77947 8.29964 6.77917C8.348 6.60983 8.50341 6.48512 8.68875 6.48512C8.91181 6.48512 9.09358 6.66653 9.09358 6.89035C9.09347 7.1485 8.91176 7.38615 8.69335 7.57614L8.69327 7.57611Z" fill="#034694"/>
<path d="M14.7705 7.92974C14.8789 8.11114 15.0847 8.22454 15.3096 8.20359C15.621 8.17451 15.8493 7.89838 15.8208 7.58682C15.8197 7.57581 15.8176 7.56521 15.8162 7.5542C15.7832 7.71516 15.5923 7.85198 15.3512 7.87435C15.1678 7.89152 15.0025 7.83891 14.9048 7.74676C14.8578 7.81119 14.8106 7.87501 14.7705 7.92974" fill="#ED1C24"/>
<path d="M14.0146 6.87988L14.2101 6.89018L14.1123 7.02438C14.1122 7.02438 13.9816 7.06568 14.0146 6.87988ZM13.5481 6.87988H13.8298C13.8298 6.87988 13.8197 7.10723 14.0254 7.12758L13.9817 7.19998C13.9816 7.19998 13.4288 7.05548 13.5481 6.87988Z" fill="white"/>
<path d="M8.7086 8.82208C8.71833 8.78542 8.37658 8.58549 8.19068 8.53682C8.11237 8.51652 8.05204 8.61068 8.04229 8.64744C8.03279 8.68435 8.03921 8.79603 8.11727 8.81653C8.30332 8.86525 8.6991 8.85884 8.7086 8.82208V8.82208ZM8.68057 9.16319C8.68345 9.12855 8.3426 9.00596 8.16675 8.99279C8.09313 8.98738 8.05436 9.08261 8.05204 9.11694C8.04956 9.15193 8.07385 9.25149 8.14756 9.25669C8.32311 9.26972 8.67835 9.19838 8.68057 9.16319ZM8.29358 8.13462V8.26529C8.34356 8.31533 8.52583 8.37404 8.54663 8.37404V8.11529C8.54668 8.11534 8.4096 8.14407 8.29358 8.13462ZM8.22224 9.40932C8.16887 9.41144 8.14882 9.48223 8.15014 9.50767C8.1506 9.53282 8.17604 9.60234 8.22945 9.60027C8.35643 9.59572 8.6054 9.5158 8.60439 9.49091C8.60335 9.46592 8.34926 9.40493 8.22224 9.40932ZM7.9607 12.8587C7.75052 13.1311 7.90188 13.3795 7.90188 13.3795C7.90188 13.1898 8.11828 12.9457 8.16655 12.898C8.16655 12.8981 8.09243 12.8587 7.9607 12.8587ZM8.6313 13.4366C8.59898 13.6046 8.68259 13.7682 8.82734 13.8435C8.85814 13.8594 8.89157 13.872 8.92666 13.879C8.9417 13.8824 8.95579 13.8842 8.97038 13.8859C8.9768 13.886 8.98326 13.8861 8.98967 13.8863C8.98967 13.8863 8.77681 13.6871 8.86238 13.4987C8.80685 13.4606 8.72399 13.4365 8.6313 13.4365V13.4366ZM8.24662 7.87718C7.92788 7.72163 7.70124 7.3318 7.70124 6.87472C7.70124 6.38967 7.95606 5.97975 8.3062 5.84555C7.78051 5.96203 7.40967 6.42921 7.45606 6.95581C7.4954 7.40188 7.8213 7.75858 8.24662 7.87718ZM11.6306 6.7584C11.9689 6.69473 12.0836 6.99549 12.0836 7.10313C12.0836 7.51088 11.7661 7.67517 11.5028 7.67674V7.67697C12.7239 7.67697 12.2936 6.09555 11.6306 6.75842V6.7584ZM10.8144 10.2676C11.398 10.2676 11.3588 9.50535 11.2325 9.37903C11.4198 9.19192 11.8051 8.33345 11.8051 8.17486C11.8051 8.17486 11.0349 8.00876 11.1579 7.47423C11.1576 7.47388 11.1576 7.47366 11.1576 7.4732L11.1473 7.47133C10.9374 7.69283 11.065 8.1548 11.3981 8.27007C11.3981 8.27007 11.2695 8.77799 10.9523 9.10006C10.6364 9.08779 10.1937 9.04623 9.80479 8.89739C10.4059 9.21643 11.0249 9.6986 10.8144 10.2676L10.8144 10.2676ZM8.53456 6.60779C8.68547 6.59572 8.81836 6.70271 8.83123 6.8469C8.84375 6.99039 8.73137 7.11722 8.5802 7.12919C8.42873 7.14135 8.2956 7.03437 8.28353 6.89032C8.28353 7.11359 8.46478 7.29504 8.6885 7.29504C8.69184 7.29504 8.69517 7.29481 8.69855 7.29481C8.71859 7.39382 8.72546 7.49904 8.69315 7.57609C8.91162 7.3861 9.09333 7.14845 9.09333 6.8903C9.09333 6.66648 8.91162 6.48507 8.68851 6.48507C8.5022 6.48507 8.34619 6.61054 8.29848 6.78099C8.33387 6.68728 8.42344 6.61675 8.53457 6.60776L8.53456 6.60779ZM12.8354 6.31313C12.5715 6.04877 12.9615 5.55469 13.1048 5.55469C12.9481 5.55469 12.2685 5.9996 12.4992 6.31313C12.6265 6.31313 12.8354 6.31313 12.8354 6.31313ZM9.43518 10.7059C9.64451 10.7702 9.855 10.6918 9.90402 10.531C9.95305 10.3698 9.82243 10.1878 9.6127 10.1233C9.58377 10.1147 9.55454 10.1085 9.52576 10.105C9.82859 10.2776 9.82506 10.624 9.43518 10.7059ZM8.8279 8.48159C8.8279 8.48159 9.12791 8.57651 9.49698 8.74514C9.42286 8.69919 9.35334 8.64739 9.29089 8.58857C9.10352 8.41151 8.95448 8.31502 8.8279 8.266V8.48159ZM8.9417 12.3403C9.56893 12.3403 11.7376 10.9557 11.7376 10.9557C11.2019 10.9557 10.9856 10.8728 10.9856 10.8728C10.8647 10.9359 10.6165 11.0604 10.0876 11.3719C9.65713 11.6253 9.36864 11.9456 8.97619 12.0854C8.91641 12.1071 8.8689 12.1121 8.8279 12.1099C8.73758 12.1021 8.63821 12.0898 8.54663 12.0844V10.093C8.54663 9.88422 8.39415 9.80026 8.29358 9.80026V12.1177C8.12393 12.2076 8.04047 12.3193 7.99458 12.4238C7.99458 12.4238 7.6712 12.3806 7.68044 12.9791C7.68044 12.8204 7.91597 12.5428 8.0793 12.5428C8.0793 12.3403 8.67371 12.3403 8.9417 12.3403ZM14.3512 15.5461C14.1924 15.5461 13.4634 15.577 13.3979 14.942C13.2368 14.9074 13.0487 14.9005 12.8512 14.9285C13.3666 15.9121 13.926 15.9199 14.0723 15.9275C14.3002 16.1816 14.2238 17.0397 13.8947 17.0224C12.69 16.9582 12.7342 17.6912 12.8691 17.8411C12.8691 17.2884 13.2448 17.1574 14.1939 17.1574C14.1939 17.1574 14.9696 16.1646 14.3512 15.5461ZM14.5989 17.9192H14.4359C14.4221 18.1825 14.6827 18.26 14.6827 18.26C14.5989 18.1763 14.5379 17.9808 14.5989 17.9192ZM13.0745 18.2899C13.0052 18.2205 12.9481 17.9423 13.0487 17.8411H12.8691C12.8541 18.126 13.0745 18.2899 13.0745 18.2899ZM16.6707 9.13966C16.6707 8.29831 15.5168 8.43049 15.4598 9.07655C15.5107 8.60301 16.2816 8.53313 16.2816 9.12628C16.2816 9.73922 14.8439 10.1408 14.8439 11.1767C14.8439 12.3182 15.9853 12.4238 15.8698 13.4674C15.8503 13.6481 15.6567 13.8842 15.3765 13.8842C14.7756 13.8842 14.454 13.6291 14.2672 13.2688C14.4582 13.7789 14.7944 14.17 15.494 14.17C16.2188 14.17 16.2846 13.6342 16.2846 13.5098C16.2846 12.4649 15.1934 12.2165 15.1934 11.2235C15.1935 10.2566 16.6707 9.85827 16.6707 9.13966ZM8.16215 13.1988C8.16215 13.521 8.29358 13.646 8.29358 13.646C8.29358 13.4517 8.3734 13.2875 8.41904 13.2422C8.35159 13.1743 8.16215 13.1988 8.16215 13.1988ZM16.4997 11.4181C16.2068 11.4181 15.9669 11.6422 15.9417 11.9282C15.955 11.8596 16.0008 11.7929 16.0901 11.7261C16.4256 11.4767 17.0833 11.9791 16.7082 12.4982C16.9144 12.4154 17.0592 12.2142 17.0592 11.9785C17.0593 11.6693 16.8088 11.4181 16.4997 11.4181ZM13.9328 17.9192H13.7371C13.7172 18.2913 13.9553 18.3473 13.9553 18.3473C13.8542 18.2466 13.8374 18.0146 13.9328 17.9192ZM8.40596 15.9347C8.37572 15.9347 8.3475 15.9409 8.32059 15.9511C8.22759 16.0219 8.17089 16.1319 8.17427 16.2525C8.20527 16.3517 8.29666 16.4234 8.40596 16.4234C8.54097 16.4234 8.65028 16.314 8.65028 16.1791C8.65028 16.044 8.54097 15.9347 8.40596 15.9347ZM9.78033 17.7416H9.49754C9.49511 18.1949 9.78825 18.2771 9.78825 18.2771C9.7056 18.1939 9.60069 17.9212 9.78032 17.7416H9.78033ZM10.6573 14.8754C10.6573 13.8387 13.1401 13.717 13.1401 12.863C13.1401 12.5152 12.8399 12.3581 12.6264 12.3581C12.6868 12.4186 13.0098 13.113 12.0824 13.113C11.2439 13.3937 9.41776 14.981 10.6853 15.5313C10.6847 15.6909 10.6632 16.8788 9.90195 16.7854C8.80528 16.6497 8.53168 17.103 8.74217 17.6132C8.74217 16.8391 9.28579 16.9829 9.99571 16.9829C10.4397 16.9829 11.0887 16.4215 11.0887 15.4762C11.0887 15.4762 10.6573 15.3107 10.6573 14.8754ZM8.54668 15.5108V13.4291C8.40596 13.4291 8.29363 13.6461 8.29363 13.6461V15.4221V15.4107L8.13984 15.4111L8.14115 15.6354C8.25945 15.6353 8.54668 15.5743 8.54668 15.5107L8.54668 15.5108ZM8.97402 18.1931C8.97402 18.1931 8.75454 17.8483 8.98972 17.6132H8.74222C8.64286 18.044 8.97402 18.1931 8.97402 18.1931ZM10.5046 17.7461C10.5046 17.7461 10.3864 17.7461 10.2994 17.7461C10.2978 18.066 10.6694 18.1871 10.6694 18.1871C10.5385 18.0568 10.4487 17.8011 10.5046 17.7461Z" fill="#6A7AB5"/>
<path d="M3.60093 14.29L3.58725 14.248L3.5814 14.2042C3.56135 14.0545 3.52515 13.7757 3.30987 13.7258C3.25231 13.7124 3.19283 13.7193 3.12937 13.7454C3.14664 13.6791 3.14462 13.6192 3.12381 13.5642C3.04445 13.3578 2.76347 13.3604 2.61251 13.3624H2.56813L2.52441 13.3543C2.37612 13.327 2.09949 13.2753 1.98599 13.4648C1.9555 13.5154 1.94338 13.5739 1.94858 13.6421C1.89112 13.6051 1.83321 13.5885 1.7748 13.5913C1.55386 13.6031 1.46939 13.8712 1.4242 14.0155L1.41042 14.0574L1.38992 14.0963C1.31752 14.2292 1.18327 14.4757 1.32827 14.6426C1.367 14.6872 1.4191 14.717 1.48565 14.7328C1.43304 14.7764 1.39906 14.8262 1.38421 14.8832C1.32651 15.0964 1.55562 15.2594 1.67831 15.3467L1.71431 15.3733L1.74531 15.4047C1.84927 15.5147 2.04244 15.7182 2.24586 15.6321C2.29968 15.6089 2.34431 15.5687 2.38006 15.5104C2.40551 15.574 2.44211 15.6212 2.49144 15.6537C2.67673 15.7737 2.90237 15.6065 3.02374 15.5172L3.05964 15.4909L3.09948 15.4714C3.2358 15.4061 3.48976 15.2856 3.47057 15.0654C3.46547 15.0063 3.44078 14.9521 3.39661 14.9002C3.46461 14.8961 3.52086 14.8755 3.5665 14.8385C3.73857 14.6995 3.649 14.4332 3.60093 14.29" fill="white"/>
<path d="M2.63281 14.4682C3.86889 15.1987 3.4882 14.3953 3.46103 14.2765C3.43367 14.1581 3.42327 13.2695 2.63281 14.4682Z" fill="#ED1C24"/>
<path d="M2.55544 14.6514C2.24261 16.0521 2.88902 15.4423 2.99328 15.3802C3.09749 15.3176 3.93944 15.0328 2.55544 14.6514Z" fill="#ED1C24"/>
<path d="M2.35701 14.6348C0.927569 14.7697 1.70778 15.1963 1.79941 15.2759C1.8913 15.3553 2.42179 16.0685 2.35701 14.6348Z" fill="#ED1C24"/>
<path d="M2.31196 14.44C1.74144 13.1224 1.57689 13.9961 1.52938 14.1083C1.48187 14.2196 0.967542 14.945 2.31196 14.44Z" fill="#ED1C24"/>
<path d="M22.7294 14.0964L22.709 14.0575L22.695 14.0156C22.6498 13.8712 22.5653 13.6032 22.345 13.5914C22.2859 13.5886 22.2283 13.605 22.1709 13.6417C22.1761 13.574 22.1633 13.5154 22.1336 13.4648C22.0196 13.2753 21.7434 13.327 21.5951 13.3543L21.5509 13.3624H21.5067C21.3563 13.3604 21.0751 13.3578 20.996 13.5642C20.9745 13.6192 20.973 13.6792 20.9898 13.7454C20.9273 13.7193 20.8677 13.7126 20.8098 13.7259C20.5947 13.7756 20.5577 14.0545 20.5387 14.2042L20.5321 14.248L20.5188 14.29C20.4705 14.4332 20.3812 14.6995 20.5532 14.8387C20.5988 14.8756 20.6547 14.8963 20.7231 14.9003C20.6789 14.9523 20.6543 15.0066 20.6491 15.0656C20.6301 15.2858 20.8837 15.4063 21.0202 15.4716L21.0597 15.4911L21.0956 15.5174C21.2173 15.6068 21.4432 15.7739 21.6279 15.6539C21.6778 15.6214 21.7142 15.5742 21.7393 15.5106C21.7753 15.5689 21.8195 15.609 21.8738 15.6323C22.0771 15.7184 22.2705 15.5148 22.3743 15.4048L22.4056 15.3735L22.4411 15.3469C22.5642 15.2596 22.7932 15.0965 22.7356 14.8834C22.7202 14.8263 22.6869 14.7765 22.634 14.733C22.7003 14.7172 22.7525 14.6873 22.791 14.6427C22.9363 14.4758 22.8022 14.2294 22.7294 14.0964" fill="white"/>
<path d="M21.6368 14.3373C20.5604 13.3877 21.4418 13.501 21.563 13.4904C21.6836 13.4802 22.5325 13.2152 21.6368 14.3373Z" fill="#ED1C24"/>
<path d="M21.4869 14.4682C20.2508 15.1987 20.6307 14.3953 20.6584 14.2765C20.6856 14.1581 20.6958 13.2695 21.4869 14.4682Z" fill="#ED1C24"/>
<path d="M21.5647 14.6514C21.8777 16.0521 21.2312 15.4423 21.1268 15.3802C21.0227 15.3176 20.181 15.0328 21.5647 14.6514Z" fill="#ED1C24"/>
<path d="M21.7623 14.6348C23.1918 14.7697 22.4121 15.1963 22.3201 15.2759C22.2288 15.3553 21.6976 16.0685 21.7623 14.6348Z" fill="#ED1C24"/>
<path d="M21.8066 14.44C22.3775 13.1224 22.5417 13.9961 22.5894 14.1083C22.6367 14.2196 23.151 14.945 21.8066 14.44Z" fill="#ED1C24"/>
<path d="M22.0848 14.481C22.0835 14.4695 22.0798 14.4593 22.0782 14.4482C22.193 14.3639 22.317 14.2735 22.317 14.2735L22.3051 14.2468C22.3051 14.2468 22.1604 14.2721 22.0217 14.2963C21.952 14.1822 21.8333 14.1048 21.6974 14.0915C21.6543 13.9618 21.6111 13.8296 21.6111 13.8296L21.5821 13.8321C21.5821 13.8321 21.5625 13.9698 21.5428 14.1047C21.4593 14.1273 21.3843 14.1745 21.3273 14.2422C21.2969 14.2786 21.275 14.3199 21.2575 14.363C21.1178 14.363 20.9701 14.3634 20.9701 14.3634L20.9639 14.3922C20.9639 14.3922 21.1016 14.4593 21.2287 14.5215C21.2292 14.5332 21.2277 14.5446 21.2287 14.5563C21.2385 14.6684 21.2909 14.7689 21.3756 14.8423C21.3309 14.982 21.2806 15.138 21.2806 15.138L21.3052 15.1529C21.3052 15.1529 21.4212 15.0328 21.5244 14.9268C21.5784 14.9445 21.6358 14.9515 21.6938 14.9463C21.7523 14.9419 21.8077 14.9243 21.858 14.8982C21.9777 14.9844 22.1127 15.0821 22.1127 15.0821L22.1348 15.063C22.1348 15.063 22.0583 14.9184 21.9901 14.7889C22.0608 14.7015 22.0941 14.5927 22.0848 14.481" fill="white"/>
<path d="M21.6342 14.2657C21.5665 14.2709 21.5054 14.303 21.4619 14.3553C21.4183 14.4072 21.3972 14.4728 21.4034 14.5402C21.4152 14.6798 21.5388 14.7835 21.678 14.7712C21.7462 14.765 21.8068 14.7331 21.8509 14.6814C21.8941 14.6291 21.9151 14.5639 21.9094 14.496C21.8972 14.3564 21.7735 14.2531 21.6342 14.2657Z" fill="#ED1C24"/>
<path d="M2.4831 14.3373C3.55988 13.3877 2.67798 13.501 2.55716 13.4904C2.43594 13.4802 1.58722 13.2152 2.4831 14.3373Z" fill="#ED1C24"/>
<path d="M2.89042 14.5215C3.01851 14.4593 3.15554 14.3921 3.15554 14.3921L3.14912 14.3634C3.14912 14.3634 3.00174 14.3629 2.86164 14.3629C2.84467 14.3199 2.82261 14.2786 2.79206 14.2422C2.73511 14.1745 2.66019 14.1273 2.57647 14.1047C2.55729 13.9696 2.53775 13.8321 2.53775 13.8321L2.50816 13.8296C2.50816 13.8296 2.4653 13.9617 2.42279 14.0915C2.28601 14.1048 2.16716 14.1822 2.09764 14.2963C1.95945 14.2721 1.81394 14.2468 1.81394 14.2468L1.80273 14.2735C1.80273 14.2735 1.92643 14.3639 2.04114 14.4482C2.03928 14.4593 2.03594 14.4696 2.03473 14.4809C2.02524 14.5933 2.05932 14.7015 2.12995 14.7889C2.06119 14.9183 1.98464 15.063 1.98464 15.063L2.00731 15.0821C2.00731 15.0821 2.14207 14.9844 2.26168 14.8982C2.31196 14.9245 2.36735 14.9414 2.42567 14.9463C2.48413 14.9516 2.54139 14.9445 2.59531 14.9268C2.69826 15.0328 2.81408 15.1529 2.81408 15.1529L2.83947 15.138C2.83947 15.138 2.78909 14.9819 2.74415 14.8427C2.82862 14.7688 2.88103 14.6683 2.89097 14.5562C2.89219 14.5446 2.8904 14.5332 2.8904 14.5216" fill="white"/>
<path d="M2.6574 14.3553C2.61368 14.303 2.55294 14.2708 2.48488 14.2657C2.34579 14.2531 2.22204 14.3564 2.20992 14.4961C2.20417 14.5639 2.22512 14.6291 2.26829 14.6815C2.31191 14.7332 2.37325 14.765 2.44096 14.7712C2.58005 14.7836 2.70375 14.6798 2.71582 14.5403C2.72153 14.4728 2.70072 14.4072 2.6574 14.3553Z" fill="#ED1C24"/>
<path d="M2.64114 8.36463C2.03936 8.25835 1.46313 8.66231 1.3568 9.26409C1.25063 9.86627 1.65413 10.4425 2.25596 10.5487C2.8583 10.655 3.43478 10.2512 3.54076 9.64912C3.64729 9.04724 3.24353 8.47106 2.64114 8.36463Z" fill="white"/>
<path d="M2.89184 9.20288C2.8821 9.19693 2.86513 9.18592 2.84459 9.17234C2.75365 9.11205 2.57538 8.99416 2.57048 8.99063C2.54579 8.97366 2.52176 8.95751 2.49808 8.94155C2.41881 8.88844 2.34793 8.84224 2.28128 8.80377C2.25558 8.78918 2.23074 8.77554 2.20575 8.76333C2.09977 8.70986 1.99819 8.67754 1.87828 8.66699C1.78583 8.73374 1.7056 8.81639 1.64062 8.91191C1.91635 9.01148 2.18555 9.17092 2.74608 9.5191C2.77814 9.44498 2.88543 9.21677 2.89184 9.20288Z" fill="#ED1C24"/>
<path d="M2.63277 9.79691C2.64398 9.76899 2.69326 9.64428 2.7134 9.59627C2.13899 9.23946 1.87226 9.08158 1.59593 8.98389C1.55306 9.06083 1.52095 9.1448 1.5 9.23416C1.65773 9.45071 2.08042 9.66347 2.63277 9.79691Z" fill="#ED1C24"/>
<path d="M2.57039 8.89071C2.78548 8.76347 3.02984 8.79811 3.21847 8.86248C3.14814 8.77165 3.06297 8.69229 2.96391 8.63049C2.78573 8.59504 2.53965 8.58949 2.34375 8.7452C2.41499 8.78705 2.48855 8.83588 2.57039 8.89071Z" fill="#ED1C24"/>
<path d="M1.71314 9.91774C1.74191 9.93748 1.7714 9.95627 1.80275 9.97389C1.86607 10.0089 1.93463 10.0391 2.00547 10.065C2.03551 10.0764 2.06605 10.0869 2.09685 10.0969C2.2046 10.1323 2.45184 10.1965 2.47027 10.2008C2.47406 10.1913 2.5667 9.96222 2.60184 9.87518C2.17359 9.76895 1.70465 9.58305 1.48184 9.34131C1.46847 9.45294 1.47366 9.56336 1.49724 9.66807C1.54425 9.77047 1.61973 9.85206 1.71314 9.91774Z" fill="#ED1C24"/>
<path d="M2.48423 10.291L2.39487 10.268C2.31201 10.2469 2.22219 10.2233 2.13086 10.1953C2.17539 10.2902 2.24547 10.3642 2.32019 10.4215C2.42031 10.4347 2.51912 10.4322 2.61409 10.4158C2.54547 10.3624 2.48423 10.291 2.48423 10.291" fill="#ED1C24"/>
<path d="M3.37962 9.17296C3.35927 9.10647 3.33256 9.04204 3.29899 8.98201C3.13015 8.90673 2.87301 8.83317 2.64844 8.94303L2.95819 9.14756C3.02276 9.14181 3.08219 9.14004 3.13656 9.14135C3.16625 9.14181 3.19382 9.14343 3.22018 9.14599C3.28081 9.15134 3.33256 9.16109 3.37962 9.17296" fill="#ED1C24"/>
<path d="M3.22144 9.22998C3.2124 9.73901 2.97243 10.1316 2.76562 10.3772C3.08931 10.2648 3.34458 9.9858 3.40825 9.62546C3.43006 9.50232 3.42622 9.38119 3.4034 9.26593C3.35312 9.25028 3.29298 9.2372 3.22144 9.22998" fill="#ED1C24"/>
<path d="M2.26625 8.70189C2.41121 8.5741 2.58242 8.53093 2.7403 8.5274C2.70021 8.51457 2.65936 8.50351 2.6168 8.49629C2.39167 8.45656 2.17144 8.49841 1.98438 8.59975C2.08399 8.61924 2.17401 8.65417 2.26625 8.70189Z" fill="#ED1C24"/>
<path d="M2.97088 9.2302C2.89722 9.38364 2.8539 9.4776 2.81795 9.56307C2.80689 9.58898 2.79614 9.61412 2.78529 9.64027C2.76812 9.68314 2.71521 9.81638 2.71521 9.81638L2.68365 9.89458L2.54688 10.2334C2.58459 10.2835 2.63028 10.3242 2.67522 10.3561C2.87844 10.1243 3.13134 9.73474 3.13906 9.2248C3.08792 9.22298 3.03167 9.22485 2.97088 9.23019" fill="#ED1C24"/>
<path d="M2.02877 10.1612C1.96056 10.1377 1.89245 10.1109 1.82812 10.0796C1.85216 10.1538 1.88679 10.2197 1.92168 10.2762C1.99464 10.323 2.07471 10.36 2.16019 10.3863C2.1048 10.3239 2.05699 10.2501 2.02877 10.1612Z" fill="#ED1C24"/>
<path d="M1.72676 10.0251C1.68051 9.99734 1.63749 9.96649 1.59766 9.93262C1.64274 10.0132 1.69954 10.0872 1.76543 10.152C1.74978 10.1116 1.73605 10.0697 1.72676 10.0251Z" fill="#ED1C24"/>
<path d="M20.4593 9.64912C20.5657 10.2512 21.1417 10.655 21.7437 10.5487C22.3459 10.4425 22.7493 9.86627 22.6435 9.26409C22.5373 8.66231 21.9609 8.25835 21.3587 8.36463C20.7567 8.47101 20.3532 9.04719 20.4593 9.64912Z" fill="white"/>
<path d="M21.1084 9.20288C21.1179 9.19693 21.135 9.18592 21.156 9.17234C21.247 9.11205 21.425 8.99416 21.4296 8.99063C21.4548 8.97366 21.4789 8.95751 21.5025 8.94155C21.5809 8.88844 21.6524 8.84224 21.7192 8.80377C21.7448 8.78918 21.77 8.77554 21.7945 8.76333C21.9002 8.70986 22.0024 8.67754 22.1221 8.66699C22.2145 8.73374 22.295 8.81639 22.3591 8.91191C22.0836 9.01148 21.8152 9.17092 21.254 9.5191C21.2218 9.44498 21.115 9.21677 21.1084 9.20288Z" fill="#ED1C24"/>
<path d="M21.3672 9.79691C21.3558 9.76899 21.3061 9.64428 21.2871 9.59627C21.8604 9.23946 22.128 9.08158 22.4041 8.98389C22.4467 9.06083 22.479 9.1448 22.5 9.23416C22.342 9.45071 21.9194 9.66347 21.3672 9.79691Z" fill="#ED1C24"/>
<path d="M21.4296 8.89071C21.2143 8.76347 20.9702 8.79811 20.7812 8.86248C20.8517 8.77165 20.9374 8.69229 21.0364 8.63049C21.2143 8.59504 21.4603 8.58949 21.6559 8.7452C21.5852 8.78705 21.5112 8.83588 21.4296 8.89071Z" fill="#ED1C24"/>
<path d="M22.2865 9.91774C22.2584 9.93748 22.229 9.95627 22.1971 9.97389C22.1341 10.0089 22.0657 10.0391 21.995 10.065C21.9647 10.0764 21.9339 10.0869 21.9032 10.0969C21.796 10.1323 21.5485 10.1965 21.5299 10.2008C21.5258 10.1913 21.4329 9.96222 21.3984 9.87518C21.8265 9.76895 22.2951 9.58305 22.5186 9.34131C22.5319 9.45294 22.5262 9.56336 22.503 9.66807C22.4558 9.77047 22.3805 9.85206 22.2865 9.91774Z" fill="#ED1C24"/>
<path d="M21.5162 10.291L21.6049 10.268C21.688 10.2469 21.7784 10.2233 21.8698 10.1953C21.8246 10.2902 21.7548 10.3642 21.6803 10.4215C21.5803 10.4347 21.4812 10.4322 21.3867 10.4158C21.4545 10.3624 21.5162 10.291 21.5162 10.291" fill="#ED1C24"/>
<path d="M20.6201 9.17296C20.6406 9.10647 20.6669 9.04204 20.7013 8.98201C20.8696 8.90673 21.1262 8.83317 21.3509 8.94303L21.0414 9.14756C20.9768 9.14181 20.9174 9.14004 20.8629 9.14135C20.8336 9.14181 20.8059 9.14343 20.7792 9.14599C20.7186 9.15134 20.6674 9.16109 20.6201 9.17296" fill="#ED1C24"/>
<path d="M20.7785 9.22998C20.7873 9.73901 21.0278 10.1316 21.2348 10.3772C20.9103 10.2648 20.6547 9.9858 20.5917 9.62546C20.5701 9.50232 20.5732 9.38119 20.5968 9.26593C20.6466 9.25028 20.7072 9.2372 20.7785 9.22998" fill="#ED1C24"/>
<path d="M21.733 8.70189C21.588 8.5741 21.4164 8.53093 21.2588 8.5274C21.2987 8.51457 21.3394 8.50351 21.3823 8.49629C21.6073 8.45656 21.8274 8.49841 22.0145 8.59975C21.9152 8.61924 21.825 8.65417 21.733 8.70189Z" fill="#ED1C24"/>
<path d="M21.0293 9.2302C21.1031 9.38364 21.1456 9.4776 21.1828 9.56307C21.1934 9.58898 21.2037 9.61412 21.2146 9.64027C21.232 9.68314 21.2849 9.81638 21.2849 9.81638L21.3162 9.89458L21.4533 10.2334C21.4153 10.2835 21.37 10.3242 21.3249 10.3561C21.1218 10.1243 20.8684 9.73474 20.8613 9.2248C20.9122 9.22298 20.9687 9.22485 21.0293 9.23019" fill="#ED1C24"/>
<path d="M21.9712 10.1612C22.0394 10.1377 22.107 10.1109 22.172 10.0796C22.1472 10.1538 22.1133 10.2197 22.0779 10.2762C22.005 10.323 21.925 10.36 21.8398 10.3863C21.8951 10.3239 21.9429 10.2501 21.9712 10.1612Z" fill="#ED1C24"/>
<path d="M22.2733 10.0251C22.3189 9.99734 22.3621 9.96649 22.4021 9.93262C22.3569 10.0132 22.3005 10.0872 22.2344 10.152C22.2497 10.1116 22.2636 10.0697 22.2733 10.0251Z" fill="#ED1C24"/>
</g>
<defs>
<clipPath id="clip0_231_4981">
<rect width="24" height="24" fill="white"/>
</clipPath>
</defs>
</svg>
