<svg width="24" height="24" viewBox="0 0 24 24" fill="none" xmlns="http://www.w3.org/2000/svg">
<g id="devicon:facebook" clip-path="url(#clip0_1091_9656)">
<path id="Vector" d="M21.8718 0.905518H2.12989C1.45369 0.905518 0.905518 1.45369 0.905518 2.12989V21.8718C0.905518 22.548 1.45369 23.0961 2.12989 23.0961H21.8718C22.548 23.0961 23.0961 22.548 23.0961 21.8718V2.12989C23.0961 1.45369 22.548 0.905518 21.8718 0.905518Z" fill="#3D5A98"/>
<path id="Vector_2" d="M16.215 23.0943V14.5012H19.0987L19.53 11.1524H16.215V9.01494C16.215 8.04557 16.485 7.38369 17.8743 7.38369H19.6481V4.38369C18.7892 4.29418 17.926 4.25161 17.0625 4.25619C14.5087 4.25619 12.75 5.81244 12.75 8.68307V11.1524H9.86621V14.5012H12.75V23.0943H16.215Z" fill="white"/>
</g>
<defs>
<clipPath id="clip0_1091_9656">
<rect width="24" height="24" fill="white"/>
</clipPath>
</defs>
</svg>
