<svg width="24" height="20" viewBox="0 0 24 20" fill="none" xmlns="http://www.w3.org/2000/svg">
<g id="logos:google-gmail" clip-path="url(#clip0_1091_9680)">
<path id="Vector" d="M5.45456 18.9579V9.68511L2.57878 7.05421L0 5.59424V17.3215C0 18.227 0.733594 18.9579 1.63641 18.9579H5.45456Z" fill="#4285F4"/>
<path id="Vector_2" d="M18.5454 18.9578H22.3636C23.2691 18.9578 24 18.2241 24 17.3214V5.59424L21.0791 7.26646L18.5454 9.68502V18.9578Z" fill="#34A853"/>
<path id="Vector_3" d="M5.45454 9.68511L5.06323 6.06196L5.45454 2.59424L12 7.50336L18.5454 2.59424L18.9831 5.87474L18.5454 9.68511L12 14.5942L5.45454 9.68511Z" fill="#EA4335"/>
<path id="Vector_4" d="M18.5454 2.5941V9.68497L24 5.5941V3.41225C24 1.38866 21.69 0.235065 20.0728 1.44866L18.5454 2.5941Z" fill="#FBBC04"/>
<path id="Vector_5" d="M0 5.59414L2.50866 7.4757L5.45456 9.68501V2.59414L3.92719 1.4487C2.30719 0.235014 0 1.3887 0 3.4122V5.59405V5.59414Z" fill="#C5221F"/>
</g>
<defs>
<clipPath id="clip0_1091_9680">
<rect width="24" height="18.0938" fill="white" transform="translate(0 0.953125)"/>
</clipPath>
</defs>
</svg>
