<svg width="20" height="20" viewBox="0 0 20 20" fill="none" xmlns="http://www.w3.org/2000/svg">
<path d="M16.8638 8.62905H16.3V8.6H10V11.4H13.956C13.3789 13.03 11.828 14.2 10 14.2C7.68055 14.2 5.8 12.3194 5.8 10C5.8 7.68055 7.68055 5.8 10 5.8C11.0707 5.8 12.0447 6.2039 12.7864 6.86365L14.7663 4.8837C13.5161 3.71855 11.8438 3 10 3C6.13425 3 3 6.13425 3 10C3 13.8658 6.13425 17 10 17C13.8658 17 17 13.8658 17 10C17 9.53065 16.9517 9.0725 16.8638 8.62905Z" fill="#FFC107"/>
<path d="M3.80664 6.74185L6.10649 8.4285C6.72879 6.8878 8.23589 5.8 9.99954 5.8C11.0702 5.8 12.0442 6.2039 12.7859 6.86365L14.7658 4.8837C13.5156 3.71855 11.8433 3 9.99954 3C7.31084 3 4.97914 4.51795 3.80664 6.74185Z" fill="#FF3D00"/>
<path d="M10.0003 17C11.8084 17 13.4513 16.3081 14.6935 15.1828L12.527 13.3495C11.8005 13.902 10.9129 14.2008 10.0003 14.2C8.1796 14.2 6.63365 13.0391 6.05125 11.4189L3.76855 13.1777C4.92705 15.4446 7.27975 17 10.0003 17Z" fill="#4CAF50"/>
<path d="M16.8639 8.62915H16.3V8.6001H10V11.4001H13.9561C13.68 12.1758 13.1827 12.8537 12.5256 13.3499L12.5266 13.3492L14.6932 15.1825C14.5399 15.3218 17 13.5001 17 10.0001C17 9.53075 16.9517 9.0726 16.8639 8.62915Z" fill="#1976D2"/>
</svg>
