<svg width="20" height="20" viewBox="0 0 20 20" fill="none" xmlns="http://www.w3.org/2000/svg">
<path d="M15.6182 7.92228C15.5364 7.99482 14.0182 8.96893 14.0182 11.1243C14.0182 13.6218 15.9363 14.5026 16 14.5233C16 14.5751 15.6909 15.7358 14.9909 16.9068C14.3636 17.943 13.7 18.9793 12.7 18.9793C11.7 18.9793 11.4364 18.3161 10.2818 18.3161C9.12729 18.3161 8.75456 19 7.83636 19C6.91819 19 6.28182 18.0467 5.54546 16.8653C4.69091 15.4871 4 13.3419 4 11.3005C4 8.03627 5.86364 6.29534 7.7 6.29534C8.67273 6.29534 9.49092 7.02072 10.1 7.02072C10.7091 7.02072 11.5909 6.24352 12.7 6.24352C13.1182 6.24352 14.6273 6.28497 15.6273 7.91192L15.6182 7.92228ZM12.1637 3.68394C12.6182 3.06218 12.9455 2.20207 12.9455 1.34197C12.9455 1.21762 12.9455 1.10363 12.9182 1C12.1727 1.03109 11.2818 1.56995 10.7454 2.27461C10.3273 2.82383 9.93636 3.68394 9.93636 4.5544C9.93636 4.68912 9.95452 4.81347 9.96364 4.85492C10.0091 4.85492 10.0909 4.87565 10.1636 4.87565C10.8364 4.87565 11.6727 4.36787 12.1637 3.67357V3.68394Z" stroke="white" stroke-linecap="round" stroke-linejoin="round"/>
</svg>
