<svg width="18" height="24" viewBox="0 0 18 24" fill="none" xmlns="http://www.w3.org/2000/svg">
<g id="Group 12">
<path id="Vector" d="M12.5868 6.9582C12.4862 6.9582 12.4079 6.87688 12.4079 6.77814C12.4079 6.6794 12.4862 6.59808 12.5868 6.59808C12.6875 6.59808 12.7657 6.6794 12.7657 6.77814C12.7713 6.87688 12.6875 6.9582 12.5868 6.9582ZM1.91406 15.3803C1.91406 11.3551 5.19025 8.08501 9.19324 8.08501C13.1962 8.08501 16.4724 11.3609 16.4724 15.3803C16.4724 19.3938 13.1962 22.6813 9.19324 22.6813C5.19025 22.6755 1.91406 19.3938 1.91406 15.3803ZM12.0501 4.2399C12.2234 4.28637 12.3297 4.46062 12.2849 4.63487C12.2402 4.80912 12.0613 4.91367 11.888 4.8672C11.7147 4.82074 11.6085 4.64649 11.6532 4.47224C11.6979 4.29799 11.8768 4.19344 12.0501 4.2399ZM12.3464 3.60099C12.4471 3.60099 12.5253 3.6823 12.5253 3.78104C12.5253 3.87979 12.4471 3.9611 12.3464 3.9611C12.2458 3.9611 12.1675 3.87979 12.1675 3.78104C12.1619 3.6765 12.2458 3.60099 12.3464 3.60099ZM12.1955 2.95045C12.2961 2.95045 12.3744 3.03177 12.3744 3.13051C12.3744 3.22925 12.2961 3.31057 12.1955 3.31057C12.0949 3.31057 12.0166 3.22925 12.0166 3.13051C12.011 3.03177 12.0949 2.95045 12.1955 2.95045ZM14.4318 4.6581C14.5324 4.6581 14.6107 4.73942 14.6107 4.83816C14.6107 4.9369 14.5324 5.01822 14.4318 5.01822C14.3312 5.01822 14.2529 4.9369 14.2529 4.83816C14.2529 4.73942 14.3312 4.6581 14.4318 4.6581ZM14.2808 4.01338C14.3815 4.01338 14.4598 4.09469 14.4598 4.19344C14.4598 4.29218 14.3815 4.37349 14.2808 4.37349C14.1802 4.37349 14.1019 4.29218 14.1019 4.19344C14.1019 4.09469 14.1802 4.01338 14.2808 4.01338ZM14.0125 3.44416C14.1131 3.44416 14.1914 3.52548 14.1914 3.62422C14.1914 3.72296 14.1075 3.80428 14.0125 3.80428C13.9119 3.80428 13.8336 3.72296 13.8336 3.62422C13.828 3.52548 13.9119 3.44416 14.0125 3.44416ZM13.582 2.93884C13.6826 2.93884 13.7609 3.02015 13.7609 3.1189C13.7609 3.21764 13.6826 3.29895 13.582 3.29895C13.4814 3.29895 13.4031 3.21764 13.4031 3.1189C13.4031 3.02015 13.4814 2.93884 13.582 2.93884ZM13.0565 2.55549C13.1571 2.55549 13.2354 2.6368 13.2354 2.73555C13.2354 2.83429 13.1571 2.9156 13.0565 2.9156C12.9558 2.9156 12.8776 2.83429 12.8776 2.73555C12.8776 2.6368 12.9558 2.55549 13.0565 2.55549ZM12.4862 2.32896C12.5868 2.32896 12.6651 2.41028 12.6651 2.50902C12.6651 2.60776 12.5868 2.68908 12.4862 2.68908C12.3856 2.68908 12.3073 2.60776 12.3073 2.50902C12.3073 2.41028 12.3912 2.32896 12.4862 2.32896ZM11.9104 2.38124C12.011 2.38124 12.0893 2.46256 12.0893 2.5613C12.0893 2.66004 12.011 2.74135 11.9104 2.74135C11.8097 2.74135 11.7315 2.66004 11.7315 2.5613C11.7315 2.46256 11.8097 2.38124 11.9104 2.38124ZM11.4855 1.88753C11.5861 1.88753 11.6644 1.96885 11.6644 2.06759C11.6644 2.16633 11.5805 2.24765 11.4855 2.24765C11.3848 2.24765 11.3066 2.16633 11.3066 2.06759C11.3066 1.96885 11.3848 1.88753 11.4855 1.88753ZM10.932 1.52161C11.0326 1.52161 11.1109 1.60292 11.1109 1.70166C11.1109 1.80041 11.0326 1.88172 10.932 1.88172C10.8313 1.88172 10.7531 1.80041 10.7531 1.70166C10.7531 1.60292 10.8313 1.52161 10.932 1.52161ZM10.3561 1.3067C10.4568 1.3067 10.535 1.38801 10.535 1.48676C10.535 1.5855 10.4568 1.66681 10.3561 1.66681C10.2555 1.66681 10.1772 1.5855 10.1772 1.48676C10.1772 1.38801 10.2555 1.3067 10.3561 1.3067ZM9.76909 1.20215C9.86973 1.20215 9.948 1.28346 9.948 1.38221C9.948 1.48095 9.86973 1.56226 9.76909 1.56226C9.66846 1.56226 9.59019 1.48095 9.59019 1.38221C9.5846 1.28346 9.66846 1.20215 9.76909 1.20215ZM4.18391 5.97078C4.02737 6.05791 3.8317 5.99983 3.74224 5.843C3.72158 5.80553 3.7085 5.76408 3.70381 5.72117C3.69911 5.67826 3.7029 5.63482 3.71494 5.59348C3.72698 5.55215 3.74702 5.51381 3.77382 5.48081C3.80063 5.44781 3.83364 5.42085 3.87083 5.40157C4.02737 5.31444 4.22305 5.37253 4.3125 5.52935C4.39636 5.68618 4.34046 5.88366 4.18391 5.97078ZM6.49849 4.8672C6.32518 4.91367 6.14628 4.80912 6.10155 4.63487C6.05682 4.46062 6.16305 4.28056 6.33636 4.2399C6.50968 4.19344 6.68858 4.29799 6.73331 4.47224C6.77803 4.64649 6.67181 4.82654 6.49849 4.8672ZM9.19324 4.52451C9.15139 4.52528 9.10981 4.51748 9.07086 4.50155C9.03191 4.48561 8.99637 4.46187 8.96626 4.43166C8.93614 4.40146 8.91206 4.36539 8.89536 4.32551C8.87867 4.28563 8.86971 4.24272 8.86898 4.19924C8.86898 4.01919 9.01434 3.87398 9.19324 3.87398C9.37215 3.87398 9.51751 4.01919 9.51751 4.19924C9.51751 4.3793 9.37215 4.52451 9.19324 4.52451ZM6.04564 3.9611C5.94501 3.9611 5.86674 3.87979 5.86674 3.78104C5.86674 3.6823 5.94501 3.60099 6.04564 3.60099C6.14628 3.60099 6.22455 3.6823 6.22455 3.78104C6.22455 3.87979 6.14068 3.9611 6.04564 3.9611ZM6.19659 3.31057C6.09596 3.31057 6.01769 3.22925 6.01769 3.13051C6.01769 3.03177 6.09596 2.95045 6.19659 2.95045C6.29723 2.95045 6.3755 3.03177 6.3755 3.13051C6.3755 3.22925 6.29164 3.31057 6.19659 3.31057ZM3.95469 5.02403C3.85406 5.02403 3.77579 4.94271 3.77579 4.84397C3.77579 4.74523 3.85406 4.66391 3.95469 4.66391C4.05533 4.66391 4.1336 4.74523 4.1336 4.84397C4.13919 4.94271 4.05533 5.02403 3.95469 5.02403ZM4.10564 4.37349C4.00501 4.37349 3.92674 4.29218 3.92674 4.19344C3.92674 4.09469 4.0106 4.01338 4.10564 4.01338C4.20628 4.01338 4.28455 4.09469 4.28455 4.19344C4.29014 4.29218 4.20628 4.37349 4.10564 4.37349ZM4.374 3.80428C4.27337 3.80428 4.1951 3.72296 4.1951 3.62422C4.1951 3.52548 4.27337 3.44416 4.374 3.44416C4.47464 3.44416 4.55291 3.52548 4.55291 3.62422C4.5585 3.72296 4.47464 3.80428 4.374 3.80428ZM4.80449 3.29895C4.70386 3.29895 4.62559 3.21764 4.62559 3.1189C4.62559 3.02015 4.70386 2.93884 4.80449 2.93884C4.90512 2.93884 4.9834 3.02015 4.9834 3.1189C4.9834 3.21764 4.90512 3.29895 4.80449 3.29895ZM5.33002 2.9156C5.22939 2.9156 5.15112 2.83429 5.15112 2.73555C5.15112 2.6368 5.22939 2.55549 5.33002 2.55549C5.43066 2.55549 5.50893 2.6368 5.50893 2.73555C5.51452 2.83429 5.43066 2.9156 5.33002 2.9156ZM5.90028 2.69489C5.79965 2.69489 5.72138 2.61357 5.72138 2.51483C5.72138 2.41609 5.79965 2.33477 5.90028 2.33477C6.00092 2.33477 6.07919 2.41609 6.07919 2.51483C6.07919 2.61357 6.00092 2.69489 5.90028 2.69489ZM6.47613 2.74135C6.3755 2.74135 6.29723 2.66004 6.29723 2.5613C6.29723 2.46256 6.3755 2.38124 6.47613 2.38124C6.57676 2.38124 6.65504 2.46256 6.65504 2.5613C6.66063 2.66004 6.57676 2.74135 6.47613 2.74135ZM6.90103 2.25346C6.8004 2.25346 6.72212 2.17214 6.72212 2.0734C6.72212 1.97466 6.80599 1.89334 6.90103 1.89334C7.00166 1.89334 7.07993 1.97466 7.07993 2.0734C7.07993 2.17214 7.00166 2.25346 6.90103 2.25346ZM7.45451 1.88172C7.35388 1.88172 7.27561 1.80041 7.27561 1.70166C7.27561 1.60292 7.35388 1.52161 7.45451 1.52161C7.55515 1.52161 7.63342 1.60292 7.63342 1.70166C7.63342 1.80041 7.55515 1.88172 7.45451 1.88172ZM8.03036 1.66681C7.92973 1.66681 7.85146 1.5855 7.85146 1.48676C7.85146 1.38801 7.93532 1.3067 8.03036 1.3067C8.131 1.3067 8.20927 1.38801 8.20927 1.48676C8.20927 1.5855 8.131 1.66681 8.03036 1.66681ZM9.19324 3.44416C9.09261 3.44416 9.01434 3.36285 9.01434 3.2641C9.01434 3.16536 9.0982 3.08405 9.19324 3.08405C9.29388 3.08405 9.37215 3.16536 9.37215 3.2641C9.37215 3.36285 9.29388 3.44416 9.19324 3.44416ZM9.19324 2.78782C9.09261 2.78782 9.01434 2.7065 9.01434 2.60776C9.01434 2.50902 9.0982 2.42771 9.19324 2.42771C9.29388 2.42771 9.37215 2.50902 9.37215 2.60776C9.37215 2.7065 9.29388 2.78782 9.19324 2.78782ZM9.19324 2.13148C9.09261 2.13148 9.01434 2.05016 9.01434 1.95142C9.01434 1.85268 9.0982 1.77136 9.19324 1.77136C9.29388 1.77136 9.37215 1.85268 9.37215 1.95142C9.37215 2.05016 9.29388 2.13148 9.19324 2.13148ZM8.62299 1.56226C8.52235 1.56226 8.43849 1.48095 8.43849 1.38221C8.43849 1.28346 8.52235 1.20215 8.62299 1.20215C8.72362 1.20215 8.80189 1.28346 8.80189 1.38221C8.80189 1.48676 8.71803 1.56226 8.62299 1.56226ZM14.5157 5.40157C14.6722 5.48869 14.7281 5.68618 14.6442 5.843C14.5604 5.99983 14.3591 6.05791 14.2026 5.97078C14.1659 5.95095 14.1334 5.92369 14.107 5.89062C14.0806 5.85755 14.0608 5.81932 14.0488 5.77819C14.0368 5.73707 14.0329 5.69387 14.0372 5.65113C14.0415 5.6084 14.054 5.56699 14.074 5.52935C14.1634 5.37253 14.3591 5.31444 14.5157 5.40157ZM10.3505 6.35413C10.2499 6.35413 10.1716 6.27282 10.1716 6.17408C10.1716 6.07533 10.2499 5.99402 10.3505 5.99402C10.4512 5.99402 10.5294 6.07533 10.5294 6.17408C10.535 6.27282 10.4512 6.35413 10.3505 6.35413ZM5.79965 6.9582C5.69901 6.9582 5.62074 6.87688 5.62074 6.77814C5.62074 6.6794 5.7046 6.59808 5.79965 6.59808C5.90028 6.59808 5.97855 6.6794 5.97855 6.77814C5.97855 6.87688 5.90028 6.9582 5.79965 6.9582ZM8.03596 6.35413C7.93532 6.35413 7.85705 6.27282 7.85705 6.17408C7.85705 6.07533 7.94091 5.99402 8.03596 5.99402C8.13659 5.99402 8.21486 6.07533 8.21486 6.17408C8.21486 6.27282 8.13659 6.35413 8.03596 6.35413Z" fill="white"/>
<path id="Vector_2" d="M10.5349 5.04764C10.5852 5.158 10.6411 5.23932 10.7138 5.30901C10.546 5.28578 10.3839 5.26255 10.2162 5.24512C10.3112 5.19285 10.3895 5.12315 10.4566 5.03602C10.479 5.04183 10.5069 5.04764 10.5349 5.04764ZM7.85129 5.04764C7.87925 5.04764 7.9072 5.04183 7.93516 5.03602C7.99665 5.12315 8.08052 5.19285 8.16997 5.24512C8.00225 5.26255 7.83452 5.27997 7.67239 5.30901C7.75066 5.23351 7.81216 5.14638 7.85129 5.04764ZM6.88409 5.46003C6.73873 5.49488 6.59337 5.52973 6.44801 5.57039C6.52628 5.47165 6.5766 5.34967 6.58778 5.22189C6.66605 5.32644 6.76669 5.40776 6.88409 5.46003ZM5.22363 6.00601C5.26836 5.93631 5.29631 5.855 5.31868 5.77949L5.34104 5.77368C5.38576 5.76206 5.4249 5.74464 5.45844 5.72141C5.52553 5.76787 5.60381 5.80272 5.68208 5.82596C5.53113 5.87823 5.37458 5.94212 5.22363 6.00601ZM9.19308 4.89082C9.23781 5.01279 9.32167 5.11734 9.4223 5.19866C9.34403 5.19866 9.27135 5.19285 9.19308 5.19285C9.1204 5.19285 9.04213 5.19285 8.96386 5.19866C9.07008 5.11734 9.14835 5.01279 9.19308 4.89082ZM12.9277 5.7156C12.9613 5.73883 13.006 5.75626 13.0451 5.76787L13.0675 5.77368C13.0843 5.855 13.1178 5.93051 13.1625 6.00021C13.0116 5.93631 12.855 5.87242 12.6985 5.81434C12.7824 5.79691 12.8606 5.76206 12.9277 5.7156ZM11.9381 5.57039C11.7928 5.52973 11.6474 5.49488 11.5021 5.46003C11.6195 5.40776 11.7201 5.32644 11.7928 5.22189C11.8096 5.34967 11.8599 5.47165 11.9381 5.57039ZM12.5028 4.15316C12.6258 4.10088 12.7153 3.99053 12.7432 3.85693C12.9389 3.9034 13.1569 3.95567 13.3358 4.03118C13.5036 4.09507 13.6377 4.18801 13.7328 4.26932C13.8278 4.51908 13.8837 4.8095 13.9173 5.16381C13.7999 5.21608 13.7216 5.33806 13.6769 5.46003C13.6042 5.6459 13.6042 5.83757 13.8055 5.98278C13.7608 5.98636 13.7158 5.98004 13.6736 5.96424C13.6315 5.94845 13.593 5.92353 13.5607 5.89114C13.5285 5.85875 13.5033 5.81963 13.4867 5.77635C13.4701 5.73308 13.4625 5.68663 13.4644 5.64009C13.503 5.59473 13.5316 5.54123 13.5483 5.48326C13.6042 5.26255 13.4756 5.04183 13.2576 4.98956C13.0395 4.93147 12.8215 5.06507 12.7656 5.27997C12.76 5.30321 12.7544 5.32644 12.7544 5.34967C12.5699 5.5762 12.2009 5.46003 12.1841 5.16381C12.5252 5.23351 12.6705 5.05926 12.7264 4.82692C12.7768 4.63525 12.7544 4.43777 12.5364 4.3216C12.5252 4.25771 12.5196 4.19962 12.5028 4.15316Z" fill="#E62644"/>
<path id="Vector_3" d="M6.73887 3.35138C7.3874 2.99126 8.23161 2.92737 8.88573 3.02611V3.07258C8.83828 3.14649 8.81995 3.2365 8.83451 3.32404C8.84907 3.41158 8.89542 3.48998 8.964 3.54305C8.841 3.58371 8.74596 3.67664 8.71241 3.83928C8.46642 3.89736 8.39933 4.08323 8.39933 4.28071C8.39933 4.51885 8.49437 4.72214 8.841 4.73957C8.80187 4.87316 8.67887 4.96609 8.53351 4.96609C8.39374 4.96609 8.27074 4.87316 8.23161 4.74538C8.24279 4.71053 8.24279 4.67568 8.24279 4.64083C8.24279 4.4143 8.05829 4.23424 7.83466 4.23424C7.61103 4.23424 7.42654 4.4143 7.42654 4.64083C7.42654 4.71053 7.44331 4.78023 7.47685 4.8325C7.47181 4.90185 7.44587 4.96779 7.40272 5.02097C7.35957 5.07414 7.30139 5.11184 7.23645 5.12873C7.09668 5.16358 6.95691 5.10549 6.88423 4.98352C7.21409 4.87897 7.25881 4.65825 7.19731 4.42592C7.147 4.23424 7.03518 4.07161 6.7836 4.07742C6.74687 3.99552 6.68352 3.92971 6.60469 3.89155C6.63824 3.70569 6.67737 3.51982 6.73887 3.35138ZM9.49512 3.0203C10.1492 2.92156 10.999 2.98545 11.642 3.34557C11.7035 3.51982 11.7482 3.69988 11.7706 3.89155C11.6979 3.9264 11.6364 3.98449 11.5917 4.07742C11.3401 4.07161 11.2283 4.23424 11.1835 4.42592C11.122 4.65825 11.1668 4.87897 11.4966 4.98352C11.4239 5.09968 11.2842 5.16358 11.1444 5.12873C11.0792 5.11241 11.0207 5.07488 10.9774 5.02159C10.9342 4.9683 10.9084 4.90205 10.904 4.8325C10.9375 4.77442 10.9543 4.71053 10.9543 4.64083C10.9543 4.4143 10.7754 4.23424 10.5462 4.23424C10.3226 4.23424 10.1381 4.4143 10.1381 4.64083C10.1381 4.67568 10.1436 4.71053 10.1492 4.74538C10.1045 4.87316 9.98711 4.96609 9.84734 4.96609C9.70198 4.96609 9.58457 4.87316 9.53985 4.73957C9.88647 4.72214 9.98152 4.51885 9.98152 4.28071C9.98152 4.07742 9.91443 3.89736 9.66843 3.83928C9.6546 3.77158 9.62417 3.70873 9.58009 3.65684C9.53601 3.60494 9.47978 3.56575 9.41685 3.54305C9.49512 3.47916 9.55103 3.37461 9.55103 3.26425C9.55103 3.19455 9.52867 3.12485 9.49512 3.07258V3.0203ZM5.05605 4.03095C5.23495 3.96125 5.45299 3.90317 5.64867 3.8567C5.67662 3.99029 5.76608 4.10065 5.88907 4.15293C5.8723 4.19939 5.86112 4.25748 5.86671 4.31556C5.64308 4.43173 5.62631 4.62921 5.67662 4.82088C5.73812 5.05322 5.87789 5.22747 6.21893 5.15777C6.20775 5.45399 5.83317 5.57016 5.64867 5.34363C5.64867 5.3204 5.64308 5.29717 5.63749 5.27393C5.58158 5.05322 5.35795 4.92543 5.13991 4.98352C4.92187 5.0416 4.79328 5.26232 4.84919 5.47723C4.86596 5.53531 4.89392 5.59339 4.93305 5.63405C4.93864 5.75603 4.87714 5.87219 4.76533 5.93608C4.70942 5.96512 4.64792 5.97674 4.59202 5.97674C4.79328 5.83734 4.79328 5.64567 4.7206 5.45399C4.67029 5.33783 4.59761 5.21585 4.47461 5.16358C4.50256 4.80927 4.55847 4.51885 4.65351 4.26909C4.75415 4.18778 4.88274 4.09484 5.05605 4.03095ZM9.77466 6.11033L9.19322 6.32524L8.61737 6.11033L9.19322 5.89542L9.77466 6.11033ZM5.41945 6.90026L5.36913 7.10356L5.35236 7.17906L5.31323 7.15583L5.11755 7.04547L5.16786 6.8538L5.17905 6.81314L5.24614 6.83637L5.41945 6.90026ZM12.967 6.90026L13.2074 6.80733L13.2186 6.84799L13.2689 7.04547L13.0788 7.15002L13.0397 7.17326L13.0229 7.09775L12.967 6.90026Z" fill="#E62644"/>
<path id="Vector_4" d="M11.9383 5.57036C11.86 5.47162 11.8097 5.34964 11.7985 5.22186C11.7258 5.32641 11.6196 5.40773 11.5078 5.46C11.6476 5.49485 11.7929 5.5297 11.9383 5.57036ZM12.9278 5.71557C12.8608 5.76203 12.7825 5.79688 12.7042 5.82012C12.8608 5.8782 13.0173 5.94209 13.1682 6.00598C13.124 5.93684 13.0919 5.86017 13.0732 5.77946L13.0508 5.77365C13.0061 5.76203 12.967 5.7388 12.9278 5.71557ZM9.19321 4.89079C9.14849 5.01276 9.07021 5.11731 8.96399 5.19863C9.04226 5.19863 9.11494 5.19282 9.19321 5.19282C9.27148 5.19282 9.34416 5.19282 9.42243 5.19863C9.32048 5.1196 9.24123 5.01316 9.19321 4.89079ZM5.22376 6.00598C5.37472 5.94209 5.53126 5.8782 5.6878 5.82012C5.60953 5.79688 5.53126 5.76203 5.46417 5.71557C5.43062 5.7388 5.3859 5.75623 5.34676 5.76784L5.3244 5.77365C5.29644 5.85497 5.26849 5.93628 5.22376 6.00598ZM6.88422 5.46C6.76682 5.40773 6.66618 5.32641 6.5935 5.22186C6.57673 5.34964 6.53201 5.47162 6.45373 5.57036C6.5935 5.5297 6.73886 5.49485 6.88422 5.46ZM7.85143 5.04761C7.81229 5.14635 7.75079 5.23348 7.67252 5.30898C7.83465 5.28575 8.00238 5.26252 8.1701 5.24509C8.07506 5.19282 7.99679 5.12312 7.93529 5.03599C7.90733 5.0418 7.87938 5.04761 7.85143 5.04761ZM10.535 5.04761C10.5086 5.04701 10.4823 5.04311 10.4567 5.03599C10.3952 5.12312 10.3114 5.19282 10.2163 5.24509C10.384 5.26252 10.5518 5.27994 10.7139 5.30898C10.6412 5.23928 10.5853 5.15797 10.5406 5.06503L10.535 5.04761ZM14.5156 5.40192C14.4403 5.3603 14.3524 5.35035 14.2702 5.37414C14.188 5.39792 14.1177 5.45361 14.074 5.5297C13.9901 5.68653 14.046 5.88401 14.2025 5.97113C14.3591 6.05826 14.5548 6.00017 14.6442 5.84335C14.7337 5.68653 14.6778 5.48904 14.5156 5.40192ZM12.0501 4.24025C11.8768 4.19379 11.6979 4.29834 11.6532 4.47259C11.6084 4.64684 11.7146 4.82689 11.888 4.86755C12.0613 4.91402 12.2402 4.80947 12.2849 4.63522C12.3296 4.46097 12.2234 4.28091 12.0501 4.24025ZM12.3464 3.60134C12.2458 3.60134 12.1675 3.68265 12.1675 3.7814C12.1675 3.88014 12.2514 3.96145 12.3464 3.96145C12.447 3.96145 12.5253 3.88014 12.5253 3.7814C12.5253 3.67685 12.447 3.60134 12.3464 3.60134ZM12.1955 2.9508C12.0948 2.9508 12.0166 3.03212 12.0166 3.13086C12.0166 3.2296 12.1004 3.31092 12.1955 3.31092C12.2961 3.31092 12.3744 3.2296 12.3744 3.13086C12.3744 3.03212 12.2961 2.9508 12.1955 2.9508ZM14.4318 4.65845C14.3311 4.65845 14.2529 4.73977 14.2529 4.83851C14.2529 4.93725 14.3311 5.01857 14.4318 5.01857C14.5324 5.01857 14.6107 4.93725 14.6107 4.83851C14.6107 4.73977 14.5324 4.65845 14.4318 4.65845ZM14.2808 4.01373C14.1802 4.01373 14.1019 4.09504 14.1019 4.19379C14.1019 4.29253 14.1802 4.37384 14.2808 4.37384C14.3814 4.37384 14.4597 4.29253 14.4597 4.19379C14.4597 4.09504 14.3814 4.01373 14.2808 4.01373ZM14.0125 3.44451C13.9118 3.44451 13.8336 3.52583 13.8336 3.62457C13.8336 3.72331 13.9174 3.80463 14.0125 3.80463C14.1131 3.80463 14.1914 3.72331 14.1914 3.62457C14.1914 3.52583 14.1131 3.44451 14.0125 3.44451ZM13.582 2.93919C13.4813 2.93919 13.4031 3.0205 13.4031 3.11925C13.4031 3.21799 13.4813 3.2993 13.582 3.2993C13.6826 3.2993 13.7609 3.21799 13.7609 3.11925C13.7609 3.0205 13.6826 2.93919 13.582 2.93919ZM13.0564 2.55584C12.9558 2.55584 12.8775 2.63716 12.8775 2.7359C12.8775 2.83464 12.9558 2.91595 13.0564 2.91595C13.1571 2.91595 13.2353 2.83464 13.2353 2.7359C13.2353 2.63716 13.1571 2.55584 13.0564 2.55584ZM12.4862 2.32931C12.3855 2.32931 12.3073 2.41063 12.3073 2.50937C12.3073 2.60811 12.3855 2.68943 12.4862 2.68943C12.5868 2.68943 12.6651 2.60811 12.6651 2.50937C12.6707 2.41063 12.5868 2.32931 12.4862 2.32931ZM11.9103 2.38159C11.8097 2.38159 11.7314 2.46291 11.7314 2.56165C11.7314 2.66039 11.8097 2.7417 11.9103 2.7417C12.011 2.7417 12.0892 2.66039 12.0892 2.56165C12.0892 2.46291 12.011 2.38159 11.9103 2.38159ZM11.4854 1.88788C11.3848 1.88788 11.3065 1.9692 11.3065 2.06794C11.3065 2.16668 11.3848 2.248 11.4854 2.248C11.5861 2.248 11.6643 2.16668 11.6643 2.06794C11.6699 1.9692 11.5861 1.88788 11.4854 1.88788ZM10.9319 1.52196C10.8313 1.52196 10.753 1.60327 10.753 1.70201C10.753 1.80076 10.8313 1.88207 10.9319 1.88207C11.0326 1.88207 11.1108 1.80076 11.1108 1.70201C11.1108 1.60327 11.0326 1.52196 10.9319 1.52196ZM10.3561 1.30705C10.2555 1.30705 10.1772 1.38837 10.1772 1.48711C10.1772 1.58585 10.2555 1.66716 10.3561 1.66716C10.4567 1.66716 10.535 1.58585 10.535 1.48711C10.5406 1.38837 10.4567 1.30705 10.3561 1.30705ZM9.76906 1.2025C9.66843 1.2025 9.59016 1.28382 9.59016 1.38256C9.59016 1.4813 9.66843 1.56261 9.76906 1.56261C9.86969 1.56261 9.94796 1.4813 9.94796 1.38256C9.94796 1.28382 9.86969 1.2025 9.76906 1.2025ZM4.18388 5.97113C4.34042 5.88401 4.39633 5.68653 4.31247 5.5297C4.26897 5.45328 4.1987 5.39731 4.11638 5.37349C4.03406 5.34967 3.94606 5.35986 3.8708 5.40192C3.71426 5.48904 3.65835 5.68653 3.74221 5.84335C3.82607 6.00017 4.02734 6.05826 4.18388 5.97113ZM6.49846 4.86755C6.67177 4.82109 6.778 4.64684 6.73327 4.47259C6.68855 4.29834 6.50964 4.19379 6.33633 4.24025C6.16301 4.28672 6.05679 4.46097 6.10152 4.63522C6.15183 4.80947 6.32515 4.91402 6.49846 4.86755ZM9.19321 4.52486C9.37212 4.52486 9.51748 4.37965 9.51748 4.19959C9.51675 4.15612 9.50778 4.11321 9.49109 4.07333C9.4744 4.03345 9.45031 3.99738 9.4202 3.96718C9.39009 3.93697 9.35454 3.91322 9.31559 3.89729C9.27665 3.88136 9.23506 3.87356 9.19321 3.87433C9.15136 3.87356 9.10977 3.88136 9.07083 3.89729C9.03188 3.91322 8.99634 3.93697 8.96622 3.96718C8.93611 3.99738 8.91202 4.03345 8.89533 4.07333C8.87864 4.11321 8.86967 4.15612 8.86895 4.19959C8.86895 4.37965 9.01431 4.52486 9.19321 4.52486ZM6.04561 3.96145C6.14624 3.96145 6.22451 3.88014 6.22451 3.7814C6.22451 3.68265 6.14624 3.60134 6.04561 3.60134C5.94497 3.60134 5.8667 3.68265 5.8667 3.7814C5.86111 3.88014 5.94497 3.96145 6.04561 3.96145ZM6.19656 3.31092C6.29719 3.31092 6.37546 3.2296 6.37546 3.13086C6.37546 3.03212 6.29719 2.9508 6.19656 2.9508C6.09592 2.9508 6.01765 3.03212 6.01765 3.13086C6.01206 3.2296 6.09592 3.31092 6.19656 3.31092ZM3.95466 5.02438C4.05529 5.02438 4.13356 4.94306 4.13356 4.84432C4.13356 4.74558 4.05529 4.66426 3.95466 4.66426C3.85403 4.66426 3.77575 4.74558 3.77575 4.84432C3.77575 4.94306 3.85403 5.02438 3.95466 5.02438ZM4.10561 4.37384C4.20624 4.37384 4.28452 4.29253 4.28452 4.19379C4.28306 4.1455 4.26357 4.09971 4.23018 4.0661C4.19678 4.03249 4.15211 4.0137 4.10561 4.01373C4.00498 4.01373 3.92671 4.09504 3.92671 4.19379C3.92671 4.29253 4.00498 4.37384 4.10561 4.37384ZM4.37397 3.80463C4.4746 3.80463 4.55287 3.72331 4.55287 3.62457C4.55287 3.52583 4.4746 3.44451 4.37397 3.44451C4.27333 3.44451 4.19506 3.52583 4.19506 3.62457C4.19506 3.72331 4.27892 3.80463 4.37397 3.80463ZM4.80446 3.2993C4.90509 3.2993 4.98336 3.21799 4.98336 3.11925C4.98336 3.0205 4.90509 2.93919 4.80446 2.93919C4.70382 2.93919 4.62555 3.0205 4.62555 3.11925C4.62555 3.21799 4.70382 3.2993 4.80446 3.2993ZM5.32999 2.91595C5.43062 2.91595 5.50889 2.83464 5.50889 2.7359C5.50889 2.63716 5.43062 2.55584 5.32999 2.55584C5.22936 2.55584 5.15108 2.63716 5.15108 2.7359C5.15108 2.83464 5.23495 2.91595 5.32999 2.91595ZM5.90025 2.69524C6.00088 2.69524 6.07915 2.61392 6.07915 2.51518C6.07915 2.41644 6.00088 2.33512 5.90025 2.33512C5.79961 2.33512 5.72134 2.41644 5.72134 2.51518C5.72134 2.61392 5.79961 2.69524 5.90025 2.69524ZM6.4761 2.7417C6.57673 2.7417 6.655 2.66039 6.655 2.56165C6.655 2.46291 6.57673 2.38159 6.4761 2.38159C6.37546 2.38159 6.29719 2.46291 6.29719 2.56165C6.29719 2.66039 6.37546 2.7417 6.4761 2.7417ZM6.901 2.25381C7.00163 2.25381 7.0799 2.17249 7.0799 2.07375C7.0799 1.97501 7.00163 1.89369 6.901 1.89369C6.80036 1.89369 6.72209 1.97501 6.72209 2.07375C6.72209 2.17249 6.80036 2.25381 6.901 2.25381ZM7.45448 1.88207C7.55512 1.88207 7.63339 1.80076 7.63339 1.70201C7.63339 1.60327 7.55512 1.52196 7.45448 1.52196C7.35385 1.52196 7.27558 1.60327 7.27558 1.70201C7.27558 1.80076 7.35385 1.88207 7.45448 1.88207ZM8.03033 1.66716C8.13097 1.66716 8.20924 1.58585 8.20924 1.48711C8.20924 1.38837 8.13097 1.30705 8.03033 1.30705C7.9297 1.30705 7.85143 1.38837 7.85143 1.48711C7.85143 1.58585 7.9297 1.66716 8.03033 1.66716ZM9.19321 3.44451C9.29385 3.44451 9.37212 3.3632 9.37212 3.26445C9.37212 3.16571 9.29385 3.0844 9.19321 3.0844C9.09258 3.0844 9.01431 3.16571 9.01431 3.26445C9.01431 3.3632 9.09258 3.44451 9.19321 3.44451ZM9.19321 2.78817C9.29385 2.78817 9.37212 2.70686 9.37212 2.60811C9.37212 2.50937 9.29385 2.42806 9.19321 2.42806C9.09258 2.42806 9.01431 2.50937 9.01431 2.60811C9.01431 2.70686 9.09258 2.78817 9.19321 2.78817ZM9.19321 2.13183C9.29385 2.13183 9.37212 2.05051 9.37212 1.95177C9.37212 1.85303 9.29385 1.77171 9.19321 1.77171C9.09258 1.77171 9.01431 1.85303 9.01431 1.95177C9.01431 2.05051 9.09258 2.13183 9.19321 2.13183ZM8.62295 1.56261C8.72359 1.56261 8.80186 1.4813 8.80186 1.38256C8.8004 1.33428 8.78092 1.28848 8.74752 1.25487C8.71413 1.22126 8.66945 1.20248 8.62295 1.2025C8.52232 1.2025 8.43846 1.28382 8.43846 1.38256C8.43846 1.48711 8.52232 1.56261 8.62295 1.56261ZM13.5876 6.00598C13.7385 6.0873 13.8559 6.05245 14.0013 6.00018C13.7609 5.8782 13.6323 5.76784 13.7441 5.48323C13.7944 5.35545 13.8559 5.25671 13.9901 5.21605C13.9062 4.10666 13.5987 3.5781 12.5924 3.07278L12.5197 3.09601C12.5197 3.10763 12.5253 3.11925 12.5253 3.13667C12.5253 3.28769 12.4414 3.3632 12.3296 3.44451C12.5085 3.47936 12.6707 3.56649 12.6707 3.7814C12.6707 3.96145 12.5477 4.06019 12.3911 4.10666C12.4414 4.2054 12.4526 4.24606 12.4414 4.36223C12.6483 4.46097 12.693 4.58875 12.6371 4.80366C12.5589 5.10569 12.3799 5.13474 12.0948 5.05923C12.0795 5.1515 12.0948 5.24647 12.1383 5.32849C12.1817 5.41052 12.2508 5.47473 12.3341 5.51055C12.4174 5.54638 12.5099 5.55169 12.5965 5.52561C12.6831 5.49954 12.7585 5.44362 12.8104 5.36707C12.8104 5.33803 12.816 5.31479 12.8216 5.28575C12.8663 5.1115 13.0453 5.00114 13.2242 5.04761C13.4031 5.09408 13.5093 5.27413 13.459 5.44838C13.4422 5.50647 13.4142 5.55293 13.3751 5.59359C13.3695 5.76784 13.4422 5.92467 13.5876 6.00598ZM8.91367 1.94596C8.91367 1.92273 8.91926 1.8995 8.91926 1.87046C7.60543 1.77171 6.66059 2.67201 6.532 3.93822C6.64941 3.98469 6.69414 4.03696 6.74445 4.15313C6.97368 4.14151 7.07431 4.23444 7.13022 4.44354C7.20849 4.73977 7.06313 4.85594 6.778 4.93144C6.86186 5.12312 7.03517 5.25671 7.2588 5.19863C7.43771 5.15216 7.55512 4.99534 7.55512 4.80947C7.52183 4.75798 7.50429 4.69724 7.5048 4.63522C7.5048 4.45516 7.65016 4.30414 7.83465 4.30414C8.01356 4.30414 8.16451 4.44935 8.16451 4.63522C8.16451 4.67007 8.15892 4.70492 8.14774 4.73977C8.19805 4.91402 8.34341 5.03599 8.5335 5.03599C8.76272 5.03599 8.8969 4.86755 8.93044 4.65845C8.63972 4.65845 8.472 4.58294 8.472 4.2751C8.472 4.05439 8.55027 3.94403 8.7739 3.89756C8.82422 3.62457 8.96399 3.60715 9.18762 3.5723C9.41684 3.61295 9.55102 3.62457 9.60134 3.89756C9.82497 3.94403 9.90324 4.05439 9.90324 4.2751C9.90324 4.58294 9.73552 4.65845 9.4448 4.65845C9.47834 4.86755 9.61252 5.03599 9.84174 5.03599C10.0262 5.03599 10.1716 4.91402 10.2275 4.73977C10.2165 4.70609 10.2108 4.67078 10.2107 4.63522C10.2107 4.45516 10.3561 4.30414 10.5406 4.30414C10.7251 4.30414 10.8704 4.44935 10.8704 4.63522C10.8704 4.69911 10.8537 4.75719 10.8201 4.80947C10.8257 4.99534 10.9375 5.15216 11.1164 5.19863C11.3401 5.25671 11.5134 5.12312 11.5972 4.93144C11.3121 4.85594 11.1723 4.73977 11.245 4.44354C11.3009 4.23444 11.4016 4.14151 11.6308 4.15313C11.6867 4.03696 11.7258 3.98469 11.8432 3.93822C11.7146 2.67201 10.7754 1.77171 9.45598 1.87046C9.46157 1.89369 9.46157 1.91692 9.46157 1.94596C9.46157 2.00986 9.43921 2.06213 9.40566 2.11441V2.43386C9.43921 2.48614 9.46157 2.53841 9.46157 2.60231C9.46157 2.6662 9.43921 2.71847 9.40566 2.77075L9.41125 3.10182C9.43921 3.14829 9.46157 3.20056 9.46157 3.25865C9.46157 3.45032 9.3218 3.5026 9.18203 3.56649C9.04226 3.5026 8.90249 3.44451 8.90249 3.25865C8.90249 3.19475 8.92485 3.14248 8.9584 3.0902V2.77656C8.9235 2.72773 8.90397 2.6689 8.90249 2.60811C8.90249 2.54422 8.92485 2.49195 8.9584 2.43967V2.11441C8.92934 2.06339 8.9139 2.00524 8.91367 1.94596ZM4.64232 5.48323C4.74855 5.76784 4.62555 5.8782 4.38515 6.00018C4.53051 6.05245 4.64792 6.0873 4.79887 6.00598C4.94982 5.92467 5.01691 5.76784 5.00013 5.60521C4.96072 5.56503 4.93185 5.51504 4.91627 5.46C4.89763 5.37306 4.91229 5.28199 4.95717 5.2061C5.00205 5.1302 5.0736 5.07544 5.15667 5.05342C5.20455 5.04031 5.25466 5.03857 5.30327 5.04832C5.35189 5.05807 5.39776 5.07907 5.4375 5.10975C5.47724 5.14044 5.50982 5.18002 5.53283 5.22557C5.55583 5.27112 5.56867 5.32147 5.57039 5.37288C5.82198 5.70395 6.33074 5.5297 6.28601 5.06503C6.00088 5.13473 5.82198 5.10569 5.74371 4.80947C5.6878 4.60037 5.73252 4.46678 5.93938 4.36804C5.93379 4.25187 5.93938 4.21121 5.9897 4.11247C5.83316 4.066 5.71016 3.96726 5.71016 3.7872C5.71016 3.56649 5.87229 3.48517 6.0512 3.45032C5.94497 3.3632 5.86111 3.2935 5.86111 3.14248C5.86111 3.13086 5.86111 3.11344 5.78843 3.0902C4.76532 3.59553 4.48019 4.10666 4.39074 5.22767C4.53051 5.26252 4.59201 5.35545 4.64232 5.48323ZM13.3416 6.53454C12.0836 5.94209 10.6748 5.60521 9.19321 5.60521C7.71166 5.60521 6.30837 5.93628 5.05045 6.52873C4.96659 6.56939 4.87155 6.52873 4.83241 6.44742C4.79327 6.36029 4.83241 6.2964 4.87155 6.2267C4.61437 6.30802 4.42428 6.30802 4.20065 6.13377C3.78694 6.41257 3.31172 5.83754 3.6248 5.57617C3.47944 5.38449 3.47944 5.17539 3.69189 5.03599C3.65173 4.97862 3.63019 4.90945 3.63039 4.83851C3.63039 4.6236 3.79253 4.53648 3.97143 4.50163C3.86521 4.42031 3.78135 4.3448 3.78135 4.19379C3.78135 3.97307 3.95466 3.88014 4.13915 3.86271C4.08884 3.7814 4.0497 3.72331 4.0497 3.62457C4.0497 3.44451 4.19506 3.2993 4.37956 3.2993C4.43547 3.2993 4.49137 3.31673 4.54169 3.33415C4.50815 3.25865 4.48019 3.20056 4.48019 3.11925C4.48019 2.93919 4.62555 2.79398 4.81005 2.79398C4.8995 2.79398 4.94982 2.82883 5.02809 2.86368C5.01525 2.82229 5.00773 2.77933 5.00572 2.7359C5.00572 2.55584 5.15108 2.40482 5.33558 2.40482C5.43621 2.40482 5.49212 2.44548 5.57039 2.49776C5.60953 2.32351 5.70457 2.18411 5.90025 2.18411C6.04561 2.18411 6.12947 2.26542 6.20215 2.37578C6.28042 2.28866 6.3531 2.23057 6.4761 2.23057C6.52641 2.23057 6.57114 2.24219 6.62146 2.25381C6.59122 2.19666 6.57401 2.13308 6.57114 2.06794C6.57114 1.88788 6.7165 1.74267 6.8954 1.74267C7.00163 1.74267 7.05754 1.78914 7.1414 1.84141C7.13581 1.80076 7.11904 1.74848 7.11904 1.70201C7.11904 1.52196 7.2644 1.37675 7.44889 1.37675C7.55512 1.37675 7.61102 1.41741 7.68929 1.47549C7.72843 1.30124 7.82347 1.16184 8.02474 1.16184C8.14774 1.16184 8.21483 1.21412 8.2931 1.29543C8.3546 1.15603 8.44405 1.05729 8.61177 1.05729C8.6565 1.05729 8.69563 1.06891 8.74036 1.08633C8.84099 0.970166 8.93044 0.917891 9.0758 0.883041V0.534541H8.80186V0.325442H9.0758V0.0756836H9.29384V0.325442H9.56779V0.528733H9.29384V0.877232C9.43361 0.912082 9.52866 0.964357 9.62929 1.08052C9.67402 1.0631 9.71315 1.05148 9.75788 1.05148C9.9256 1.05148 10.0151 1.15603 10.0766 1.28962C10.1548 1.20831 10.2275 1.15603 10.3449 1.15603C10.5462 1.15603 10.6412 1.30124 10.6748 1.46968C10.753 1.4116 10.8145 1.37094 10.9208 1.37094C11.0997 1.37094 11.2506 1.51615 11.2506 1.69621C11.2506 1.74267 11.2394 1.79495 11.2338 1.83561C11.3177 1.78333 11.3736 1.74267 11.4798 1.74267C11.6587 1.74267 11.8097 1.88788 11.8097 2.06794C11.8097 2.13764 11.7873 2.18991 11.7594 2.25381C11.8041 2.24219 11.8544 2.23057 11.9047 2.23057C12.0277 2.23057 12.1004 2.28866 12.1787 2.37578C12.2514 2.25961 12.3352 2.18411 12.4806 2.18411C12.6819 2.18411 12.7769 2.32931 12.816 2.49776C12.8943 2.44548 12.9502 2.40482 13.0508 2.40482C13.2297 2.40482 13.3807 2.55003 13.3807 2.7359C13.3807 2.77655 13.3695 2.82302 13.3639 2.86368C13.4366 2.82302 13.4925 2.79398 13.5764 2.79398C13.7553 2.79398 13.9062 2.93919 13.9062 3.11925C13.9062 3.20056 13.8783 3.25865 13.8447 3.32835C13.9006 3.31092 13.951 3.2935 14.0125 3.2935C14.1914 3.2935 14.3423 3.4387 14.3423 3.61876C14.3423 3.7175 14.3032 3.77559 14.2529 3.8569C14.4429 3.87433 14.6163 3.96726 14.6163 4.18798C14.6163 4.33899 14.5324 4.4145 14.4262 4.49582C14.6051 4.53648 14.7672 4.61779 14.7672 4.8327C14.7672 4.91402 14.7448 4.96629 14.7057 5.03019C14.9237 5.16958 14.9182 5.37288 14.7728 5.56455C14.9629 5.72138 14.8623 5.96533 14.7057 6.09311C14.5436 6.22089 14.3759 6.24412 14.1969 6.12215C13.9733 6.2964 13.7832 6.2964 13.5261 6.21508L13.5652 6.2964C13.6155 6.44161 13.4869 6.58682 13.3416 6.53454ZM5.48094 6.86562L5.21258 6.76687L5.19022 6.72622C5.16786 6.73783 5.15108 6.73783 5.13431 6.74364C5.06163 6.74945 5.06722 6.66813 5.10077 6.65071C6.34192 6.06407 7.72284 5.7388 9.18762 5.7388C10.6524 5.7388 12.0333 6.06407 13.2745 6.65071C13.308 6.66813 13.3136 6.74945 13.2409 6.74364C13.2242 6.74364 13.2074 6.73783 13.185 6.72622L13.1627 6.76687L12.8943 6.86562L12.9726 7.17346L12.9502 7.22573C13.09 7.28962 12.9949 7.39417 12.9334 7.36513C11.7929 6.82496 10.5238 6.52873 9.18203 6.52873C7.84024 6.52873 6.57114 6.82496 5.43062 7.36513C5.40267 7.37675 5.36912 7.36513 5.35235 7.33028C5.33558 7.29543 5.35235 7.2722 5.37472 7.24897C5.3859 7.23735 5.40267 7.23154 5.41944 7.22573L5.39708 7.17346L5.48094 6.86562ZM6.96249 6.63909L7.53275 6.23832L6.8395 6.16281L6.26924 6.56358L6.96249 6.63909ZM12.5868 7.01082C12.7154 7.01082 12.8216 6.90627 12.8216 6.77849C12.8216 6.65071 12.7154 6.54616 12.5868 6.54616C12.4582 6.54616 12.352 6.65071 12.352 6.77849C12.3576 6.90627 12.4582 7.01082 12.5868 7.01082ZM8.03592 6.40676C8.16451 6.40676 8.27073 6.30221 8.27073 6.17443C8.27073 6.04664 8.16451 5.94209 8.03592 5.94209C7.90733 5.94209 7.80111 6.04664 7.80111 6.17443C7.80111 6.30221 7.90733 6.40676 8.03592 6.40676ZM5.79961 7.01082C5.9282 7.01082 6.03443 6.90627 6.03443 6.77849C6.03443 6.65071 5.93379 6.54616 5.79961 6.54616C5.67103 6.54616 5.5648 6.65071 5.5648 6.77849C5.5648 6.90627 5.67103 7.01082 5.79961 7.01082ZM10.3505 6.40676C10.4791 6.40676 10.5853 6.30221 10.5853 6.17443C10.5853 6.04664 10.4791 5.94209 10.3505 5.94209C10.2219 5.94209 10.1213 6.04664 10.1213 6.17443C10.1213 6.30221 10.2275 6.40676 10.3505 6.40676ZM11.4239 6.63909L12.1172 6.56358L11.5469 6.16281L10.8537 6.23832L11.4239 6.63909ZM9.92001 6.11053L9.19321 5.83754L8.46641 6.11053L9.19321 6.38352L9.92001 6.11053ZM1.66803 15.3806C1.66803 19.5336 5.05604 22.9314 9.19321 22.9314C13.336 22.9314 16.724 19.5336 16.724 15.3806C16.724 11.2161 13.336 7.8298 9.19321 7.8298C5.05045 7.8298 1.66803 11.2161 1.66803 15.3806ZM17.5402 15.3806C17.5402 19.9866 13.7944 23.7504 9.19321 23.7504C4.59201 23.7504 0.846191 19.9866 0.846191 15.3806C0.846191 10.7688 4.59201 7.00502 9.19321 7.00502C13.7944 6.99921 17.5402 10.763 17.5402 15.3806ZM8.09742 11.8201L9.18762 12.9353L10.2051 11.855C9.84733 11.762 9.50629 11.6923 9.13171 11.6807C8.78509 11.6633 8.43287 11.7446 8.09742 11.8201ZM10.9655 11.0418L12.5644 9.38643C14.633 10.5771 16.0251 12.8075 16.0251 15.3574C16.0251 17.0186 15.4381 18.5403 14.4485 19.7311L13.705 18.9818C14.5436 17.9537 15.0915 16.9314 15.0915 15.2935C15.0915 13.5452 14.1802 11.5936 12.7266 10.5829L11.765 11.5704C12.257 11.9421 12.6483 12.3138 12.9782 12.8366L12.2458 13.4697C11.9551 12.9585 11.5805 12.5984 11.0997 12.2674L9.18762 14.2887L7.2029 12.2383C6.1742 12.9585 5.57039 13.9866 5.54244 15.2645C5.50889 16.9663 6.60468 18.1454 8.14215 18.6623V15.247H10.4903V15.9498H9.05344V16.8617H10.4735V17.6633H9.05344V18.8133C10.1045 18.8656 11.2283 18.2557 11.9103 17.5007L12.6148 18.2151C11.7146 19.2606 10.4176 19.7891 9.05903 19.8008V20.8521H8.14774V19.6904C6.07356 19.1735 4.56964 17.3496 4.5976 15.1715C4.61437 13.6788 5.40826 12.4532 6.55996 11.582L5.58716 10.5713C4.07766 11.8085 3.26699 13.3187 3.19991 15.2819C3.14959 17.0186 4.04411 18.4126 4.60878 18.9992L3.95466 19.6672C2.94273 18.4823 2.34452 17.0186 2.34452 15.3516C2.34452 12.8191 3.73662 10.5888 5.78843 9.39805L7.40976 11.0941C7.9856 10.8734 8.58382 10.7572 9.1988 10.7572C9.81379 10.7688 10.3449 10.8792 10.9152 11.0941L10.9655 11.0418Z" fill="#FCBF00"/>
<path id="Vector_5" d="M17.7861 15.3804C17.7861 20.1258 13.9285 24 9.19311 24C4.45214 24 0.600098 20.1258 0.600098 15.3804C0.600098 10.6292 4.45773 6.74927 9.19311 6.74927C13.9341 6.74927 17.7861 10.6292 17.7861 15.3804ZM17.5401 15.3804C17.5401 10.7686 13.7943 7.00484 9.19311 7.00484C4.59191 7.00484 0.846092 10.7686 0.846092 15.3804C0.846092 19.9864 4.59191 23.7502 9.19311 23.7502C13.7943 23.7502 17.5401 19.9864 17.5401 15.3804ZM1.91393 15.3804C1.91393 19.394 5.19012 22.6815 9.19311 22.6815C13.1961 22.6815 16.4723 19.3998 16.4723 15.3804C16.4723 11.3553 13.1961 8.08519 9.19311 8.08519C5.19012 8.07938 1.91393 11.3553 1.91393 15.3804ZM1.66793 15.3804C1.66793 11.2159 5.05594 7.82962 9.19311 7.82962C13.3359 7.82962 16.7239 11.2159 16.7239 15.3804C16.7239 19.5334 13.3359 22.9313 9.19311 22.9313C5.05035 22.9255 1.66793 19.5334 1.66793 15.3804ZM10.0765 13.7135L14.1465 17.9245C14.6106 17.1578 14.8454 16.3737 14.8454 15.2875C14.8454 13.394 13.7831 11.6689 12.76 10.9022L12.145 11.5353C12.6314 11.9245 12.9837 12.3485 13.3023 12.8829L12.173 13.8645C11.9046 13.3301 11.6195 12.9526 11.1331 12.5983L10.0765 13.7135ZM15.2367 19.0513C14.5043 20.3001 13.3862 21.2875 12.0612 21.88L11.4015 21.2062L10.1715 19.9458C9.89196 20.0097 9.60124 20.0445 9.30493 20.0503V21.1075H7.89605V19.8877C5.78274 19.3127 4.32355 17.3262 4.34591 15.1713C4.3515 14.8112 4.40182 14.4627 4.48568 14.1258L3.79243 13.4172C3.58557 13.9981 3.46816 14.6254 3.4458 15.2933C3.40666 16.6292 3.9881 18.0755 4.95531 18.999L3.93779 20.0387C2.74136 18.6912 2.08724 17.1752 2.08724 15.3514C2.08724 12.6912 3.54084 10.3679 5.82747 9.09003L7.46556 10.8093C8.00787 10.6118 8.62285 10.5131 9.18752 10.5131C9.79692 10.5189 10.3504 10.6292 10.848 10.8093L12.514 9.0726C14.8174 10.3562 16.271 12.6796 16.271 15.3572C16.2766 16.7164 15.9132 17.9477 15.2367 19.0513ZM7.89046 17.6167L5.78833 15.4676C5.83865 16.6699 6.57104 17.8083 7.89046 18.3137V17.6167ZM10.9654 11.0416L10.9095 11.0997C10.3617 10.8804 9.78015 10.7662 9.19311 10.7628C8.57813 10.7628 7.97991 10.879 7.40407 11.0997L5.78274 9.40368C3.73093 10.5886 2.33883 12.819 2.33883 15.3514C2.33883 17.0242 2.93704 18.4821 3.94897 19.667L4.60309 18.999C4.03842 18.4124 3.1439 17.0184 3.19422 15.2817C3.2613 13.3185 4.07197 11.8083 5.58147 10.5712L6.55427 11.5818C5.40257 12.453 4.60868 13.6786 4.59191 15.1713C4.56395 17.3495 6.06228 19.1733 8.14205 19.6902V20.8519H9.05334V19.8006C10.4175 19.789 11.7145 19.2604 12.6091 18.2149L11.9046 17.5005C11.2226 18.2556 10.1044 18.8712 9.04775 18.8132V17.6631H10.4678V16.8616H9.04775V15.9497H10.4846V15.2469H8.13646V18.6621C6.59899 18.1452 5.49761 16.9661 5.53675 15.2643C5.5647 13.9864 6.1685 12.9584 7.19721 12.2381L9.18193 14.2885L11.094 12.2672C11.5804 12.5983 11.9494 12.9584 12.2401 13.4695L12.9725 12.8364C12.6426 12.3137 12.2513 11.9419 11.7593 11.5702L12.7209 10.5828C14.1745 11.5934 15.0858 13.545 15.0858 15.2933C15.0858 16.9255 14.5379 17.9535 13.6993 18.9816L14.4428 19.7309C15.4324 18.5402 16.0194 17.0242 16.0194 15.3572C16.0194 12.8074 14.6273 10.577 12.5588 9.38625L10.9654 11.0416ZM8.09732 11.8199C8.43277 11.7444 8.78499 11.6631 9.13161 11.6747C9.5062 11.6864 9.84723 11.7561 10.205 11.849L9.18752 12.9293L8.09732 11.8199ZM8.5949 11.971L9.18193 12.575L9.72983 11.9942C9.53415 11.9535 9.33288 11.9361 9.12043 11.9303C8.99184 11.9245 8.79617 11.9419 8.5949 11.971ZM12.9669 6.90029L13.0172 7.10358L13.0396 7.17328L13.0787 7.15005L13.2688 7.0455L13.2185 6.84802L13.2073 6.80736L12.9669 6.90029ZM13.3415 6.53437C13.4868 6.58664 13.6154 6.43562 13.5483 6.30784L13.5092 6.22652C13.7664 6.30784 13.9564 6.30784 14.1801 6.13359C14.359 6.25557 14.5211 6.23233 14.6888 6.10455C14.851 5.97677 14.946 5.73282 14.7559 5.57599C14.9013 5.38432 14.9069 5.17522 14.6888 5.04163C14.728 4.97773 14.7503 4.92546 14.7503 4.84414C14.7503 4.62924 14.5882 4.54211 14.4093 4.50726C14.5155 4.42014 14.5994 4.35044 14.5994 4.19942C14.5994 3.9787 14.4261 3.88577 14.236 3.86834C14.2863 3.78703 14.3254 3.73475 14.3254 3.6302C14.3254 3.45015 14.1801 3.30494 13.9956 3.30494C13.9397 3.30494 13.8838 3.32236 13.8279 3.33979C13.8614 3.26428 13.8894 3.212 13.8894 3.13069C13.8894 2.95063 13.744 2.80542 13.5595 2.80542C13.4701 2.80542 13.4197 2.83446 13.3471 2.87512C13.3526 2.83446 13.3638 2.788 13.3638 2.74734C13.3631 2.7031 13.354 2.65944 13.337 2.61885C13.32 2.57827 13.2955 2.54156 13.2649 2.51081C13.2343 2.48007 13.1981 2.45589 13.1585 2.43967C13.1189 2.42345 13.0766 2.41549 13.034 2.41626C12.9333 2.41626 12.8774 2.45692 12.7992 2.5092C12.76 2.33495 12.665 2.19555 12.4637 2.19555C12.3184 2.19555 12.2345 2.27686 12.1618 2.38722C12.0835 2.3001 12.0109 2.24201 11.8879 2.24201C11.8375 2.24201 11.7872 2.25363 11.7425 2.26525C11.7705 2.20136 11.7928 2.14908 11.7928 2.07938C11.7928 1.89932 11.6475 1.75411 11.463 1.75411C11.3567 1.75411 11.3008 1.79477 11.217 1.84705C11.2226 1.80639 11.2337 1.75411 11.2337 1.70765C11.2337 1.52759 11.0884 1.38238 10.9039 1.38238C10.7977 1.38238 10.7418 1.42304 10.6579 1.48112C10.6188 1.30687 10.5237 1.16747 10.328 1.16747C10.205 1.16747 10.138 1.21975 10.0597 1.30106C9.99259 1.16167 9.90873 1.06292 9.74101 1.06292C9.69069 1.06292 9.65715 1.07454 9.61242 1.09197C9.51179 0.975799 9.42233 0.923524 9.27697 0.888674V0.540174H9.55092V0.325266H9.27697V0.0755082H9.05893V0.325266H8.78499V0.528558H9.05893V0.877057C8.91916 0.911907 8.82971 0.964182 8.72349 1.08035C8.68274 1.06243 8.63913 1.05258 8.5949 1.05131C8.42718 1.05131 8.33772 1.15586 8.27623 1.28945C8.19795 1.20813 8.12527 1.15586 8.00787 1.15586C7.8066 1.15586 7.71156 1.30106 7.67242 1.46951C7.59415 1.41142 7.53265 1.37076 7.43202 1.37076C7.25311 1.37076 7.10216 1.51597 7.10216 1.69603C7.10216 1.7425 7.11335 1.79477 7.12453 1.83543C7.04067 1.78316 6.97917 1.73669 6.87853 1.73669C6.83668 1.73592 6.7951 1.74372 6.75615 1.75965C6.7172 1.77559 6.68166 1.79933 6.65154 1.82954C6.62143 1.85974 6.59734 1.89581 6.58065 1.93569C6.56396 1.97557 6.555 2.01848 6.55427 2.06196C6.55427 2.13166 6.57663 2.18393 6.60458 2.24782C6.55427 2.23621 6.50954 2.22459 6.45922 2.22459C6.33623 2.22459 6.26355 2.28267 6.18528 2.3698C6.1126 2.25363 6.02874 2.17812 5.88338 2.17812C5.68211 2.17812 5.58706 2.32333 5.55352 2.49177C5.49202 2.4453 5.43052 2.40465 5.32989 2.40465C5.2873 2.40388 5.24499 2.41183 5.20537 2.42805C5.16574 2.44428 5.12958 2.46845 5.09895 2.4992C5.06832 2.52994 5.04382 2.56665 5.02684 2.60724C5.00987 2.64782 5.00076 2.69148 5.00003 2.73572C5.00003 2.77638 5.01122 2.82285 5.01681 2.8635C4.95419 2.81894 4.88025 2.79469 4.80436 2.7938C4.62545 2.7938 4.4745 2.93901 4.4745 3.11907C4.4745 3.20039 4.50246 3.25847 4.536 3.32817C4.48568 3.31655 4.43537 3.29913 4.37387 3.29913C4.19496 3.29913 4.04401 3.44434 4.04401 3.62439C4.04401 3.72314 4.08315 3.78122 4.13346 3.86254C3.94897 3.87996 3.78125 3.97289 3.78125 4.19361C3.78125 4.34463 3.86511 4.42014 3.97133 4.50145C3.79243 4.54211 3.6303 4.62343 3.6303 4.83834C3.6303 4.91965 3.65266 4.97193 3.69179 5.03582C3.47934 5.17522 3.47934 5.38432 3.6247 5.57599C3.31162 5.83737 3.78684 6.4182 4.20055 6.13359C4.42418 6.30784 4.61427 6.30784 4.87145 6.22652C4.8379 6.30203 4.79318 6.36592 4.83231 6.44724C4.87145 6.53437 4.96649 6.56922 5.05035 6.52856C6.30827 5.93611 7.71156 5.60503 9.19311 5.60503C10.6803 5.61084 12.0835 5.94192 13.3415 6.53437ZM5.41934 6.90029L5.24603 6.8364L5.17894 6.81317L5.16776 6.85382L5.11744 7.0455L5.30753 7.15005L5.34666 7.17328L5.36343 7.09777L5.41934 6.90029ZM5.30753 7.21394L5.05594 7.07454L5.11744 6.82478C5.0224 6.81317 4.97767 6.70281 5.0224 6.6273C4.97087 6.6351 4.91828 6.62583 4.87211 6.60081C4.82594 6.57578 4.78854 6.53627 4.76522 6.4879C4.74286 6.44143 4.73727 6.39497 4.74286 6.3485C4.55277 6.38916 4.3515 6.34269 4.20055 6.23233C3.75888 6.49952 3.23894 5.8606 3.52407 5.56438C3.39548 5.3727 3.42903 5.14037 3.59116 5.01258C3.56384 4.95899 3.55035 4.89896 3.55202 4.83834C3.55202 4.66989 3.65825 4.52468 3.80361 4.46079C3.73887 4.38808 3.70293 4.29266 3.70298 4.19361C3.70298 4.00194 3.83715 3.84511 4.01047 3.79864C3.98314 3.74505 3.96966 3.68502 3.97133 3.62439C3.97133 3.39787 4.15024 3.21781 4.37387 3.21781H4.413C4.39911 3.15693 4.39879 3.09354 4.41207 3.03251C4.42536 2.97148 4.45189 2.9144 4.48965 2.86565C4.52741 2.8169 4.57539 2.77775 4.62993 2.75121C4.68447 2.72466 4.74413 2.71142 4.80436 2.71249C4.84908 2.71249 4.88822 2.7183 4.92735 2.72991C4.92735 2.5092 5.11185 2.32914 5.32989 2.32914C5.39698 2.32914 5.45848 2.34656 5.51438 2.37561C5.57029 2.21878 5.72124 2.10842 5.89456 2.10842C6.01755 2.10842 6.13496 2.16651 6.20764 2.25944C6.28032 2.19555 6.36977 2.1607 6.476 2.1607H6.50395C6.49836 2.13166 6.49277 2.10261 6.49277 2.07357C6.49277 1.84705 6.67167 1.66699 6.89531 1.66699C6.95121 1.66699 7.00153 1.67861 7.04626 1.69603C7.05185 1.47531 7.23075 1.29526 7.44879 1.29526C7.52147 1.29526 7.58856 1.31268 7.64447 1.34753C7.70038 1.19071 7.85133 1.08035 8.02464 1.08035C8.11968 1.08035 8.20355 1.10939 8.27063 1.16747C8.34331 1.05712 8.46631 0.981607 8.61167 0.981607C8.65081 0.981607 8.68435 0.987415 8.7179 0.999032C8.78499 0.929332 8.86326 0.877057 8.9583 0.836399L8.99743 0.818974V0.609874H8.72349V0.249758H8.99743V0H9.37202V0.249758H9.64596V0.609874H9.37202V0.818974L9.41115 0.836399C9.5006 0.871249 9.58447 0.923524 9.65156 0.999032C9.6851 0.987415 9.71864 0.981607 9.75778 0.981607C9.90314 0.981607 10.0261 1.05712 10.0988 1.16747C10.1659 1.1152 10.2554 1.08035 10.3448 1.08035C10.5181 1.08035 10.6691 1.19071 10.725 1.34753C10.7809 1.31268 10.848 1.29526 10.9207 1.29526C11.1443 1.29526 11.3232 1.47531 11.3232 1.69603C11.3679 1.67861 11.4182 1.66699 11.4741 1.66699C11.6978 1.66699 11.8767 1.84705 11.8767 2.07357C11.8767 2.10261 11.8767 2.13166 11.8655 2.1607H11.8935C11.9909 2.16237 12.0851 2.19704 12.1618 2.25944C12.2345 2.16651 12.3463 2.10842 12.4749 2.10842C12.6482 2.10842 12.7992 2.21878 12.8551 2.37561C12.911 2.34656 12.9725 2.32914 13.0396 2.32914C13.2632 2.32914 13.4421 2.5092 13.4421 2.72991C13.4821 2.71804 13.5235 2.71217 13.5651 2.71249C13.7887 2.71249 13.9676 2.89255 13.9676 3.11907C13.9676 3.15392 13.962 3.18877 13.9564 3.22362H13.9956C14.2192 3.22362 14.3981 3.40368 14.3981 3.6302C14.3981 3.69409 14.3813 3.75218 14.359 3.80445C14.5379 3.84511 14.6665 4.00774 14.6665 4.19942C14.6665 4.30397 14.6273 4.3969 14.5603 4.47241C14.7112 4.53049 14.8174 4.6757 14.8174 4.84995C14.8174 4.91384 14.8007 4.97193 14.7783 5.0242C14.9404 5.15198 14.974 5.38432 14.8454 5.57599C15.0243 5.76186 14.8677 6.05808 14.7168 6.18006C14.5714 6.29622 14.3646 6.36592 14.1633 6.24395C14.0068 6.35431 13.8111 6.40077 13.621 6.36012C13.6434 6.52275 13.498 6.66215 13.3415 6.63892C13.3862 6.71442 13.3415 6.82478 13.2464 6.8364L13.3079 7.08616L13.0563 7.22556C13.0899 7.26621 13.0955 7.3243 13.0731 7.37657C13.0396 7.44627 12.9613 7.48693 12.8886 7.45208C11.7593 6.91772 10.5014 6.62149 9.16516 6.62149C7.83455 6.62149 6.57663 6.91772 5.4473 7.45208C5.37462 7.48693 5.29634 7.44627 5.2628 7.37657C5.26839 7.31268 5.27398 7.2546 5.30753 7.21394ZM5.48084 6.86544L5.40257 7.17328L5.42493 7.22556C5.41375 7.23136 5.39698 7.23717 5.38021 7.24879C5.35784 7.26621 5.34107 7.28945 5.35784 7.33011C5.37462 7.36496 5.40816 7.37657 5.43611 7.36496C6.57663 6.82478 7.84574 6.52856 9.18752 6.52856C10.5349 6.52856 11.7984 6.82478 12.9389 7.36496C12.9948 7.394 13.0955 7.28945 12.9557 7.22556L12.9781 7.17328L12.8998 6.86544L13.1681 6.7667L13.1905 6.72604C13.2129 6.73766 13.2296 6.73766 13.2464 6.74347C13.3191 6.74927 13.3135 6.66796 13.28 6.65053C11.9963 6.04574 10.6026 5.73475 9.19311 5.73863C7.72833 5.73863 6.34741 6.06389 5.10626 6.65053C5.07271 6.66796 5.06712 6.74927 5.1398 6.74347C5.15658 6.74347 5.17335 6.73766 5.19571 6.72604L5.21248 6.7667L5.48084 6.86544ZM11.6195 3.2759C11.3008 2.46854 10.5517 1.89351 9.55651 1.94579C9.55651 2.01549 9.53415 2.07938 9.5006 2.13746V2.41045C9.53415 2.46854 9.55651 2.53243 9.55651 2.60213C9.55651 2.67183 9.53415 2.74153 9.5006 2.7938V2.96805C10.1827 2.87512 10.9877 2.94482 11.6195 3.2759ZM9.49501 3.0726C9.54246 3.14651 9.56079 3.23652 9.54623 3.32407C9.53167 3.41161 9.48532 3.49 9.41674 3.54308C9.53974 3.58374 9.63478 3.67667 9.66833 3.8393C9.91432 3.89739 9.98141 4.08325 9.98141 4.28074C9.98141 4.51888 9.88637 4.72217 9.53974 4.73959C9.57887 4.87319 9.70187 4.96612 9.84723 4.96612C9.987 4.96612 10.11 4.87319 10.1491 4.7454C10.138 4.71055 10.138 4.6757 10.138 4.64085C10.138 4.41433 10.3224 4.23427 10.5461 4.23427C10.7697 4.23427 10.9542 4.41433 10.9542 4.64085C10.9542 4.71055 10.9374 4.77444 10.9039 4.83253C10.9095 4.97193 11.0045 5.08809 11.1443 5.12875C11.2841 5.1636 11.4238 5.10552 11.4965 4.98354C11.1667 4.87899 11.1219 4.65828 11.1834 4.42594C11.2337 4.23427 11.3456 4.07164 11.5916 4.07744C11.6363 3.98451 11.6978 3.92643 11.7705 3.89158C11.7481 3.6999 11.709 3.51985 11.6419 3.3456C10.9933 2.98548 10.1491 2.92159 9.49501 3.02033V3.0726ZM8.91357 1.94579C8.91357 2.00968 8.93594 2.06196 8.96948 2.11423V2.43369C8.93594 2.48596 8.91357 2.53824 8.91357 2.60213C8.91357 2.66602 8.93594 2.7183 8.96948 2.77057V3.09584C8.93594 3.14811 8.91357 3.20039 8.91357 3.26428C8.91357 3.45595 9.05334 3.50823 9.19311 3.57212C9.33288 3.50823 9.47265 3.45015 9.47265 3.26428C9.47265 3.2062 9.45588 3.14811 9.42233 3.10745L9.41674 2.77638C9.45029 2.7241 9.47265 2.67183 9.47265 2.60794C9.47265 2.54405 9.45029 2.49177 9.41674 2.4395V2.11423C9.45029 2.06196 9.47265 2.00968 9.47265 1.94579C9.47265 1.92256 9.46706 1.89932 9.46706 1.87028C10.7809 1.77154 11.7257 2.67183 11.8543 3.93804C11.7369 3.98451 11.6922 4.03679 11.6419 4.15295C11.4126 4.14134 11.312 4.23427 11.2561 4.44337C11.1778 4.73959 11.3232 4.85576 11.6083 4.93127C11.5245 5.12294 11.3511 5.25653 11.1275 5.19845C11.0429 5.17825 10.9674 5.12869 10.9136 5.05794C10.8597 4.9872 10.8307 4.89949 10.8312 4.80929C10.8645 4.7578 10.882 4.69707 10.8815 4.63504C10.8808 4.5908 10.8717 4.54714 10.8547 4.50656C10.8377 4.46597 10.8132 4.42926 10.7826 4.39852C10.752 4.36777 10.7158 4.3436 10.6762 4.32738C10.6366 4.31115 10.5943 4.3032 10.5517 4.30397C10.5091 4.3032 10.4668 4.31115 10.4271 4.32738C10.3875 4.3436 10.3514 4.36777 10.3207 4.39852C10.2901 4.42926 10.2656 4.46597 10.2486 4.50656C10.2317 4.54714 10.2225 4.5908 10.2218 4.63504C10.2218 4.66989 10.2274 4.70474 10.2386 4.73959C10.1883 4.91384 10.0373 5.03582 9.85282 5.03582C9.6236 5.03582 9.48942 4.86738 9.45588 4.65828C9.7466 4.65828 9.91432 4.58277 9.91432 4.27493C9.91432 4.05421 9.83605 3.94385 9.61242 3.89739C9.5621 3.6244 9.42233 3.60697 9.1987 3.57212C8.96948 3.61278 8.8353 3.6244 8.78499 3.89739C8.56135 3.94385 8.48308 4.05421 8.48308 4.27493C8.48308 4.58277 8.65081 4.65828 8.94153 4.65828C8.90798 4.86738 8.7738 5.03582 8.54458 5.03582C8.4582 5.03598 8.37406 5.00727 8.30459 4.95393C8.23512 4.90058 8.18401 4.82544 8.15882 4.73959C8.17 4.70474 8.17559 4.66989 8.17559 4.63504C8.17486 4.5908 8.16575 4.54714 8.14878 4.50656C8.13181 4.46597 8.10731 4.42926 8.07668 4.39852C8.04605 4.36777 8.00988 4.3436 7.97026 4.32738C7.93063 4.31115 7.88832 4.3032 7.84574 4.30397C7.66124 4.30397 7.51588 4.44918 7.51588 4.63504C7.51588 4.69894 7.53265 4.75702 7.5662 4.80929C7.56061 4.99516 7.44879 5.15198 7.26989 5.19845C7.04626 5.25653 6.87294 5.12294 6.78908 4.93127C7.07421 4.85576 7.21398 4.73959 7.1413 4.44337C7.08539 4.23427 6.98476 4.14134 6.75554 4.15295C6.69963 4.03679 6.66049 3.98451 6.54309 3.93804C6.67167 2.67183 7.61092 1.77154 8.93035 1.87028C8.91916 1.89932 8.91357 1.92256 8.91357 1.94579ZM6.73876 3.3514C6.67726 3.52565 6.63254 3.70571 6.61577 3.89739C6.68845 3.93224 6.74994 3.99032 6.79467 4.08325C7.04626 4.07744 7.15807 4.24008 7.20839 4.43175C7.26989 4.66409 7.22516 4.8848 6.89531 4.98935C6.96799 5.10552 7.10775 5.16941 7.24752 5.13456C7.38729 5.09971 7.48234 4.97774 7.48793 4.83834C7.45446 4.78049 7.43705 4.71415 7.43761 4.64666C7.43761 4.42014 7.62211 4.24008 7.84574 4.24008C8.06937 4.24008 8.25386 4.42014 8.25386 4.64666C8.25386 4.68151 8.24827 4.71636 8.24268 4.75121C8.28741 4.87899 8.40481 4.97193 8.54458 4.97193C8.68994 4.97193 8.80735 4.87899 8.85207 4.7454C8.50545 4.72798 8.4104 4.52469 8.4104 4.28654C8.4104 4.08325 8.47749 3.90319 8.72349 3.84511C8.76262 3.68248 8.85767 3.59535 8.97507 3.54889C8.93421 3.51566 8.90097 3.4734 8.87777 3.42518C8.85456 3.37696 8.84196 3.32399 8.84089 3.27009C8.84089 3.20039 8.86326 3.13069 8.8968 3.07841V3.02033C8.2315 2.9274 7.38729 2.99129 6.73876 3.3514ZM8.8353 1.94579C7.83455 1.88771 7.09098 2.46854 6.76672 3.2759C7.39288 2.95063 8.20355 2.86931 8.88562 2.96805V2.7938C8.85207 2.73572 8.82971 2.67183 8.82971 2.60213C8.82971 2.53243 8.85207 2.46273 8.88562 2.41045V2.13746C8.85396 2.07883 8.83667 2.013 8.8353 1.94579ZM12.9054 5.63988L12.9277 5.62246C12.9725 5.65731 13.0116 5.68054 13.0675 5.69797C13.0899 5.70378 13.1178 5.70378 13.1402 5.70958C13.1681 5.85479 13.2185 5.97096 13.3191 6.07551L13.2744 6.1394C13.034 6.03485 12.7936 5.93611 12.542 5.84898L12.5532 5.77348C12.6762 5.76186 12.8047 5.71539 12.9054 5.63988ZM12.9277 5.71539C12.8607 5.76186 12.7824 5.79671 12.7041 5.81994C12.8607 5.87803 13.0172 5.94192 13.1681 6.00581C13.1239 5.93667 13.0918 5.85999 13.0731 5.77928L13.0507 5.77348C13.006 5.76186 12.9669 5.73863 12.9277 5.71539ZM9.15398 4.73379H9.23225C9.2602 4.94288 9.39438 5.12294 9.57887 5.21007L9.5621 5.28558C9.43911 5.27977 9.31611 5.27977 9.19311 5.27977C9.07012 5.27977 8.94712 5.27977 8.82412 5.28558L8.80735 5.21007C8.99184 5.11713 9.12602 4.94288 9.15398 4.73379ZM9.19311 4.89061C9.14839 5.01258 9.07011 5.11713 8.96389 5.19845C9.04216 5.19845 9.11484 5.19264 9.19311 5.19264C9.27138 5.19264 9.34406 5.19264 9.42233 5.19845C9.32038 5.11942 9.24113 5.01298 9.19311 4.89061ZM5.11744 6.13359L5.07271 6.0697C5.17335 5.95934 5.22366 5.84898 5.25162 5.70378C5.34666 5.69216 5.38021 5.68054 5.45848 5.62246C5.57588 5.70958 5.69329 5.76186 5.83865 5.76767L5.84983 5.84317C5.59825 5.9303 5.35784 6.02904 5.11744 6.13359ZM5.22366 6.00581C5.37462 5.94192 5.53116 5.87803 5.6877 5.81994C5.60943 5.79671 5.53116 5.76186 5.46407 5.71539C5.43052 5.73863 5.3858 5.75605 5.34666 5.76767L5.3243 5.77348C5.29634 5.85479 5.26839 5.93611 5.22366 6.00581ZM7.04067 5.43078V5.50629C6.80026 5.55857 6.57104 5.61665 6.33623 5.68635L6.30268 5.61665C6.45363 5.48306 6.54309 5.27977 6.51513 5.07067L6.58781 5.05324C6.66608 5.25073 6.8394 5.39013 7.04067 5.43078ZM6.88412 5.45983C6.76672 5.40755 6.66608 5.32623 6.5934 5.22168C6.57663 5.34947 6.53191 5.47144 6.45363 5.57018C6.5934 5.52953 6.73876 5.49468 6.88412 5.45983ZM7.53824 5.40755L7.51029 5.33785C7.65006 5.24492 7.73951 5.12294 7.79542 4.96612H7.84015C7.88487 4.96612 7.91842 4.9545 7.96314 4.94288C8.05819 5.08228 8.17 5.18103 8.33213 5.22749L8.32654 5.303C8.05819 5.33204 7.79542 5.36689 7.53824 5.40755ZM7.85133 5.04743C7.81219 5.14618 7.75069 5.2333 7.67242 5.30881C7.83455 5.28558 8.00228 5.26234 8.17 5.24492C8.07496 5.19264 7.99669 5.12294 7.93519 5.03582C7.90723 5.04163 7.87928 5.04743 7.85133 5.04743ZM10.0597 5.30881L10.0541 5.2333C10.2162 5.18103 10.328 5.08228 10.4231 4.94869C10.4678 4.96031 10.5014 4.97193 10.5461 4.97193H10.5908C10.6467 5.12875 10.7362 5.25073 10.8759 5.34366L10.848 5.41336C10.5908 5.36689 10.328 5.33204 10.0597 5.30881ZM10.5349 5.04743C10.5085 5.04684 10.4822 5.04294 10.4566 5.03582C10.3951 5.12294 10.3113 5.19264 10.2162 5.24492C10.3839 5.26234 10.5517 5.27977 10.7138 5.30881C10.6411 5.23911 10.5852 5.15779 10.5405 5.06486L10.5349 5.04743ZM12.0891 5.61665L12.0556 5.68635C11.8264 5.61665 11.5916 5.55857 11.3511 5.50629V5.43078C11.5468 5.39013 11.7201 5.25073 11.7984 5.05905L11.8711 5.07648C11.8487 5.28558 11.9326 5.48887 12.0891 5.61665ZM11.9382 5.57018C11.8599 5.47144 11.8096 5.34947 11.7984 5.22168C11.7257 5.32623 11.6195 5.40755 11.5077 5.45983C11.6475 5.49468 11.7928 5.52953 11.9382 5.57018ZM12.05 4.24008C11.8767 4.19361 11.6978 4.29816 11.6531 4.47241C11.6083 4.64666 11.7145 4.82672 11.8879 4.86738C12.0612 4.91384 12.2401 4.80929 12.2848 4.63504C12.3295 4.46079 12.2233 4.28074 12.05 4.24008ZM12.0612 4.1878C12.2624 4.24008 12.3854 4.44337 12.3351 4.64666C12.2848 4.84995 12.0779 4.97193 11.8767 4.91965C11.8295 4.90859 11.7849 4.88787 11.7455 4.85872C11.7061 4.82957 11.6727 4.79256 11.6472 4.74985C11.6217 4.70715 11.6046 4.65959 11.597 4.60996C11.5894 4.56034 11.5913 4.50963 11.6027 4.46079C11.6531 4.2575 11.8599 4.13553 12.0612 4.1878ZM12.3463 3.60116C12.2457 3.60116 12.1674 3.68248 12.1674 3.78122C12.1674 3.87996 12.2513 3.96128 12.3463 3.96128C12.4469 3.96128 12.5252 3.87996 12.5252 3.78122C12.5252 3.67667 12.4469 3.60116 12.3463 3.60116ZM12.3463 3.54889C12.4749 3.54889 12.5811 3.65344 12.5811 3.78122C12.5811 3.909 12.4749 4.01355 12.3463 4.01355C12.2177 4.01355 12.1115 3.909 12.1115 3.78122C12.1115 3.65344 12.2177 3.54889 12.3463 3.54889ZM12.1954 2.95063C12.0947 2.95063 12.0165 3.03195 12.0165 3.13069C12.0165 3.22943 12.1003 3.31075 12.1954 3.31075C12.296 3.31075 12.3743 3.22943 12.3743 3.13069C12.3743 3.03195 12.296 2.95063 12.1954 2.95063ZM12.1954 2.89835C12.3239 2.89835 12.4302 3.0029 12.4302 3.13069C12.4302 3.25847 12.3239 3.36302 12.1954 3.36302C12.0668 3.36302 11.9605 3.25847 11.9605 3.13069C11.9605 3.0029 12.0668 2.89835 12.1954 2.89835ZM14.4317 4.65828C14.331 4.65828 14.2528 4.73959 14.2528 4.83834C14.2528 4.93708 14.331 5.01839 14.4317 5.01839C14.5323 5.01839 14.6106 4.93708 14.6106 4.83834C14.6106 4.73959 14.5323 4.65828 14.4317 4.65828ZM14.4317 4.606C14.5603 4.606 14.6665 4.71055 14.6665 4.83834C14.6665 4.96612 14.5603 5.07067 14.4317 5.07067C14.3031 5.07067 14.1969 4.96612 14.1969 4.83834C14.1969 4.71055 14.3031 4.606 14.4317 4.606ZM14.2807 4.01355C14.1801 4.01355 14.1018 4.09487 14.1018 4.19361C14.1018 4.29235 14.1801 4.37367 14.2807 4.37367C14.3813 4.37367 14.4596 4.29235 14.4596 4.19361C14.4596 4.09487 14.3813 4.01355 14.2807 4.01355ZM14.2807 3.96128C14.4093 3.96128 14.5155 4.06583 14.5155 4.19361C14.5155 4.32139 14.4093 4.42594 14.2807 4.42594C14.1521 4.42594 14.0459 4.32139 14.0459 4.19361C14.0515 4.06583 14.1521 3.96128 14.2807 3.96128ZM14.0124 3.44434C13.9117 3.44434 13.8335 3.52565 13.8335 3.62439C13.8335 3.72314 13.9173 3.80445 14.0124 3.80445C14.113 3.80445 14.1913 3.72314 14.1913 3.62439C14.1913 3.52565 14.113 3.44434 14.0124 3.44434ZM14.0124 3.39206C14.1409 3.39206 14.2472 3.49661 14.2472 3.62439C14.2472 3.75218 14.1409 3.85673 14.0124 3.85673C13.8838 3.85673 13.7775 3.75218 13.7775 3.62439C13.7775 3.49661 13.8838 3.39206 14.0124 3.39206ZM13.5819 2.93901C13.4812 2.93901 13.403 3.02033 13.403 3.11907C13.403 3.21781 13.4812 3.29913 13.5819 3.29913C13.6825 3.29913 13.7608 3.21781 13.7608 3.11907C13.7608 3.02033 13.6825 2.93901 13.5819 2.93901ZM13.5819 2.88674C13.7105 2.88674 13.8167 2.99129 13.8167 3.11907C13.8167 3.24685 13.716 3.3514 13.5819 3.3514C13.4533 3.3514 13.3471 3.24685 13.3471 3.11907C13.3526 2.99129 13.4533 2.88674 13.5819 2.88674ZM13.0563 2.55566C12.9557 2.55566 12.8774 2.63698 12.8774 2.73572C12.8774 2.83446 12.9557 2.91578 13.0563 2.91578C13.157 2.91578 13.2352 2.83446 13.2352 2.73572C13.2352 2.63698 13.157 2.55566 13.0563 2.55566ZM13.0563 2.50339C13.1849 2.50339 13.2911 2.60794 13.2911 2.73572C13.2911 2.8635 13.1849 2.96805 13.0563 2.96805C12.9277 2.96805 12.8215 2.8635 12.8215 2.73572C12.8215 2.60794 12.9277 2.50339 13.0563 2.50339ZM12.4861 2.32914C12.3854 2.32914 12.3072 2.41045 12.3072 2.5092C12.3072 2.60794 12.3854 2.68925 12.4861 2.68925C12.5867 2.68925 12.665 2.60794 12.665 2.5092C12.6706 2.41045 12.5867 2.32914 12.4861 2.32914ZM12.4861 2.27686C12.6147 2.27686 12.7209 2.38141 12.7209 2.5092C12.7209 2.63698 12.6147 2.74153 12.4861 2.74153C12.3575 2.74153 12.2513 2.63698 12.2513 2.5092C12.2569 2.38141 12.3575 2.27686 12.4861 2.27686ZM11.9102 2.38141C11.8096 2.38141 11.7313 2.46273 11.7313 2.56147C11.7313 2.66021 11.8096 2.74153 11.9102 2.74153C12.0109 2.74153 12.0891 2.66021 12.0891 2.56147C12.0891 2.46273 12.0109 2.38141 11.9102 2.38141ZM11.9102 2.32914C12.0388 2.32914 12.145 2.43369 12.145 2.56147C12.145 2.68925 12.0388 2.7938 11.9102 2.7938C11.7816 2.7938 11.6754 2.68925 11.6754 2.56147C11.6754 2.43369 11.7816 2.32914 11.9102 2.32914ZM11.4853 1.88771C11.3847 1.88771 11.3064 1.96902 11.3064 2.06776C11.3064 2.16651 11.3847 2.24782 11.4853 2.24782C11.586 2.24782 11.6642 2.16651 11.6642 2.06776C11.6698 1.96902 11.586 1.88771 11.4853 1.88771ZM11.4853 1.84124C11.6139 1.84124 11.7201 1.94579 11.7201 2.07357C11.7201 2.20136 11.6139 2.30591 11.4853 2.30591C11.3567 2.30591 11.2505 2.20136 11.2505 2.07357C11.2561 1.94579 11.3567 1.84124 11.4853 1.84124ZM10.9318 1.52178C10.8312 1.52178 10.7529 1.6031 10.7529 1.70184C10.7529 1.80058 10.8312 1.8819 10.9318 1.8819C11.0325 1.8819 11.1107 1.80058 11.1107 1.70184C11.1107 1.6031 11.0325 1.52178 10.9318 1.52178ZM10.9318 1.46951C11.0604 1.46951 11.1667 1.57406 11.1667 1.70184C11.1667 1.82962 11.0604 1.93417 10.9318 1.93417C10.8033 1.93417 10.697 1.82962 10.697 1.70184C10.7026 1.57406 10.8033 1.46951 10.9318 1.46951ZM10.356 1.30687C10.2554 1.30687 10.1771 1.38819 10.1771 1.48693C10.1771 1.58567 10.2554 1.66699 10.356 1.66699C10.4566 1.66699 10.5349 1.58567 10.5349 1.48693C10.5405 1.38819 10.4566 1.30687 10.356 1.30687ZM10.356 1.2546C10.4846 1.2546 10.5908 1.35915 10.5908 1.48693C10.5908 1.61471 10.4846 1.71926 10.356 1.71926C10.2274 1.71926 10.1212 1.61471 10.1212 1.48693C10.1268 1.35915 10.2274 1.2546 10.356 1.2546ZM9.76896 1.20232C9.66833 1.20232 9.59006 1.28364 9.59006 1.38238C9.59006 1.48112 9.66833 1.56244 9.76896 1.56244C9.86959 1.56244 9.94787 1.48112 9.94787 1.38238C9.94787 1.28364 9.86959 1.20232 9.76896 1.20232ZM9.76896 1.15005C9.89755 1.15005 10.0038 1.2546 10.0038 1.38238C10.0038 1.51016 9.89755 1.61471 9.76896 1.61471C9.64037 1.61471 9.53974 1.51016 9.53974 1.38238C9.53415 1.2546 9.64037 1.15005 9.76896 1.15005ZM4.18378 5.97096C4.34032 5.88383 4.39623 5.68635 4.31237 5.52953C4.26887 5.45311 4.1986 5.39713 4.11628 5.37332C4.03396 5.3495 3.94596 5.35968 3.8707 5.40174C3.71416 5.48887 3.65825 5.68635 3.74211 5.84317C3.82597 6 4.02724 6.05808 4.18378 5.97096ZM4.20614 6.01743C4.02165 6.11617 3.79802 6.05227 3.69738 5.86641C3.6736 5.82288 3.65861 5.77476 3.65336 5.725C3.6481 5.67524 3.65268 5.62489 3.66681 5.57704C3.68094 5.52918 3.70433 5.48483 3.73555 5.4467C3.76676 5.40856 3.80514 5.37745 3.84834 5.35528C4.03283 5.25653 4.26205 5.32043 4.3571 5.50629C4.45773 5.68635 4.39064 5.91868 4.20614 6.01743ZM6.49836 4.86738C6.67167 4.82091 6.7779 4.64666 6.73317 4.47241C6.68845 4.29816 6.50954 4.19361 6.33623 4.24008C6.16291 4.28654 6.05669 4.46079 6.10142 4.63504C6.15173 4.80929 6.32505 4.91384 6.49836 4.86738ZM6.51513 4.91965C6.41952 4.94571 6.31789 4.93169 6.23214 4.88063C6.14638 4.82956 6.08337 4.74554 6.05669 4.64666C6.00637 4.44337 6.12378 4.24008 6.33064 4.1878C6.5319 4.13553 6.73876 4.2575 6.78908 4.46079C6.8394 4.66408 6.7164 4.86738 6.51513 4.91965ZM9.19311 4.52469C9.37202 4.52469 9.51738 4.37948 9.51738 4.19942C9.51665 4.15594 9.50768 4.11304 9.49099 4.07316C9.4743 4.03328 9.45021 3.99721 9.4201 3.967C9.38999 3.9368 9.35444 3.91305 9.3155 3.89712C9.27655 3.88119 9.23496 3.87338 9.19311 3.87415C9.15126 3.87338 9.10967 3.88119 9.07073 3.89712C9.03178 3.91305 8.99624 3.9368 8.96612 3.967C8.93601 3.99721 8.91192 4.03328 8.89523 4.07316C8.87854 4.11304 8.86957 4.15594 8.86885 4.19942C8.86885 4.37948 9.01421 4.52469 9.19311 4.52469ZM9.19311 4.57696C9.14465 4.57773 9.09652 4.56857 9.05147 4.55001C9.00642 4.53146 8.96533 4.50386 8.93055 4.4688C8.89576 4.43374 8.86797 4.39191 8.84875 4.34569C8.82953 4.29946 8.81926 4.24976 8.81853 4.19942C8.81853 3.99032 8.98625 3.82188 9.19311 3.82188C9.39997 3.82188 9.56769 3.99032 9.56769 4.19942C9.57328 4.40852 9.39997 4.57696 9.19311 4.57696ZM6.04551 3.96128C6.14614 3.96128 6.22441 3.87996 6.22441 3.78122C6.22441 3.68248 6.14614 3.60116 6.04551 3.60116C5.94487 3.60116 5.8666 3.68248 5.8666 3.78122C5.86101 3.87996 5.94487 3.96128 6.04551 3.96128ZM6.04551 4.01355C5.91692 4.01355 5.81629 3.909 5.81629 3.78122C5.81629 3.65344 5.92251 3.54889 6.04551 3.54889C6.1741 3.54889 6.28032 3.65344 6.28032 3.78122C6.27473 3.909 6.1741 4.01355 6.04551 4.01355ZM6.19646 3.31075C6.29709 3.31075 6.37536 3.22943 6.37536 3.13069C6.37536 3.03195 6.29709 2.95063 6.19646 2.95063C6.09582 2.95063 6.01755 3.03195 6.01755 3.13069C6.01196 3.22943 6.09582 3.31075 6.19646 3.31075ZM6.19646 3.36302C6.06787 3.36302 5.96165 3.25847 5.96165 3.13069C5.96165 3.0029 6.06787 2.89835 6.19646 2.89835C6.32505 2.89835 6.43127 3.0029 6.43127 3.13069C6.42568 3.25847 6.31946 3.36302 6.19646 3.36302ZM3.95456 5.0242C4.05519 5.0242 4.13346 4.94288 4.13346 4.84414C4.13346 4.7454 4.05519 4.66408 3.95456 4.66408C3.85393 4.66408 3.77566 4.7454 3.77566 4.84414C3.77566 4.94288 3.85393 5.0242 3.95456 5.0242ZM3.95456 5.07648C3.82597 5.07648 3.71975 4.97193 3.71975 4.84414C3.71975 4.71636 3.82597 4.61181 3.95456 4.61181C4.08315 4.61181 4.18378 4.71636 4.18378 4.84414C4.18937 4.97193 4.08315 5.07648 3.95456 5.07648ZM4.10551 4.37367C4.20614 4.37367 4.28442 4.29235 4.28442 4.19361C4.28296 4.14533 4.26347 4.09953 4.23008 4.06592C4.19668 4.03231 4.15201 4.01353 4.10551 4.01355C4.00488 4.01355 3.92661 4.09487 3.92661 4.19361C3.92661 4.29235 4.00488 4.37367 4.10551 4.37367ZM4.10551 4.42594C3.97692 4.42594 3.8707 4.32139 3.8707 4.19361C3.8707 4.06583 3.97692 3.96128 4.10551 3.96128C4.2341 3.96128 4.34032 4.06583 4.34032 4.19361C4.34032 4.32139 4.2341 4.42594 4.10551 4.42594ZM4.37387 3.80445C4.4745 3.80445 4.55277 3.72314 4.55277 3.62439C4.55277 3.52565 4.4745 3.44434 4.37387 3.44434C4.27323 3.44434 4.19496 3.52565 4.19496 3.62439C4.19496 3.72314 4.27882 3.80445 4.37387 3.80445ZM4.37387 3.85673C4.24528 3.85673 4.13906 3.75218 4.13906 3.62439C4.13906 3.49661 4.24528 3.39206 4.37387 3.39206C4.50246 3.39206 4.60868 3.49661 4.60868 3.62439C4.60868 3.75218 4.50246 3.85673 4.37387 3.85673ZM4.80436 3.29913C4.90499 3.29913 4.98326 3.21781 4.98326 3.11907C4.98326 3.02033 4.90499 2.93901 4.80436 2.93901C4.70372 2.93901 4.62545 3.02033 4.62545 3.11907C4.62545 3.21781 4.70372 3.29913 4.80436 3.29913ZM4.80436 3.3514C4.67577 3.3514 4.56954 3.24685 4.56954 3.11907C4.56954 2.99129 4.67577 2.88674 4.80436 2.88674C4.93294 2.88674 5.03917 2.99129 5.03917 3.11907C5.03917 3.24685 4.93294 3.3514 4.80436 3.3514ZM5.32989 2.91578C5.43052 2.91578 5.50879 2.83446 5.50879 2.73572C5.50879 2.63698 5.43052 2.55566 5.32989 2.55566C5.22926 2.55566 5.15098 2.63698 5.15098 2.73572C5.15098 2.83446 5.23485 2.91578 5.32989 2.91578ZM5.32989 2.96805C5.2013 2.96805 5.09508 2.8635 5.09508 2.73572C5.09508 2.60794 5.2013 2.50339 5.32989 2.50339C5.45848 2.50339 5.5647 2.60794 5.5647 2.73572C5.5647 2.8635 5.45848 2.96805 5.32989 2.96805ZM5.90015 2.69506C6.00078 2.69506 6.07905 2.61375 6.07905 2.515C6.07905 2.41626 6.00078 2.33495 5.90015 2.33495C5.79951 2.33495 5.72124 2.41626 5.72124 2.515C5.72124 2.61375 5.79951 2.69506 5.90015 2.69506ZM5.90015 2.74734C5.77156 2.74734 5.66534 2.64279 5.66534 2.515C5.66534 2.38722 5.77156 2.28267 5.90015 2.28267C6.02874 2.28267 6.13496 2.38722 6.13496 2.515C6.12937 2.64279 6.02874 2.74734 5.90015 2.74734ZM6.476 2.74153C6.57663 2.74153 6.6549 2.66021 6.6549 2.56147C6.6549 2.46273 6.57663 2.38141 6.476 2.38141C6.37536 2.38141 6.29709 2.46273 6.29709 2.56147C6.29709 2.66021 6.37536 2.74153 6.476 2.74153ZM6.476 2.7938C6.34741 2.7938 6.24118 2.68925 6.24118 2.56147C6.24118 2.43369 6.34741 2.32914 6.476 2.32914C6.60459 2.32914 6.71081 2.43369 6.71081 2.56147C6.71081 2.68925 6.60459 2.7938 6.476 2.7938ZM6.9009 2.25363C7.00153 2.25363 7.0798 2.17231 7.0798 2.07357C7.0798 1.97483 7.00153 1.89351 6.9009 1.89351C6.80026 1.89351 6.72199 1.97483 6.72199 2.07357C6.72199 2.17231 6.80026 2.25363 6.9009 2.25363ZM6.9009 2.30591C6.77231 2.30591 6.66608 2.20136 6.66608 2.07357C6.66608 1.94579 6.77231 1.84124 6.9009 1.84124C7.02948 1.84124 7.13571 1.94579 7.13571 2.07357C7.13571 2.20136 7.02948 2.30591 6.9009 2.30591ZM7.45438 1.8819C7.55502 1.8819 7.63329 1.80058 7.63329 1.70184C7.63329 1.6031 7.55502 1.52178 7.45438 1.52178C7.35375 1.52178 7.27548 1.6031 7.27548 1.70184C7.27548 1.80058 7.35375 1.8819 7.45438 1.8819ZM7.45438 1.93417C7.32579 1.93417 7.21957 1.82962 7.21957 1.70184C7.21957 1.57406 7.32579 1.46951 7.45438 1.46951C7.58297 1.46951 7.68919 1.57406 7.68919 1.70184C7.68919 1.82962 7.58297 1.93417 7.45438 1.93417ZM8.03023 1.66699C8.13087 1.66699 8.20914 1.58567 8.20914 1.48693C8.20914 1.38819 8.13087 1.30687 8.03023 1.30687C7.9296 1.30687 7.85133 1.38819 7.85133 1.48693C7.85133 1.58567 7.9296 1.66699 8.03023 1.66699ZM8.03023 1.71926C7.90164 1.71926 7.79542 1.61471 7.79542 1.48693C7.79542 1.35915 7.90164 1.2546 8.03023 1.2546C8.15882 1.2546 8.26504 1.35915 8.26504 1.48693C8.26504 1.61471 8.15882 1.71926 8.03023 1.71926ZM9.19311 3.44434C9.29375 3.44434 9.37202 3.36302 9.37202 3.26428C9.37202 3.16554 9.29375 3.08422 9.19311 3.08422C9.09248 3.08422 9.01421 3.16554 9.01421 3.26428C9.01421 3.36302 9.09248 3.44434 9.19311 3.44434ZM9.19311 3.49661C9.06452 3.49661 8.9583 3.39206 8.9583 3.26428C8.9583 3.1365 9.06452 3.03195 9.19311 3.03195C9.3217 3.03195 9.42792 3.1365 9.42792 3.26428C9.42792 3.39206 9.3217 3.49661 9.19311 3.49661ZM9.19311 2.788C9.29375 2.788 9.37202 2.70668 9.37202 2.60794C9.37202 2.5092 9.29375 2.42788 9.19311 2.42788C9.09248 2.42788 9.01421 2.5092 9.01421 2.60794C9.01421 2.70668 9.09248 2.788 9.19311 2.788ZM9.19311 2.84027C9.06452 2.84027 8.9583 2.73572 8.9583 2.60794C8.9583 2.48015 9.06452 2.37561 9.19311 2.37561C9.3217 2.37561 9.42792 2.48015 9.42792 2.60794C9.42792 2.73572 9.3217 2.84027 9.19311 2.84027ZM9.19311 2.13166C9.29375 2.13166 9.37202 2.05034 9.37202 1.9516C9.37202 1.85286 9.29375 1.77154 9.19311 1.77154C9.09248 1.77154 9.01421 1.85286 9.01421 1.9516C9.01421 2.05034 9.09248 2.13166 9.19311 2.13166ZM9.19311 2.17812C9.06452 2.17812 8.9583 2.07357 8.9583 1.94579C8.9583 1.81801 9.06452 1.71346 9.19311 1.71346C9.3217 1.71346 9.42792 1.81801 9.42792 1.94579C9.42792 2.07938 9.3217 2.17812 9.19311 2.17812ZM8.62285 1.56244C8.72349 1.56244 8.80176 1.48112 8.80176 1.38238C8.8003 1.3341 8.78082 1.2883 8.74742 1.25469C8.71403 1.22108 8.66935 1.2023 8.62285 1.20232C8.52222 1.20232 8.43836 1.28364 8.43836 1.38238C8.43836 1.48693 8.52222 1.56244 8.62285 1.56244ZM8.62285 1.62052C8.49427 1.62052 8.38804 1.51597 8.38804 1.38819C8.38804 1.26041 8.49427 1.15586 8.62285 1.15586C8.75144 1.15586 8.85767 1.26041 8.85767 1.38819C8.85207 1.51597 8.75144 1.62052 8.62285 1.62052ZM14.5155 5.40174C14.4402 5.36012 14.3523 5.35018 14.2701 5.37396C14.1879 5.39774 14.1176 5.45344 14.0739 5.52953C13.99 5.68635 14.0459 5.88383 14.2024 5.97096C14.359 6.05808 14.5547 6 14.6441 5.84317C14.7336 5.68635 14.6777 5.48887 14.5155 5.40174ZM14.5435 5.35528C14.728 5.45402 14.7895 5.68635 14.6888 5.86641C14.6385 5.95571 14.5568 6.02131 14.4609 6.04946C14.365 6.07761 14.2624 6.06613 14.1745 6.01743C14.1316 5.99492 14.0936 5.96352 14.0628 5.92518C14.032 5.88685 14.0091 5.84237 13.9955 5.79449C13.9819 5.74661 13.9778 5.69634 13.9836 5.64678C13.9894 5.59722 14.0049 5.54941 14.0291 5.50629C14.0795 5.41699 14.1612 5.35139 14.257 5.32324C14.3529 5.29509 14.4556 5.30657 14.5435 5.35528ZM4.64222 5.48306C4.59191 5.35528 4.53041 5.25653 4.39623 5.21588C4.48568 4.09487 4.77081 3.58374 5.78274 3.0726C5.87219 3.10745 5.8666 3.11907 5.8666 3.13069C5.8666 3.2817 5.95046 3.35721 6.05669 3.43853C5.87778 3.47919 5.71565 3.5605 5.71565 3.78122C5.71565 3.96128 5.83865 4.06002 5.99519 4.10649C5.94487 4.20523 5.93369 4.24589 5.94487 4.36205C5.73802 4.46079 5.69329 4.59439 5.74361 4.80348C5.82188 5.09971 6.00078 5.13456 6.28591 5.05905C6.30128 5.15133 6.28596 5.24629 6.24247 5.32832C6.19898 5.41035 6.12992 5.47455 6.04663 5.51038C5.96335 5.54621 5.87081 5.55152 5.78424 5.52544C5.69766 5.49936 5.62221 5.44345 5.57029 5.36689C5.57029 5.33785 5.5647 5.31462 5.55911 5.28558C5.51438 5.11713 5.33548 5.01258 5.15658 5.05324C4.98326 5.09971 4.87145 5.27977 4.91617 5.45402C4.93294 5.5121 4.9609 5.55857 5.00003 5.59923C5.01681 5.76767 4.94413 5.91868 4.79877 6C4.64782 6.08132 4.53041 6.04647 4.38505 5.99419C4.62545 5.87803 4.74845 5.76767 4.64222 5.48306ZM4.659 4.26912C4.55836 4.51888 4.50805 4.80929 4.4745 5.1636C4.59191 5.21588 4.67018 5.33785 4.7149 5.45983C4.78758 5.64569 4.78758 5.83737 4.58632 5.98258C4.64782 5.98838 4.70372 5.97677 4.75963 5.94192C4.87145 5.87803 4.93294 5.76186 4.92735 5.63988C4.88869 5.59241 4.86011 5.53699 4.84349 5.47725C4.78758 5.25653 4.92176 5.03582 5.13421 4.98354C5.35225 4.92546 5.57029 5.05905 5.63179 5.27396C5.63738 5.29719 5.64297 5.32043 5.64297 5.34366C5.82747 5.57018 6.19646 5.45402 6.21323 5.15779C5.87219 5.22749 5.72683 5.05324 5.67093 4.82091C5.62061 4.62924 5.64297 4.43175 5.86101 4.31559C5.86101 4.25169 5.8666 4.19942 5.88338 4.15295C5.82384 4.12739 5.77128 4.08699 5.73033 4.03533C5.68938 3.98367 5.6613 3.92233 5.64856 3.85673C5.45289 3.89739 5.23485 3.95547 5.05594 4.03098C4.88263 4.09487 4.75404 4.1878 4.659 4.26912ZM5.78833 3.15392C5.22366 3.45015 4.89381 3.75218 4.69813 4.17038C4.79877 4.09487 4.91058 4.03098 5.03358 3.98451C5.21807 3.909 5.4417 3.85092 5.63738 3.81026V3.78122C5.63738 3.61278 5.74361 3.46176 5.88897 3.40368C5.82898 3.33479 5.79347 3.24666 5.78833 3.15392ZM13.5875 6.00581C13.5189 5.96793 13.463 5.90936 13.427 5.83783C13.3911 5.76629 13.3769 5.68514 13.3862 5.60503C13.4253 5.56438 13.4533 5.51791 13.4701 5.45983C13.4801 5.41749 13.4819 5.37352 13.4755 5.33043C13.4691 5.28735 13.4546 5.246 13.4328 5.20877C13.411 5.17153 13.3823 5.13914 13.3484 5.11344C13.3145 5.08775 13.276 5.06927 13.2352 5.05905C13.1874 5.04594 13.1373 5.0442 13.0886 5.05395C13.04 5.0637 12.9941 5.0847 12.9544 5.11539C12.9147 5.14607 12.8821 5.18566 12.8591 5.23121C12.8361 5.27676 12.8232 5.3271 12.8215 5.37851C12.5699 5.70958 12.0612 5.53533 12.1059 5.07067C12.391 5.14037 12.5699 5.11133 12.6482 4.8151C12.7041 4.606 12.6538 4.47241 12.4525 4.37367C12.4581 4.2575 12.4525 4.21684 12.4022 4.1181C12.5588 4.07164 12.6818 3.97289 12.6818 3.79284C12.6818 3.57212 12.5196 3.4908 12.3407 3.45595C12.4469 3.36883 12.5364 3.29913 12.5364 3.14811C12.5364 3.1365 12.5364 3.11907 12.5308 3.10745L12.6035 3.08422C13.6098 3.58955 13.9173 4.1181 14.0068 5.22749C13.867 5.26815 13.8055 5.36689 13.7608 5.49468C13.6545 5.77928 13.7775 5.88964 14.0179 6.01162C13.8558 6.05227 13.7384 6.08713 13.5875 6.00581ZM12.7432 3.85673C12.7153 3.99032 12.6258 4.10068 12.5028 4.15295C12.5196 4.19942 12.5308 4.2575 12.5252 4.31559C12.7488 4.43175 12.7656 4.62924 12.7153 4.82091C12.6538 5.05324 12.514 5.22749 12.173 5.15779C12.1898 5.45402 12.5588 5.57018 12.7432 5.34366C12.7432 5.32043 12.7488 5.29719 12.7544 5.27396C12.8103 5.05905 13.034 4.92546 13.2464 4.98354C13.4645 5.04163 13.593 5.26234 13.5371 5.47725C13.5204 5.53533 13.4924 5.59342 13.4533 5.63408C13.4421 5.83156 13.6042 5.98838 13.7943 5.97677C13.593 5.83737 13.593 5.64569 13.6657 5.45402C13.7105 5.33204 13.7831 5.21007 13.9061 5.15779C13.8782 4.80349 13.8223 4.51307 13.7216 4.26331C13.6266 4.18199 13.4924 4.08906 13.3247 4.02517C13.157 3.96128 12.9333 3.90319 12.7432 3.85673ZM12.5979 3.1423C12.5923 3.24105 12.5532 3.33398 12.4917 3.39787C12.6426 3.45595 12.7488 3.60116 12.7488 3.77541V3.80445C12.9501 3.85092 13.1626 3.90319 13.3526 3.9787C13.4868 4.03098 13.5986 4.09487 13.6881 4.16457C13.4924 3.75218 13.1626 3.45015 12.5979 3.1423ZM11.4238 6.63892L10.8536 6.23814L11.5468 6.16263L12.1171 6.56341L11.4238 6.63892ZM10.3504 6.40658C10.2218 6.40658 10.1212 6.30203 10.1212 6.17425C10.1212 6.04647 10.2274 5.94192 10.3504 5.94192C10.479 5.94192 10.5852 6.04647 10.5852 6.17425C10.5852 6.30203 10.479 6.40658 10.3504 6.40658ZM10.3504 6.35431C10.451 6.35431 10.5293 6.27299 10.5293 6.17425C10.5293 6.07551 10.451 5.99419 10.3504 5.99419C10.2498 5.99419 10.1715 6.07551 10.1715 6.17425C10.1715 6.27299 10.2554 6.35431 10.3504 6.35431ZM5.79951 6.95837C5.90015 6.95837 5.97842 6.87706 5.97842 6.77832C5.97842 6.67957 5.90015 6.59826 5.79951 6.59826C5.69888 6.59826 5.62061 6.67957 5.62061 6.77832C5.62061 6.87706 5.69888 6.95837 5.79951 6.95837ZM5.79951 7.01065C5.67093 7.01065 5.5647 6.9061 5.5647 6.77832C5.5647 6.65053 5.67093 6.54598 5.79951 6.54598C5.9281 6.54598 6.03433 6.65053 6.03433 6.77832C6.02874 6.9061 5.9281 7.01065 5.79951 7.01065ZM8.03582 6.35431C8.13646 6.35431 8.21473 6.27299 8.21473 6.17425C8.21327 6.12597 8.19379 6.08017 8.16039 6.04656C8.127 6.01295 8.08232 5.99417 8.03582 5.99419C7.93519 5.99419 7.85692 6.07551 7.85692 6.17425C7.85133 6.27299 7.93519 6.35431 8.03582 6.35431ZM8.03582 6.40658C7.90723 6.40658 7.80101 6.30203 7.80101 6.17425C7.80101 6.04647 7.90723 5.94192 8.03582 5.94192C8.16441 5.94192 8.27063 6.04647 8.27063 6.17425C8.26504 6.30203 8.16441 6.40658 8.03582 6.40658ZM12.5867 6.95837C12.6873 6.95837 12.7656 6.87706 12.7656 6.77832C12.7656 6.67957 12.6873 6.59826 12.5867 6.59826C12.4861 6.59826 12.4078 6.67957 12.4078 6.77832C12.4078 6.87706 12.4861 6.95837 12.5867 6.95837ZM12.5867 7.01065C12.4581 7.01065 12.3519 6.9061 12.3519 6.77832C12.3519 6.65053 12.4581 6.54598 12.5867 6.54598C12.7153 6.54598 12.8215 6.65053 12.8215 6.77832C12.8215 6.9061 12.7153 7.01065 12.5867 7.01065ZM6.96239 6.63892L6.26914 6.56341L6.8394 6.16263L7.53265 6.23814L6.96239 6.63892ZM9.77455 6.11036L9.19311 5.89545L8.61726 6.11036L9.19311 6.32527L9.77455 6.11036ZM9.91991 6.11036L9.19311 6.38335L8.46631 6.11036L9.19311 5.83737L9.91991 6.11036Z" fill="#004996"/>
</g>
</svg>
