<svg width="25" height="24" viewBox="0 0 25 24" fill="none" xmlns="http://www.w3.org/2000/svg">
<path d="M13.9355 23.0279C13.8397 23.3095 13.5347 23.9999 12.7962 23.9999C11.9562 23.9999 11.665 23.0911 11.6508 23.0528L11.626 22.9668C11.626 22.9668 12.3493 23.0269 12.7478 23.0269C13.1453 23.0269 13.8263 22.9876 13.9365 22.9668L13.9355 23.0279H13.9355Z" fill="black"/>
<path d="M16.1387 22.5801L16.3111 22.6019C16.1055 23.1391 15.7362 23.7412 15.0125 23.7412C14.3066 23.7412 13.9586 23.3327 13.8128 23.0595L13.6895 22.9843C13.6895 22.9843 14.9054 22.945 16.1387 22.5801Z" fill="black"/>
<path d="M9.47802 22.5801L9.30566 22.6019C9.51027 23.1391 9.88119 23.7412 10.6072 23.7412C11.3091 23.7412 11.6874 23.3112 11.8433 23.0595L11.927 22.9843C11.927 22.9843 10.7131 22.945 9.47802 22.5801Z" fill="black"/>
<path d="M13.3856 23.0855C13.271 23.2495 13.194 23.2411 13.0586 23.2411C12.9884 23.2411 12.8876 23.2975 12.8886 23.4017C12.8917 23.4837 12.9585 23.5502 13.0684 23.5502C13.3184 23.5502 13.5095 23.2038 13.5603 23.0563C13.5603 23.0563 13.7068 23.0503 13.7494 23.0459C13.7494 23.0459 13.4874 23.8294 12.8053 23.8294C12.1223 23.8294 11.8438 23.0553 11.8438 23.0553C11.8438 23.0553 12.4196 23.0902 12.7479 23.0902C13.0771 23.0902 13.2868 23.0872 13.3856 23.0855Z" fill="url(#paint0_radial_231_4937)"/>
<path d="M9.57129 22.7402C10.0151 22.8578 10.3323 22.9573 11.0798 23.048C11.0798 23.048 11.056 23.1236 10.8934 23.1175C10.8312 23.1135 10.8228 23.0981 10.8013 23.0944C10.7533 23.0856 10.6837 23.1343 10.6908 23.2153C10.6982 23.2724 10.7459 23.3433 10.9118 23.3433C11.0778 23.3433 11.271 23.2083 11.3688 23.0819C11.3688 23.0819 11.4679 23.1051 11.571 23.1101C11.571 23.1101 11.2515 23.5563 10.6239 23.5563C9.93482 23.5563 9.67813 22.9378 9.57129 22.7402Z" fill="url(#paint1_radial_231_4937)"/>
<path d="M12.7387 19.0676C15.1188 19.0676 17.7556 17.6068 19.6068 15.5009C19.8084 15.2731 20.1461 14.8403 20.9501 14.8403C21.7554 14.8403 22.8258 15.5744 22.7005 16.9103C22.6071 17.8833 21.2165 20.0786 18.8354 21.4289C16.455 22.7845 14.2621 23.0745 12.7387 23.0745C11.2141 23.0745 9.02315 22.7845 6.6414 21.4289C4.26066 20.0786 2.87038 17.8833 2.77765 16.9103C2.65233 15.5744 3.72309 14.8403 4.52675 14.8403C5.33276 14.8403 5.67177 15.2731 5.87268 15.5009C7.72124 17.6068 10.3593 19.0676 12.7387 19.0676Z" fill="#FFE500" stroke="black" stroke-width="0.255035" stroke-miterlimit="3.863"/>
<path d="M12.7189 19.3916C10.3241 19.3916 7.59896 17.9785 5.59183 15.6925C5.38755 15.4603 5.1275 15.1616 4.50863 15.1616C4.14712 15.1616 3.73722 15.3551 3.46542 15.6545C3.26081 15.8769 3.03133 16.269 3.08643 16.8701C3.16606 17.6912 4.46731 19.8163 6.78656 21.136C8.65595 22.1994 10.652 22.7366 12.7189 22.7366C14.7879 22.7366 16.7839 22.1994 18.6533 21.136C20.9719 19.8163 22.2752 17.6912 22.3518 16.8701C22.4092 16.269 22.1781 15.8769 21.9762 15.6545C21.703 15.3551 21.2921 15.1616 20.9323 15.1616C20.3107 15.1616 20.051 15.4603 19.8486 15.6925C17.8426 17.9785 15.1141 19.3916 12.7189 19.3916Z" fill="#DA020E"/>
<path d="M23.0207 7.47014L23.0291 6.91511C23.2001 7.0458 23.5216 7.04782 23.7098 6.84724C23.7955 6.75585 23.8442 6.61441 23.8371 6.46893C23.8291 6.30464 23.7545 6.13396 23.6318 6.01368C22.937 5.33466 22.3198 4.65666 22.3198 4.65666C22.256 4.55587 22.1562 4.48296 22.0984 4.4581C22.0134 4.41744 21.7111 4.27936 21.4806 4.62945C21.2726 4.94661 21.3035 5.3938 21.3435 5.55708L21.995 6.44507C22.218 6.72797 22.8467 7.32971 23.0207 7.47014Z" fill="black"/>
<path d="M9.0968 1.71468C9.91692 1.43918 10.6668 1.21139 11.6774 1.12202L11.8307 1.03601C11.2665 0.590834 10.7061 0.287109 10.1481 0.287109C9.79765 0.287109 9.0847 0.525319 8.92578 1.78322L9.0968 1.71468Z" fill="black"/>
<path d="M16.3839 1.71468C15.5635 1.43918 14.8143 1.21139 13.8046 1.12202L13.6494 1.03601C14.2159 0.590834 14.7749 0.287109 15.3337 0.287109C15.6844 0.287109 16.3944 0.525319 16.5566 1.78322L16.3839 1.71468Z" fill="black"/>
<path d="M11.8125 1.08017C12.2251 0.286927 12.6024 0 12.8134 0C13.0741 0 13.3812 0.414599 13.6224 0.951156L13.6731 1.07278L13.4611 1.05632C13.3221 1.03011 12.9259 1.02507 12.7747 1.02507C12.6195 1.02507 12.2849 1.02507 12.0833 1.04389L11.8125 1.08017Z" fill="black"/>
<path d="M8.55905 18.9566L7.96168 20.0364C7.78126 20.3609 7.59546 20.5669 7.29073 20.3922C6.9907 20.2225 7.06025 19.9766 7.24437 19.6413L7.84342 18.5601L7.36028 18.292L6.7273 19.4347C6.37889 20.0636 6.81734 20.4537 7.16071 20.6428C7.52726 20.8458 8.06079 20.9966 8.40618 20.3724L9.04353 19.2247L8.55905 18.9566ZM16.2409 21.1813L16.0396 20.5617L16.639 20.3682L16.556 20.1105L15.956 20.305L15.7853 19.7755L16.3988 19.5743L16.3161 19.3193L15.1929 19.6845L15.8172 21.6036L17.0553 21.2021L16.9736 20.9461L16.2409 21.1813ZM17.524 18.6977L16.8402 19.0918L17.8526 20.8473L18.5336 20.4535C19.2375 20.0477 19.3043 19.4328 19.0271 18.9396C18.6935 18.3543 18.1428 18.3409 17.524 18.6977ZM18.5571 19.2319C18.8134 19.6811 18.7614 20.0087 18.3666 20.2348L18.1785 20.3444L17.4353 19.0602L17.6375 18.943C18.1116 18.6705 18.3807 18.9131 18.5571 19.2319ZM13.0877 20.0545L13.1243 20.3176L13.6894 20.2376L13.9337 21.9726L14.4592 21.8997L14.2156 20.1657L14.7723 20.0884L14.734 19.8217L13.0877 20.0545ZM12.6093 20.0709L12.0801 20.042L11.9743 22.0579L12.5038 22.0861L12.6093 20.0709ZM11.0026 19.8245L10.6341 21.202L9.94429 19.5406L9.51524 19.4253L8.99246 21.3757L9.45981 21.4997L9.8314 20.1107L10.5316 21.7863L10.9512 21.8995L11.472 19.9485L11.0026 19.8245Z" fill="#FFE500"/>
<path d="M8.21777 7.09671V16.5518L12.7387 19.4567L17.2593 16.5518L17.266 7.11116C17.1212 6.98349 16.8205 6.70362 16.585 6.55713H8.87159C8.67639 6.69421 8.28531 7.02414 8.21778 7.09671H8.21777Z" fill="#FFE500"/>
<g filter="url(#filter0_f_231_4937)">
<path d="M8.21778 3.25635L8.21777 7.09686V16.552L12.7387 19.4568L17.2593 16.552L17.266 3.27079" stroke="#B54005" stroke-width="1.21563" stroke-miterlimit="3.863"/>
</g>
<path d="M14.5458 13.8807V13.5293C14.5458 13.5293 14.4523 13.3848 14.2209 13.3848C13.99 13.3848 13.852 13.4544 13.852 13.5125C13.852 13.6076 14.0586 13.8807 14.5458 13.8807ZM12.7227 10.7699L13.0721 10.1598L13.346 10.7699H13.7995C13.5267 11.0259 13.4152 11.4133 13.4152 11.6717V11.9532C13.4152 12.0728 13.355 12.2707 13.355 12.2707C13.355 12.2707 13.7488 12.5708 13.8093 12.6228C13.8345 12.6427 13.862 12.6547 13.8439 12.7068C13.8126 12.7945 13.5452 12.9151 13.518 12.938C13.4575 12.9917 13.4417 13.024 13.4575 13.0771C13.4767 13.1281 13.5267 13.1376 13.6292 13.1013C13.7327 13.068 13.947 12.9554 14.1268 12.8785C14.3059 12.8006 14.5458 12.8204 14.5458 12.8204V12.476H13.8684V11.3817L13.7488 11.1889L14.0475 10.6567L14.3479 11.1922L14.2296 11.3817V11.9532H14.5746V11.3817L14.4557 11.1922L14.7554 10.6607L15.0537 11.1922L14.9358 11.3817V11.9532H15.2832V11.3817L15.1603 11.1922L15.461 10.6607L15.7606 11.1922L15.641 11.3817L15.6468 12.4743H14.964V12.9796C15.1189 13.1251 15.2651 13.4544 15.2651 13.6482C15.2651 13.8468 15.1357 13.9308 15.1357 13.9308C15.1791 14.0867 15.1707 14.1515 15.1522 14.2926C15.1357 14.4361 14.9566 14.6599 14.9566 14.6599V17.2714C14.9566 17.4488 14.5457 17.4314 14.5457 17.2798V14.7187C14.3132 14.4643 13.6803 14.2644 13.6803 14.2644C13.4481 14.4966 13.3053 14.8998 13.3053 14.8998C13.4061 14.9703 13.563 14.8998 13.6221 14.8312C13.6803 14.7627 13.7995 14.7449 13.8684 14.7882C13.9359 14.8312 13.9527 14.8477 13.9296 14.9485C13.903 15.0546 13.8607 15.2243 13.8607 15.3429C13.8607 15.4645 13.9974 15.4373 14.0996 15.4464C14.3059 15.4645 14.3398 15.695 14.3227 15.8237C14.3059 15.9531 14.2454 16.2275 14.2454 16.3982C14.2454 16.5672 14.2545 16.7379 14.2713 16.8347C14.2891 16.9281 14.3227 17.0312 14.3133 17.1518C14.3028 17.3141 14.203 17.34 14.0996 17.2358C13.9974 17.1333 12.5672 15.6087 12.5672 15.6087C12.4721 15.9188 12.8679 16.4476 12.9955 16.6109C13.1242 16.7742 13.1158 16.8941 13.0033 17.006C12.8931 17.1165 12.6784 17.1757 12.6364 17.2798C12.5927 17.3806 12.7389 17.6911 13.0396 18.0761C13.3392 18.4605 12.6955 18.7185 12.3115 18.7954C11.9248 18.8714 11.9248 18.6059 11.9517 18.4605C11.9772 18.3163 11.9772 18.2286 11.9678 18.102C11.9594 17.973 11.8411 17.7942 11.6768 17.5802C11.5145 17.3652 11.5145 17.1696 11.5821 16.6714C11.6503 16.1745 11.6342 15.8573 11.6342 15.8573C11.6342 15.8573 11.4628 15.8644 11.2142 15.8573C10.9669 15.8479 10.7616 15.7044 10.7441 15.1044C10.727 14.506 10.7129 13.0771 10.6722 12.9272C10.6326 12.7791 10.4723 12.7518 10.4048 12.732C10.3346 12.7146 10.3312 12.6134 10.3991 12.5771C10.5778 12.4901 10.7922 12.2707 10.7129 12.1343C10.6326 11.9976 10.3178 12.0258 10.1071 12.1289C9.89581 12.2311 9.67305 12.4555 9.6156 12.5167C9.56016 12.5771 9.51212 12.5771 9.51817 12.512C9.52522 12.4421 9.47919 12.1152 9.45198 12.0019C9.42174 11.8877 9.3196 11.6717 9.285 11.6146C9.25106 11.5571 9.285 11.5349 9.34279 11.5571C9.39822 11.58 9.52522 11.6327 9.64449 11.6643C9.76477 11.7006 9.87934 11.6414 9.93411 11.5292C9.99122 11.4133 10.1028 11.1691 10.1599 11.0599C10.216 10.952 10.3067 10.9762 10.3813 10.9927C10.4552 11.0101 10.5238 11.0558 10.592 11.083C10.6598 11.1113 10.7166 11.1059 10.7408 11.0713C10.764 11.0384 10.7922 11.0259 10.8332 10.9406C10.8732 10.8552 10.9229 10.8959 10.9293 10.9298C11.1336 12.1582 11.6657 12.2146 11.6657 12.2146C11.5858 12.4192 11.3983 12.7455 11.354 12.8278C11.3059 12.9047 11.2881 13.0142 11.2763 13.0992C11.2673 13.1839 11.3059 13.9953 11.3627 14.2926C11.4205 14.5903 11.6022 14.4744 11.6614 14.3834C11.7161 14.2926 11.8945 13.915 11.8945 13.915C11.8945 13.915 11.9386 13.8122 11.9386 13.7269C11.9386 13.6408 11.7907 13.4544 11.7568 13.3963C11.7215 13.3371 11.5969 13.2239 11.5969 12.938C11.5969 12.6531 11.8536 12.4555 11.9459 12.3806C12.0373 12.3057 12.0373 12.2019 12.0249 12.1394C11.9849 11.919 11.7507 11.4553 11.6382 11.2776C11.523 11.1005 11.3005 10.7642 11.3005 10.7642H11.7628L12.0605 10.146L12.3844 10.7669L12.7227 10.7699L12.7227 10.7699ZM12.6478 12.6427C12.7987 12.3934 12.8618 12.1343 12.8618 12.1343H12.4257C12.4257 12.1343 12.4956 12.3994 12.6478 12.6427ZM12.1936 11.3858C12.211 11.5134 12.3061 11.5621 12.3784 11.5249C12.4503 11.4852 12.4378 11.3817 12.3844 11.2991C12.3333 11.2181 12.2272 11.1277 12.1946 11.1412C12.1613 11.1549 12.1821 11.3105 12.1936 11.3858H12.1936ZM13.058 11.1412C13.0268 11.1277 12.9149 11.2181 12.8618 11.2991C12.8108 11.3817 12.7977 11.4852 12.8702 11.5249C12.9411 11.5621 13.0325 11.5124 13.0553 11.3858C13.0678 11.3105 13.0923 11.1549 13.058 11.1412Z" fill="url(#paint2_linear_231_4937)"/>
<path d="M8.57324 9.4541V10.0233H16.9142V9.4541H16.2991V9.54598H9.18835V9.4541H8.57324Z" fill="#DA020E"/>
<path d="M8.57324 6.89648H16.9126V9.16434H8.57324V6.89648Z" fill="#DA020E"/>
<path d="M10.0063 8.50597L10.645 8.66287L10.9897 7.70231V7.45906L10.0063 8.50597ZM15.2701 9.0722V8.77636H14.6674V8.52774H15.1599V7.4311H14.706L14.5508 7.12939L14.3992 7.4311H13.944V8.52774H14.4386V8.77636H13.2529V8.52774H13.7461V7.4311H13.2915L13.138 7.12939L12.9828 7.4311H12.5295V8.52774H13.0251V8.77636H11.8149V8.52774H12.3091V7.4311H11.8539L11.7017 7.12939L11.5454 7.4311H11.0919V8.52774H11.5878V8.77636L10.6302 8.77938L9.67773 8.55697L9.86857 9.0722H15.2701V9.0722Z" fill="#FFE500"/>
<path d="M9.14355 1.62525C9.94856 1.35579 10.557 1.14581 11.5485 1.05778C11.0916 0.740616 10.686 0.472168 10.2197 0.472168C9.97443 0.472168 9.76478 0.565907 9.7164 0.737256C9.67138 0.89315 9.79435 0.961018 9.83802 0.950603C9.88372 0.938843 9.9163 0.925405 9.90522 0.883071C9.89346 0.838386 9.92806 0.724824 10.084 0.724824C10.2425 0.724824 10.3023 0.871648 10.3023 0.972442C10.3023 1.07324 10.1424 1.24156 9.84844 1.24156C9.56017 1.24156 9.41234 1.04938 9.42343 0.871648C9.28433 1.07525 9.20336 1.28121 9.14355 1.62525Z" fill="url(#paint3_radial_231_4937)"/>
<path d="M3.5346 6.44486L4.18842 5.55687C4.22605 5.39358 4.25595 4.94673 4.04697 4.62957C3.81851 4.27914 3.51747 4.41757 3.42911 4.45822C3.37333 4.48308 3.27187 4.55565 3.20938 4.65678C3.20938 4.65678 2.58076 5.3489 1.88898 6.02993C1.79121 6.12702 1.6837 6.30442 1.67463 6.46872C1.66623 6.61453 1.72502 6.76102 1.80969 6.8524C1.99884 7.05399 2.32945 7.04593 2.49845 6.91489L2.5102 7.46993C2.68424 7.32983 3.31185 6.72775 3.5346 6.44486Z" fill="black"/>
<path d="M12.7393 5.15273C16.462 5.15273 18.58 8.64691 19.0423 9.2604C19.8634 10.3564 20.8687 11.246 22.0335 10.9521C23.7446 10.5143 23.6556 7.97965 23.6556 7.97965C23.2427 7.68231 22.5392 7.30803 21.2564 5.48972C20.0002 3.70735 17.1574 1.06689 12.7393 1.06689C8.3202 1.06689 5.47816 3.70735 4.22496 5.48972C2.94085 7.30803 2.23496 7.68231 1.82607 7.97965C1.82607 7.97965 1.73368 10.5143 3.44616 10.9521C4.61033 11.246 5.6149 10.3564 6.43738 9.2604C6.89801 8.64691 9.01736 5.15273 12.7393 5.15273Z" fill="#FFE500" stroke="black" stroke-width="0.255035" stroke-miterlimit="3.863"/>
<path d="M12.7387 4.82115C16.3277 4.82115 18.4621 7.86545 19.234 8.96393C20.2556 10.3275 21.1204 10.8422 21.9513 10.6309C23.1521 10.3251 23.3012 8.67247 23.3174 8.17219V8.15237L23.3039 8.14195C22.8806 7.84865 22.1724 7.36249 20.9857 5.68024C20.2778 4.67567 17.5903 1.39551 12.7387 1.39551C7.8889 1.39551 5.19905 4.67567 4.49148 5.68024C3.31455 7.35174 2.57439 7.86141 2.17793 8.13356L2.16113 8.14733L2.16315 8.1648C2.17928 8.66608 2.32879 10.3275 3.52655 10.6309C4.35844 10.8422 5.22492 10.3275 6.24378 8.96393C7.01502 7.86545 9.15151 4.82115 12.7387 4.82115" fill="#DA020E"/>
<path d="M10.7898 2.27807C10.1313 2.41751 9.69757 2.90299 9.83969 3.56118C9.92234 3.91664 10.2395 4.57079 11.2427 4.35745C11.5213 4.30436 11.6718 4.19349 11.8176 4.05406L11.6348 3.84407C11.5659 3.92067 11.4631 4.03222 11.2323 4.08026C10.7468 4.18273 10.4582 3.78998 10.3863 3.45097C10.2795 2.94869 10.5721 2.60263 10.9027 2.53106C11.1389 2.47899 11.282 2.54316 11.3728 2.57844H11.3758L11.4373 2.32108C11.278 2.25724 11.0868 2.21491 10.7898 2.27807ZM16.2972 5.17367C16.6738 5.40046 17.0847 5.36182 17.2769 5.04365C17.4167 4.82123 17.418 4.63644 17.25 4.3055C17.2067 4.21176 17.1499 4.14457 17.1119 4.05923C17.0377 3.92081 16.9692 3.80758 17.033 3.7004C17.1035 3.58416 17.2668 3.57475 17.4147 3.66513C17.5695 3.75886 17.6337 3.91375 17.6663 4.01958L17.9092 3.91476C17.8346 3.71519 17.7241 3.53611 17.4714 3.3866C17.0397 3.12655 16.6886 3.19509 16.5425 3.43868C16.3943 3.6836 16.4363 3.88754 16.5478 4.09652C16.5478 4.09652 16.617 4.21513 16.657 4.2961C16.7548 4.45938 16.8687 4.66533 16.7887 4.79401C16.692 4.95629 16.5253 4.99157 16.363 4.89078C16.1551 4.75975 16.1064 4.60721 16.063 4.45837L15.7959 4.5726C15.8547 4.77755 15.9928 4.98989 16.2972 5.17367H16.2972ZM13.4219 2.17214L13.4068 2.99461L12.6159 2.98319L12.6276 2.15769L12.0975 2.14795L12.0622 4.16617L12.5934 4.1776L12.6102 3.25231L13.4024 3.26676L13.3873 4.19036L13.9178 4.19843L13.9524 2.1802L13.4219 2.17214V2.17214ZM21.0174 8.58083C21.0211 8.58587 21.3285 8.73773 21.6702 8.43098C21.9557 8.17429 21.86 7.82253 21.5616 7.49226L21.0116 6.88111L19.5122 8.23242L19.8666 8.62552L20.4637 8.08997L20.636 8.2845L20.258 9.13721L20.7106 9.49872L21.0174 8.58083ZM21.2851 7.58667C21.4256 7.74256 21.4279 7.92769 21.2646 8.07149C21.1057 8.21797 20.9028 8.18437 20.7486 8.01504L20.6589 7.91458L21.1665 7.45597L21.2851 7.58667ZM18.945 7.07108L19.4473 6.65413L19.8502 7.13357L20.0585 6.95987L19.6533 6.47841L20.0783 6.12059L20.4932 6.61482L20.6992 6.44313L19.9412 5.53968L18.3961 6.83723L19.2306 7.83341L19.4389 7.66038L18.945 7.07108ZM18.3658 4.03837L18.1857 4.23592L18.6091 4.6186L17.4358 5.92018L17.8316 6.27598L19.0032 4.97407L19.4211 5.35036L19.6005 5.15281L18.3658 4.03837ZM14.9109 4.16631L15.1246 3.55079L15.719 3.75574L15.8073 3.49972L15.212 3.29511L15.3931 2.76796L16.0056 2.97795L16.0916 2.72328L14.9758 2.33925L14.32 4.25064L15.5496 4.67162L15.637 4.41695L14.9109 4.16631ZM8.52097 3.17749L9.27894 4.38567L7.59132 3.75571L7.2157 3.99156L8.28579 5.70606L8.69333 5.44937L7.93032 4.22876L9.63541 4.86175L10.0036 4.63093L8.93154 2.91744L8.52097 3.17749ZM6.16039 5.00316L5.81534 5.37341L6.78262 7.29689L7.01881 7.04423L6.75608 6.53254L7.22309 6.03025L7.75259 6.25468L8.14165 5.83807L6.16039 5.00316ZM6.97614 5.91904L6.62572 6.29533L6.26555 5.60322L6.97614 5.91904ZM5.02041 6.22374L4.64479 6.67093L5.34664 8.12235L3.84146 7.62947L3.51758 8.01316L5.06409 9.31172L5.29894 9.03285L4.206 8.11294L5.67087 8.59003L5.82508 8.40726L5.12658 7.00758L6.22422 7.92782L6.56692 7.5223L5.02041 6.22374Z" fill="#FFE500"/>
<path d="M2.65696 7.25187L2.65527 6.8067C3.41492 6.10921 3.77307 5.40836 3.77307 5.40836C3.77307 5.40836 3.49388 5.30319 3.36889 5.14428C3.30707 5.05591 3.28322 4.9353 3.29363 4.85433C3.31782 4.70247 3.43609 4.62553 3.4764 4.60806C3.56376 4.57043 3.72604 4.48509 3.90679 4.73371C4.09931 5.00283 4.04858 5.51352 4.02203 5.63111C4.02203 5.63111 3.66791 6.24763 2.65695 7.25187" fill="url(#paint4_radial_231_4937)"/>
<path d="M3.49781 5.48943C3.39533 5.66817 3.13696 6.09957 2.48349 6.71206C2.37496 6.81386 2.10417 6.90021 1.95063 6.72785C1.89317 6.66099 1.85521 6.56725 1.86092 6.45839C1.86831 6.3324 1.94391 6.18591 2.01984 6.12141C2.15154 6.0102 2.71296 5.4434 3.1121 4.99756C3.12319 5.07887 3.19307 5.21494 3.19307 5.21494C3.24817 5.29087 3.31537 5.40006 3.49781 5.48943Z" fill="url(#paint5_linear_231_4937)"/>
<path d="M12.7189 19.3916C10.3241 19.3916 7.59896 17.9785 5.59183 15.6925C5.38755 15.4603 5.1275 15.1616 4.50863 15.1616C4.14712 15.1616 3.73722 15.3551 3.46542 15.6545C3.26081 15.8769 3.03133 16.269 3.08643 16.8701C3.16606 17.6912 4.46731 19.8163 6.78657 21.136C8.65595 22.1994 10.652 22.7366 12.7189 22.7366" fill="url(#paint6_linear_231_4937)"/>
<path d="M12.7188 19.3916C15.1136 19.3916 17.8387 17.9785 19.8459 15.6925C20.0501 15.4603 20.3102 15.1616 20.9291 15.1616C21.2906 15.1616 21.7005 15.3551 21.9723 15.6545C22.1769 15.8769 22.4064 16.269 22.3513 16.8701C22.2716 17.6912 20.9704 19.8163 18.6511 21.136C16.7817 22.1994 14.7857 22.7366 12.7188 22.7366" fill="url(#paint7_linear_231_4937)"/>
<path d="M19.2344 8.96386C20.2559 10.3274 21.1207 10.8422 21.9516 10.6308C23.1524 10.3251 23.3016 8.6724 23.3177 8.17213V8.15231L23.3043 8.14189C22.8809 7.84858 22.1727 7.36242 20.986 5.68018" fill="url(#paint8_linear_231_4937)"/>
<path d="M6.24738 8.96386C5.22583 10.3274 4.36102 10.8422 3.53015 10.6308C2.32936 10.3251 2.18019 8.6724 2.16406 8.17213V8.15231L2.1775 8.14189C2.60083 7.84858 3.30908 7.36242 4.49575 5.68018" fill="url(#paint9_linear_231_4937)"/>
<path d="M16.3376 1.62525C15.5325 1.35579 14.9241 1.14581 13.9326 1.05778C14.3895 0.740616 14.7951 0.472168 15.2614 0.472168C15.5067 0.472168 15.7163 0.565907 15.7647 0.737256C15.8097 0.89315 15.6868 0.961018 15.6431 0.950603C15.5974 0.938843 15.5648 0.925405 15.5759 0.883071C15.5876 0.838386 15.553 0.724824 15.3971 0.724824C15.2386 0.724824 15.1788 0.871648 15.1788 0.972442C15.1788 1.07324 15.3387 1.24156 15.6327 1.24156C15.9209 1.24156 16.0688 1.04938 16.0577 0.871648C16.1968 1.07525 16.2777 1.28121 16.3376 1.62525Z" fill="url(#paint10_radial_231_4937)"/>
<path d="M12.7768 0.568381C12.7516 0.722259 12.5745 0.869754 12.3955 0.869754C12.2161 0.869754 12.1623 0.840861 12.1623 0.840861C12.1351 0.883194 12.1112 0.915784 12.083 0.961478C12.2456 0.955091 12.6229 0.944678 12.7741 0.944678C12.925 0.944678 13.3433 0.966517 13.4333 0.972901C13.2878 0.631883 13.0073 0.159833 12.8134 0.159833C12.8067 0.159833 12.7983 0.15918 12.7879 0.15918C12.7425 0.15918 12.5854 0.295404 12.5012 0.415018C12.3907 0.572162 12.7768 0.568381 12.7768 0.568381Z" fill="url(#paint11_radial_231_4937)"/>
<path d="M22.8241 7.25187L22.8258 6.8067C22.0662 6.10921 21.708 5.40836 21.708 5.40836C21.708 5.40836 21.9872 5.30319 22.1122 5.14428C22.174 5.05591 22.1979 4.9353 22.1875 4.85433C22.1633 4.70247 22.045 4.62553 22.0047 4.60806C21.9173 4.57043 21.755 4.48509 21.5743 4.73371C21.3818 5.00283 21.4325 5.51352 21.459 5.63111C21.459 5.63111 21.8132 6.24763 22.8241 7.25187Z" fill="url(#paint12_radial_231_4937)"/>
<path d="M21.9834 5.48943C22.0859 5.66817 22.3442 6.09957 22.9977 6.71206C23.1062 6.81386 23.377 6.90021 23.5306 6.72785C23.588 6.66099 23.626 6.56725 23.6203 6.45839C23.6129 6.3324 23.5373 6.18591 23.4614 6.12141C23.3297 6.0102 22.7682 5.4434 22.3691 4.99756C22.358 5.07887 22.2881 5.21494 22.2881 5.21494C22.233 5.29087 22.1658 5.40006 21.9834 5.48943Z" fill="url(#paint13_linear_231_4937)"/>
<path d="M8.21777 7.09671V16.5518L12.7387 19.4567L17.2593 16.5518L17.266 7.11116C17.1212 6.98349 16.8205 6.70362 16.585 6.55713H8.87159C8.67639 6.69421 8.28531 7.02414 8.21778 7.09671H8.21777Z" stroke="black" stroke-width="0.255035" stroke-miterlimit="3.863"/>
<path d="M16.0535 22.7402C15.6096 22.8578 15.2925 22.9573 14.5449 23.048C14.5449 23.048 14.5688 23.1236 14.7314 23.1175C14.7935 23.1135 14.8019 23.0981 14.8234 23.0944C14.8715 23.0856 14.941 23.1343 14.934 23.2153C14.9266 23.2724 14.8789 23.3433 14.7129 23.3433C14.5469 23.3433 14.3537 23.2083 14.256 23.0819C14.256 23.0819 14.1569 23.1051 14.0537 23.1101C14.0537 23.1101 14.3732 23.5563 15.0008 23.5563C15.6899 23.5563 15.9466 22.9378 16.0535 22.7402Z" fill="url(#paint14_radial_231_4937)"/>
<path d="M1 13.0346C1 11.8939 1.92562 10.9663 3.06761 10.9663C4.20994 10.9663 5.13489 11.8939 5.13489 13.0346C5.13489 14.1773 4.20994 15.1029 3.06761 15.1029C1.92562 15.1029 1 14.1773 1 13.0346Z" fill="#FFE500" stroke="black" stroke-width="0.255035" stroke-miterlimit="3.863"/>
<path d="M1.47363 12.9578C1.47363 12.093 2.18734 11.3896 3.06789 11.3896C3.94869 11.3896 4.66188 12.093 4.66188 12.9578C4.66188 13.8241 3.94869 14.5259 3.06789 14.5259C2.18734 14.5259 1.47363 13.8241 1.47363 12.9578Z" fill="url(#paint15_radial_231_4937)"/>
<path d="M3.50721 14.4559C3.41649 14.4848 3.37719 14.4213 3.33586 14.3756C3.17493 14.1905 3.1336 13.6976 3.1336 13.6324C3.1336 13.5669 3.15779 13.495 3.20382 13.4933C3.59188 13.486 3.86906 13.3734 4.1234 13.1621C4.3774 12.9544 4.48759 12.7162 4.5101 12.6739C4.53228 12.6269 4.58503 12.6353 4.59477 12.7004C4.60552 12.7549 4.62602 12.8526 4.62602 12.9585C4.62602 13.6687 4.14725 14.249 3.50721 14.4559ZM3.09765 14.5201C3.08656 14.5201 3.07413 14.5214 3.06372 14.5214C2.7778 14.5214 2.46299 14.4123 2.27652 14.3061C2.08333 14.2009 2.01076 13.705 2.01076 13.4544C2.01076 12.6383 2.3454 12.1525 2.39982 12.057C2.45291 11.9603 2.57252 11.9502 2.66021 11.9737C2.75092 11.9999 2.78318 12.0157 2.88766 12.0466C2.94209 12.0644 3.05263 12.0869 3.13562 12.1017C3.2186 12.1215 3.30798 12.139 3.25422 12.2939C3.20113 12.4491 3.02038 12.8221 3.00223 13.2642C2.98476 13.6644 3.03785 14.0618 3.12823 14.3061C3.1877 14.464 3.18769 14.5231 3.09765 14.5201V14.5201ZM1.91635 12.6571C1.84009 12.6168 1.74836 12.4199 1.71745 12.3624C1.69662 12.3211 1.69662 12.2029 1.72652 12.1525C1.8542 11.929 2.03529 11.7221 2.26846 11.6142C2.29702 11.6018 2.337 11.5994 2.337 11.668C2.337 11.7046 2.35682 11.7617 2.35749 11.798C2.35749 11.8346 2.37295 11.9095 2.32658 11.9687C2.27787 12.0281 2.06922 12.3981 2.0158 12.6054C2.00707 12.6517 1.99296 12.7004 1.91635 12.6571ZM1.87335 13.9667C1.65698 13.7531 1.50276 13.366 1.50276 12.9585C1.50276 12.8002 1.52628 12.6487 1.56828 12.5049C1.56828 12.5049 1.60692 12.4404 1.64051 12.4952C1.66638 12.5355 1.702 12.5761 1.73089 12.6299C1.76315 12.6836 1.93046 12.811 1.91635 12.9148C1.85789 13.2961 1.91031 13.8028 1.92845 13.8881C1.94457 13.9725 1.92139 14.0084 1.87335 13.9667ZM2.55639 11.4812C2.71665 11.4281 2.88767 11.3982 3.06372 11.3982C3.33149 11.3982 3.59154 11.4469 3.80858 11.5853C3.86435 11.6216 3.88015 11.6639 3.88015 11.7268C3.88015 11.9314 3.56029 11.9999 3.34863 11.9999C3.13562 11.9999 2.87355 11.9156 2.68809 11.8568C2.50331 11.799 2.46299 11.6922 2.46299 11.6435C2.46299 11.5968 2.49894 11.5 2.55639 11.4812ZM4.00043 11.7086C4.02898 11.7318 4.10458 11.793 4.10458 11.793C4.25375 11.929 4.38848 12.0843 4.46676 12.2704C4.56453 12.5049 4.26115 12.86 4.17211 12.942C3.77028 13.3193 3.51863 13.3123 3.37618 13.3328C3.23372 13.3536 3.14133 13.2642 3.14502 13.157C3.1541 12.8432 3.37752 12.3023 3.44169 12.2005C3.48268 12.135 3.55391 12.0943 3.55391 12.0943C3.70308 12.053 3.84789 11.9909 3.92282 11.9055C3.99606 11.8188 4.00043 11.7086 4.00043 11.7086ZM3.07917 11.2964C2.11861 11.2964 1.34082 12.0745 1.34082 13.0344C1.34082 13.995 2.11861 14.7728 3.07917 14.7728C4.03906 14.7728 4.81853 13.995 4.81853 13.0344C4.81853 12.0745 4.03906 11.2964 3.07917 11.2964Z" fill="#DA020E"/>
<path d="M20.3867 13.0307C20.3867 11.8901 21.3123 10.9658 22.4543 10.9658C23.597 10.9658 24.5219 11.8901 24.5219 13.0307C24.5219 14.1734 23.597 15.0994 22.4543 15.0994C21.3123 15.0994 20.3867 14.1734 20.3867 13.0307Z" fill="#FFE500" stroke="black" stroke-width="0.255035" stroke-miterlimit="3.863"/>
<path d="M23.6649 13.9597C23.6195 14.0043 23.594 13.9654 23.6131 13.8817C23.6289 13.7987 23.6817 13.2904 23.6229 12.9091C23.6084 12.8056 23.7768 12.6786 23.8077 12.6241C23.8386 12.5707 23.8739 12.5291 23.8987 12.4901C23.9333 12.4336 23.97 12.4968 23.97 12.4968C24.0143 12.6423 24.0358 12.7945 24.0358 12.9521C24.0358 13.3609 23.8796 13.7467 23.6649 13.9597V13.9597ZM23.5248 12.6C23.471 12.3933 23.261 12.0217 23.2137 11.9626C23.166 11.9055 23.1811 11.8296 23.1817 11.7929C23.1817 11.7566 23.2026 11.6985 23.2026 11.6609C23.2026 11.5954 23.2422 11.5967 23.2704 11.6092C23.505 11.717 23.685 11.9209 23.8141 12.1464C23.8426 12.1978 23.8433 12.3154 23.8221 12.3554C23.7919 12.4132 23.7008 12.61 23.6229 12.6517C23.5449 12.6944 23.5335 12.6446 23.5248 12.6ZM23.2637 14.3003C23.0769 14.4048 22.7621 14.515 22.4748 14.515H22.4416C22.3532 14.5174 22.3512 14.4559 22.4117 14.2987C22.4994 14.0564 22.5541 13.6573 22.536 13.2581C22.5179 12.814 22.3394 12.4451 22.284 12.2888C22.2303 12.134 22.32 12.1151 22.404 12.0977C22.4873 12.0812 22.5975 12.057 22.6522 12.0395C22.7551 12.0083 22.7883 11.9925 22.879 11.9666C22.9674 11.9438 23.0863 11.9552 23.1404 12.0496C23.1935 12.1464 23.5288 12.6352 23.5288 13.4493C23.5288 13.6986 23.4556 14.1938 23.2637 14.3003ZM22.033 14.4495C21.3913 14.2415 20.9136 13.6616 20.9136 12.9521C20.9136 12.8476 20.9341 12.7508 20.9424 12.6944C20.9549 12.6292 21.0039 12.6184 21.0285 12.6665C21.051 12.7102 21.1625 12.948 21.4152 13.1563C21.6712 13.366 21.9457 13.4806 22.3361 13.4886C22.3835 13.491 22.4056 13.5605 22.4056 13.6274C22.4056 13.6936 22.3657 14.1854 22.2054 14.3692C22.1627 14.4163 22.1217 14.4808 22.033 14.4495ZM21.0742 12.265C21.1504 12.0789 21.2858 11.9209 21.435 11.7879C21.435 11.7879 21.5089 11.7254 21.5375 11.7036C21.5375 11.7036 21.5435 11.8148 21.6178 11.8981C21.6917 11.9821 21.8351 12.0479 21.9843 12.0873C21.9843 12.0873 22.0545 12.1299 22.0965 12.1954C22.1627 12.2942 22.3845 12.8345 22.3942 13.1506C22.3969 13.2581 22.3055 13.3475 22.1627 13.327C22.0196 13.3079 21.7686 13.3122 21.3671 12.9369C21.2784 12.8546 20.975 12.5002 21.0742 12.265ZM21.73 11.5796C21.9501 11.4405 22.2067 11.3918 22.4748 11.3918C22.6522 11.3918 22.8209 11.422 22.9825 11.4751C23.042 11.4936 23.0769 11.5893 23.0769 11.6374C23.0769 11.6848 23.0376 11.7929 22.8515 11.8511C22.666 11.9082 22.405 11.9935 22.1923 11.9935C21.9783 11.9935 21.6594 11.924 21.6594 11.7204C21.6594 11.6589 21.6749 11.6142 21.73 11.5796ZM22.4584 11.292C21.4988 11.292 20.7207 12.0705 20.7207 13.028C20.7207 13.9909 21.4988 14.7663 22.4584 14.7663C23.4196 14.7663 24.1977 13.9909 24.1977 13.028C24.1977 12.0705 23.4196 11.292 22.4584 11.292Z" fill="#DA020E"/>
<path d="M20.8838 12.95C20.8838 12.0852 21.5975 11.3818 22.478 11.3818C23.3588 11.3818 24.072 12.0852 24.072 12.95C24.072 13.8163 23.3588 14.5181 22.478 14.5181C21.5975 14.5181 20.8838 13.8163 20.8838 12.95Z" fill="url(#paint16_radial_231_4937)"/>
<defs>
<filter id="filter0_f_231_4937" x="6.85875" y="2.50475" width="11.7669" height="18.4261" filterUnits="userSpaceOnUse" color-interpolation-filters="sRGB">
<feFlood flood-opacity="0" result="BackgroundImageFix"/>
<feBlend mode="normal" in="SourceGraphic" in2="BackgroundImageFix" result="shape"/>
<feGaussianBlur stdDeviation="0.375801" result="effect1_foregroundBlur_231_4937"/>
</filter>
<radialGradient id="paint0_radial_231_4937" cx="0" cy="0" r="1" gradientUnits="userSpaceOnUse" gradientTransform="translate(12.7966 23.4274) scale(0.810163 0.602252)">
<stop stop-color="#FFE500"/>
<stop offset="0.5" stop-color="#FFE500"/>
<stop offset="1" stop-color="#E15007"/>
</radialGradient>
<radialGradient id="paint1_radial_231_4937" cx="0" cy="0" r="1" gradientUnits="userSpaceOnUse" gradientTransform="translate(10.5712 23.1483) scale(0.856679 0.770269)">
<stop stop-color="#FFE500"/>
<stop offset="0.5" stop-color="#FFE500"/>
<stop offset="1" stop-color="#E15007"/>
</radialGradient>
<linearGradient id="paint2_linear_231_4937" x1="12.5056" y1="10.1171" x2="12.5056" y2="14.6146" gradientUnits="userSpaceOnUse">
<stop stop-color="#8F0904"/>
<stop offset="0.249601" stop-color="#B40509"/>
<stop offset="1" stop-color="#DA020E"/>
</linearGradient>
<radialGradient id="paint3_radial_231_4937" cx="0" cy="0" r="1" gradientUnits="userSpaceOnUse" gradientTransform="translate(10.1655 1.09924) scale(0.97944 0.932569)">
<stop stop-color="#FFE500"/>
<stop offset="0.5" stop-color="#FFE500"/>
<stop offset="1" stop-color="#E15007"/>
</radialGradient>
<radialGradient id="paint4_radial_231_4937" cx="0" cy="0" r="1" gradientUnits="userSpaceOnUse" gradientTransform="translate(3.0456 6.07078) rotate(-60.273) scale(1.52833 1.34444)">
<stop stop-color="#FFE500"/>
<stop offset="0.5" stop-color="#FFE500"/>
<stop offset="1" stop-color="#E15007"/>
</radialGradient>
<linearGradient id="paint5_linear_231_4937" x1="2.84044" y1="5.46265" x2="3.21195" y2="5.87102" gradientUnits="userSpaceOnUse">
<stop stop-color="#FFE500"/>
<stop offset="0.5" stop-color="#FFE500"/>
<stop offset="1" stop-color="#E15007"/>
</linearGradient>
<linearGradient id="paint6_linear_231_4937" x1="3.68452" y1="15.5995" x2="6.25071" y2="18.5448" gradientUnits="userSpaceOnUse">
<stop stop-color="#740703"/>
<stop offset="1" stop-color="#DA020E" stop-opacity="0"/>
</linearGradient>
<linearGradient id="paint7_linear_231_4937" x1="21.7532" y1="15.5995" x2="19.187" y2="18.5448" gradientUnits="userSpaceOnUse">
<stop stop-color="#740703"/>
<stop offset="1" stop-color="#DA020E" stop-opacity="0"/>
</linearGradient>
<linearGradient id="paint8_linear_231_4937" x1="22.7055" y1="10.1794" x2="21.3167" y2="8.87261" gradientUnits="userSpaceOnUse">
<stop stop-color="#740703"/>
<stop offset="1" stop-color="#DA020E" stop-opacity="0"/>
</linearGradient>
<linearGradient id="paint9_linear_231_4937" x1="2.77625" y1="10.1794" x2="4.24674" y2="8.62759" gradientUnits="userSpaceOnUse">
<stop stop-color="#740703"/>
<stop offset="1" stop-color="#DA020E" stop-opacity="0"/>
</linearGradient>
<radialGradient id="paint10_radial_231_4937" cx="0" cy="0" r="1" gradientUnits="userSpaceOnUse" gradientTransform="translate(15.3156 1.09924) rotate(180) scale(0.97944 0.932569)">
<stop stop-color="#FFE500"/>
<stop offset="0.5" stop-color="#FFE500"/>
<stop offset="1" stop-color="#E15007"/>
</radialGradient>
<radialGradient id="paint11_radial_231_4937" cx="0" cy="0" r="1" gradientUnits="userSpaceOnUse" gradientTransform="translate(12.7407 0.64545) scale(0.739955 0.707267)">
<stop stop-color="#FFE500"/>
<stop offset="0.5" stop-color="#FFE500"/>
<stop offset="1" stop-color="#E15007"/>
</radialGradient>
<radialGradient id="paint12_radial_231_4937" cx="0" cy="0" r="1" gradientUnits="userSpaceOnUse" gradientTransform="translate(22.4355 6.07078) rotate(-119.727) scale(1.52833 1.34444)">
<stop stop-color="#FFE500"/>
<stop offset="0.5" stop-color="#FFE500"/>
<stop offset="1" stop-color="#E15007"/>
</radialGradient>
<linearGradient id="paint13_linear_231_4937" x1="22.6408" y1="5.46265" x2="22.2693" y2="5.87102" gradientUnits="userSpaceOnUse">
<stop stop-color="#FFE500"/>
<stop offset="0.5" stop-color="#FFE500"/>
<stop offset="1" stop-color="#E15007"/>
</linearGradient>
<radialGradient id="paint14_radial_231_4937" cx="0" cy="0" r="1" gradientUnits="userSpaceOnUse" gradientTransform="translate(15.0536 23.1483) rotate(180) scale(0.85668 0.770269)">
<stop stop-color="#FFE500"/>
<stop offset="0.5" stop-color="#FFE500"/>
<stop offset="1" stop-color="#E15007"/>
</radialGradient>
<radialGradient id="paint15_radial_231_4937" cx="0" cy="0" r="1" gradientUnits="userSpaceOnUse" gradientTransform="translate(3.06776 12.9578) scale(1.59412 1.56813)">
<stop stop-color="#DA030E" stop-opacity="0"/>
<stop offset="0.875" stop-color="#DA020E" stop-opacity="0"/>
<stop offset="1" stop-color="#DA020E"/>
</radialGradient>
<radialGradient id="paint16_radial_231_4937" cx="0" cy="0" r="1" gradientUnits="userSpaceOnUse" gradientTransform="translate(22.4779 12.95) scale(1.59412 1.56813)">
<stop stop-color="#DA030E" stop-opacity="0"/>
<stop offset="0.875" stop-color="#DA020E" stop-opacity="0"/>
<stop offset="1" stop-color="#DA020E"/>
</radialGradient>
</defs>
</svg>
