<svg width="48" height="30" viewBox="0 0 48 30" fill="none" xmlns="http://www.w3.org/2000/svg">
<g id="Symbol">
<path id="Vector" d="M30.4901 3.35791H17.5107V26.6822H30.4901V3.35791Z" fill="#FF5F00"/>
<path id="Vector_2" d="M18.3347 15.0211C18.3327 12.7748 18.8417 10.5575 19.8233 8.53697C20.8049 6.51648 22.2332 4.74577 24.0003 3.35892C21.812 1.6389 19.184 0.569248 16.4166 0.272217C13.6491 -0.0248136 10.854 0.462766 8.35054 1.67922C5.84712 2.89568 3.73644 4.79193 2.25976 7.15125C0.783091 9.51056 0 12.2377 0 15.0211C0 17.8044 0.783091 20.5316 2.25976 22.8909C3.73644 25.2502 5.84712 27.1465 8.35054 28.3629C10.854 29.5794 13.6491 30.067 16.4166 29.7699C19.184 29.4729 21.812 28.4032 24.0003 26.6832C22.2333 25.2964 20.8049 23.5257 19.8233 21.5052C18.8417 19.4847 18.3327 17.2674 18.3347 15.0211Z" fill="#EB001B"/>
<path id="Vector_3" d="M48 15.0211C48.0001 17.8044 47.2172 20.5315 45.7406 22.8908C44.264 25.2502 42.1534 27.1464 39.65 28.3629C37.1466 29.5794 34.3515 30.067 31.5841 29.7699C28.8167 29.4729 26.1887 28.4032 24.0005 26.6832C25.766 25.295 27.1933 23.524 28.1747 21.5038C29.1561 19.4836 29.666 17.267 29.666 15.0211C29.666 12.7751 29.1561 10.5585 28.1747 8.53833C27.1933 6.51816 25.766 4.74717 24.0005 3.35892C26.1887 1.6389 28.8167 0.569242 31.5841 0.272215C34.3515 -0.0248127 37.1466 0.462775 39.65 1.67925C42.1534 2.89572 44.264 4.79198 45.7406 7.1513C47.2172 9.51061 48.0001 12.2378 48 15.0211Z" fill="#F79E1B"/>
<path id="Vector_4" d="M46.5849 24.2125V23.735H46.7775V23.6377H46.2871V23.735H46.4797V24.2125H46.5849ZM47.537 24.2125V23.6367H47.3867L47.2138 24.0327L47.0408 23.6367H46.8904V24.2125H46.9966V23.7782L47.1587 24.1526H47.2688L47.4309 23.7772V24.2125H47.537Z" fill="#F79E1B"/>
</g>
</svg>
