<svg width="24" height="24" viewBox="0 0 24 24" fill="none" xmlns="http://www.w3.org/2000/svg">
<path d="M16.6316 16.6316C17.0783 16.6316 17.5066 16.809 17.8225 17.1249C18.1383 17.4407 18.3158 17.8691 18.3158 18.3158C18.3158 18.7625 18.1383 19.1909 17.8225 19.5067C17.5066 19.8226 17.0783 20 16.6316 20C16.1849 20 15.7565 19.8226 15.4407 19.5067C15.1248 19.1909 14.9474 18.7625 14.9474 18.3158C14.9474 17.8691 15.1248 17.4407 15.4407 17.1249C15.7565 16.809 16.1849 16.6316 16.6316 16.6316ZM16.6316 17.4737C16.4082 17.4737 16.194 17.5624 16.0361 17.7203C15.8782 17.8783 15.7895 18.0924 15.7895 18.3158C15.7895 18.5391 15.8782 18.7533 16.0361 18.9112C16.194 19.0692 16.4082 19.1579 16.6316 19.1579C16.8549 19.1579 17.0691 19.0692 17.227 18.9112C17.385 18.7533 17.4737 18.5391 17.4737 18.3158C17.4737 18.0924 17.385 17.8783 17.227 17.7203C17.0691 17.5624 16.8549 17.4737 16.6316 17.4737ZM9.05263 16.6316C9.49931 16.6316 9.9277 16.809 10.2435 17.1249C10.5594 17.4407 10.7368 17.8691 10.7368 18.3158C10.7368 18.7625 10.5594 19.1909 10.2435 19.5067C9.9277 19.8226 9.49931 20 9.05263 20C8.60595 20 8.17757 19.8226 7.86171 19.5067C7.54586 19.1909 7.36842 18.7625 7.36842 18.3158C7.36842 17.8691 7.54586 17.4407 7.86171 17.1249C8.17757 16.809 8.60595 16.6316 9.05263 16.6316ZM9.05263 17.4737C8.82929 17.4737 8.6151 17.5624 8.45717 17.7203C8.29925 17.8783 8.21053 18.0924 8.21053 18.3158C8.21053 18.5391 8.29925 18.7533 8.45717 18.9112C8.6151 19.0692 8.82929 19.1579 9.05263 19.1579C9.27597 19.1579 9.49016 19.0692 9.64809 18.9112C9.80602 18.7533 9.89474 18.5391 9.89474 18.3158C9.89474 18.0924 9.80602 17.8783 9.64809 17.7203C9.49016 17.5624 9.27597 17.4737 9.05263 17.4737ZM18.3158 6.52632H6.75368L8.90105 11.5789H15.7895C16.0674 11.5789 16.3116 11.4442 16.4632 11.2421L18.9895 7.87368C19.0989 7.73053 19.1579 7.55368 19.1579 7.36842C19.1579 7.14508 19.0692 6.93089 18.9112 6.77296C18.7533 6.61504 18.5391 6.52632 18.3158 6.52632ZM15.7895 12.4211H8.94316L8.29474 13.7347L8.21053 14.1053C8.21053 14.3286 8.29925 14.5428 8.45717 14.7007C8.6151 14.8586 8.82929 14.9474 9.05263 14.9474H18.3158V15.7895H9.05263C8.60595 15.7895 8.17757 15.612 7.86171 15.2962C7.54586 14.9803 7.36842 14.5519 7.36842 14.1053C7.36817 13.8195 7.44062 13.5384 7.57895 13.2884L8.18526 12.0505L5.12842 4.84211H4V4H5.68421L6.4 5.68421H18.3158C18.7625 5.68421 19.1909 5.86165 19.5067 6.1775C19.8226 6.49336 20 6.92174 20 7.36842C20 7.78947 19.8568 8.14316 19.6211 8.42947L17.1705 11.7053C16.8674 12.1347 16.3621 12.4211 15.7895 12.4211Z" fill="black"/>
</svg>
