<svg width="20" height="24" viewBox="0 0 20 24" fill="none" xmlns="http://www.w3.org/2000/svg">
<path d="M9.17624 0C9.17624 0 8.49524 1.938 8.30924 2.527C7.84424 2.202 6.38624 1.194 5.78024 0.775C5.92024 1.581 6.13624 2.899 6.18324 3.178C6.05924 3.085 5.36224 2.48 4.30824 1.984C4.89724 2.666 5.31624 3.72 5.57924 4.572C7.17576 3.66501 8.98108 3.18973 10.8172 3.193C11.7942 3.193 12.7572 3.333 13.6712 3.596C13.7642 2.712 13.9502 1.628 14.3532 0.838C13.4382 1.566 12.8792 2.341 12.8022 2.434C12.7712 2.248 12.7092 0.914 12.6322 0C12.2602 0.403 10.8322 2.016 10.5692 2.264C10.3842 1.938 9.17624 0 9.17624 0ZM10.8502 3.86C9.17624 3.86 7.55024 4.246 6.15424 4.975C6.86724 5.021 7.37824 5.643 7.54924 6.139C6.99124 5.689 6.10724 5.472 5.56424 6.061C5.05324 6.65 5.10024 7.749 5.61124 8.633C4.41824 8.028 4.41724 6.448 4.83624 5.766C3.46504 6.76006 2.35758 8.07419 1.61024 9.594L2.68024 9.766C1.44024 11.192 0.573242 13.719 0.573242 14.912L2.32324 14.369C2.01324 15.423 1.92224 18.971 2.97624 20.754C2.97624 20.754 4.35624 19.794 5.92124 17.391C6.57124 19.561 6.27724 21.376 5.92124 23.158C8.74124 24.739 12.0112 23.854 13.9332 22.475L14.2902 23.825C16.5382 22.336 17.7782 20.197 18.0102 17.701L18.8472 18.631C20.1332 14.802 19.1272 11.748 17.2822 9.129L17.2042 9.766L16.4142 8.896C16.4142 8.896 16.5842 8.819 16.7242 8.633C16.7542 8.555 16.6782 8.138 16.3532 7.859C16.0432 7.937 15.7932 8.123 15.6692 8.309C15.3919 8.07711 15.0775 7.89354 14.7392 7.766C14.8012 7.843 15.3432 8.556 15.3892 8.773C15.8552 9.161 16.4912 9.61 16.9092 10.168C16.5692 9.765 14.9252 9.671 14.1812 10.09C14.1812 10.09 13.4372 9.222 12.7552 8.617C12.6152 8.106 13.0812 7.657 13.0812 7.657C13.0812 7.657 12.6012 7.627 12.1512 8.077C11.4692 7.565 10.6012 7.332 10.6012 7.332C9.64024 7.472 8.98924 8.152 8.98924 8.152C9.20624 8.292 9.50124 8.479 9.76524 8.572C10.2762 8.789 10.7712 8.711 11.0972 8.711C11.3602 8.711 11.7332 8.789 11.7332 8.789C11.7332 8.789 12.3682 9.284 13.2982 10.354C11.8722 9.78 10.3832 10.416 9.32924 9.904C8.08924 9.284 8.18324 8.309 8.18324 8.309C8.18324 8.309 7.34724 8.199 7.34724 8.168C7.34724 8.168 7.96524 7.348 8.89524 7.068L8.43124 6.666C8.98924 6.201 9.96524 5.581 11.5462 5.426C11.5462 5.426 12.2292 5.688 13.6562 6.711C13.8882 6.385 13.9642 5.703 13.9642 5.703C14.6922 5.951 16.1812 7.036 16.7702 7.687C16.4452 6.928 16.2112 6.464 16.1342 5.674C15.7772 5.317 14.8942 4.573 13.0652 4.123C13.3602 4.728 13.3292 5.238 13.3292 5.238C12.9892 4.788 12.2742 4.092 11.7792 3.906C11.4842 3.891 11.1742 3.859 10.8492 3.859L10.8502 3.86ZM14.1212 10.928C14.4981 11.2288 14.9226 11.4643 15.3772 11.625V12.973C14.9122 13.376 13.3922 14.648 12.3692 14.539C11.7962 13.439 11.2542 12.432 11.2542 12.432C11.2542 12.432 12.8192 11.114 14.1212 10.928ZM17.0962 10.959C17.5612 12.09 17.6862 13.439 17.1742 14.338C16.8942 13.733 16.5382 13.391 16.1662 12.988V11.641C16.1662 11.641 16.5842 11.377 17.0962 10.959ZM16.1192 14.354C16.5842 14.865 16.6782 15.422 16.6782 15.422C16.4762 16.553 15.8422 17.268 15.3772 17.562C15.4232 16.741 15.2052 16.043 15.2052 16.043C14.8652 16.415 14.0752 16.786 13.6092 16.879L12.9122 15.579C13.7342 15.547 15.1132 14.385 15.1132 14.385L16.1192 14.354Z" fill="black"/>
</svg>
