<svg width="24" height="24" viewBox="0 0 24 24" fill="none" xmlns="http://www.w3.org/2000/svg">
<path d="M20 19.1632L15.5307 14.6938C16.6047 13.4044 17.1402 11.7506 17.026 10.0765C16.9117 8.40228 16.1564 6.8366 14.9171 5.70513C13.6778 4.57367 12.0501 3.96353 10.3724 4.00165C8.69478 4.03977 7.09641 4.72321 5.90983 5.9098C4.72324 7.09638 4.0398 8.69475 4.00168 10.3724C3.96357 12.05 4.5737 13.6778 5.70516 14.9171C6.83663 16.1563 8.40231 16.9117 10.0765 17.0259C11.7507 17.1402 13.4045 16.6046 14.6938 15.5306L19.1632 20L20 19.1632ZM5.20478 10.531C5.20478 9.47759 5.51716 8.44781 6.10242 7.57191C6.68768 6.69601 7.51953 6.01332 8.49278 5.61019C9.46603 5.20706 10.537 5.10158 11.5702 5.30709C12.6034 5.51261 13.5524 6.01989 14.2973 6.76478C15.0422 7.50967 15.5495 8.45873 15.755 9.49192C15.9605 10.5251 15.855 11.5961 15.4519 12.5693C15.0488 13.5426 14.3661 14.3744 13.4902 14.9597C12.6143 15.5449 11.5845 15.8573 10.5311 15.8573C9.11892 15.8557 7.76507 15.2941 6.76654 14.2955C5.76801 13.297 5.20635 11.9432 5.20478 10.531Z" fill="black" fill-opacity="0.52"/>
</svg>
