<svg width="48" height="30" viewBox="0 0 48 30" fill="none" xmlns="http://www.w3.org/2000/svg">
<g id="symbol">
<path id="Vector" d="M30.4902 3.35889H17.5107V26.6833H30.4902V3.35889Z" fill="#7375CF"/>
<path id="Vector_2" d="M18.3348 15.0211C18.3328 12.7748 18.8418 10.5575 19.8234 8.53699C20.8049 6.5165 22.2333 4.74579 24.0004 3.35893C21.8121 1.63891 19.1841 0.56925 16.4166 0.272218C13.6492 -0.0248143 10.854 0.462767 8.35056 1.67923C5.84712 2.89569 3.73645 4.79195 2.25977 7.15127C0.783094 9.51059 0 12.2378 0 15.0211C0 17.8045 0.783094 20.5317 2.25977 22.891C3.73645 25.2503 5.84712 27.1466 8.35056 28.363C10.854 29.5795 13.6492 30.0671 16.4166 29.77C19.1841 29.473 21.8121 28.4033 24.0004 26.6833C22.2333 25.2964 20.8049 23.5257 19.8234 21.5053C18.8418 19.4848 18.3328 17.2674 18.3348 15.0211Z" fill="#EB001B"/>
<path id="Vector_3" d="M46.5849 24.2129V23.7354H46.7775V23.6382H46.2871V23.7354H46.4797V24.2129H46.5849ZM47.537 24.2129V23.6372H47.3866L47.2138 24.0332L47.0408 23.6372H46.8904V24.2129H46.9966V23.7787L47.1587 24.1531H47.2688L47.4309 23.7777V24.2129H47.537Z" fill="#00A2E5"/>
<path id="Vector_4" d="M48.0001 15.0211C48.0002 17.8044 47.2172 20.5316 45.7406 22.8909C44.264 25.2502 42.1534 27.1465 39.65 28.363C37.1466 29.5795 34.3515 30.067 31.5841 29.77C28.8167 29.473 26.1887 28.4033 24.0005 26.6833C25.766 25.295 27.1933 23.5241 28.1747 21.5039C29.1561 19.4837 29.666 17.2671 29.666 15.0211C29.666 12.7752 29.1561 10.5585 28.1747 8.53836C27.1933 6.51818 25.766 4.74719 24.0005 3.35893C26.1887 1.6389 28.8167 0.569243 31.5841 0.272215C34.3515 -0.0248132 37.1466 0.462776 39.65 1.67925C42.1534 2.89573 44.264 4.79199 45.7406 7.15132C47.2172 9.51064 48.0002 12.2378 48.0001 15.0211Z" fill="#00A2E5"/>
</g>
</svg>
