<svg width="24" height="24" viewBox="0 0 24 24" fill="none" xmlns="http://www.w3.org/2000/svg">
<g id="openmoji:youtube">
<path id="Vector" d="M20.988 7.13342C20.8784 6.72078 20.6624 6.34416 20.3614 6.0413C20.0605 5.73844 19.6853 5.51996 19.2733 5.40776C17.761 4.99976 11.6967 4.99976 11.6967 4.99976C11.6967 4.99976 5.63233 4.99976 4.12 5.40776C3.70806 5.51996 3.33284 5.73844 3.03191 6.0413C2.73098 6.34416 2.5149 6.72078 2.40533 7.13342C2 8.65542 2 11.8314 2 11.8314C2 11.8314 2 15.0074 2.40533 16.5298C2.5149 16.9424 2.73098 17.319 3.03191 17.6219C3.33284 17.9247 3.70806 18.1432 4.12 18.2554C5.63233 18.6631 11.6967 18.6631 11.6967 18.6631C11.6967 18.6631 17.761 18.6631 19.2733 18.2554C19.6853 18.1432 20.0605 17.9247 20.3614 17.6219C20.6624 17.319 20.8784 16.9424 20.988 16.5298C21.3933 15.0074 21.3933 11.8314 21.3933 11.8314C21.3933 11.8314 21.3933 8.65542 20.988 7.13342Z" fill="#FF543E"/>
<path id="Vector_2" d="M9 14.7667L14.0687 11.8833L9 9V14.7667Z" fill="white"/>
<g id="Group">
<path id="Vector_3" d="M9.95459 15.0186L15.1818 12.0451L9.95459 9.07153V15.0186Z" fill="white"/>
</g>
</g>
</svg>
